<svg width="70" height="238" viewBox="0 0 70 238" fill="none" xmlns="http://www.w3.org/2000/svg">
<g clip-path="url(#clip0_1604_18512)">
<path d="M25.0292 12.1899L25.0505 11.2723C25.0505 11.2723 25.6684 9.79874 25.4507 9.11902L26.2125 6.86755C26.2125 6.86755 26.3631 5.89431 26.202 5.56372C26.1013 5.35632 25.9582 5.20687 25.8022 5.15217C25.4859 5.03751 25.1266 5.306 24.9973 6.2471C24.9774 6.2539 24.9469 6.28822 24.9169 6.28698C24.896 7.30241 24.2282 8.15654 24.0145 9.15514C24.1148 9.16054 24.1797 9.20767 24.1229 9.22947L24.0061 9.19671C24.0692 9.90055 23.5677 10.2381 23.8183 10.9205C23.8183 10.9205 23.6785 10.8182 23.6769 10.8206C23.1969 12.897 22.2825 15.6617 21.8769 17.933L21.8968 17.9262L21.9144 17.9345C22.0901 17.7512 22.5325 16.7963 22.5325 16.7963C22.9142 17.6517 22.084 18.3798 21.897 19.1762L21.7444 19.1394C21.8406 18.7979 21.8514 18.4807 21.8187 18.3447C21.2758 19.5317 20.5789 21.9866 20.5039 23.2107C20.632 23.2032 20.4697 22.7875 20.8777 22.77C20.8002 23.0717 20.7778 23.3833 20.694 23.6657C20.4444 23.6185 20.573 23.4714 20.5365 23.428C20.1298 23.866 17.1625 33.8051 18.8663 31.6242L18.9785 31.7101C19.1995 31.1056 19.3831 30.6038 19.8047 30.0101C19.8102 29.915 19.8359 29.911 19.7067 29.8854C19.6949 29.8569 19.6675 29.8113 19.6105 29.8103C19.298 29.7593 19.4734 29.5823 19.4877 29.4914C20.4348 29.7858 20.1194 27.5166 20.2312 27.2443C20.7111 27.2806 20.3978 26.6985 20.638 26.5687C20.6506 26.5845 20.7337 26.6793 20.7526 26.6916C21.0883 26.5974 20.931 23.9575 21.3162 24.7787C23.0824 22.0351 23.3292 16.495 25.0339 13.491L24.9716 13.5036C24.9939 13.4817 24.9911 13.399 25.0605 13.393C24.9575 13.0445 25.0379 12.1941 25.0379 12.1941L25.0292 12.1899ZM22.5253 19.3482C22.5253 19.3482 22.5457 19.3579 22.5549 19.3558C22.5057 19.3486 22.4279 19.7608 22.4122 19.7729L22.258 19.7386C22.0687 19.2709 23.3806 18.5246 22.6791 19.3367C22.7085 19.3735 22.5806 19.3517 22.5269 19.3457L22.5253 19.3482ZM21.5394 22.9611C21.5055 23.0296 21.4728 23.1019 21.4364 23.1856C21.1984 22.1544 22.1431 21.0055 22.1943 19.9329C22.7881 20.4172 22.1973 21.1843 22.0403 21.6174C22.0774 22.094 21.7473 22.5848 21.5365 22.9597L21.5394 22.9611ZM19.8039 28.9811L19.8839 28.9996L19.8746 29.031C19.8537 29.0276 19.8287 29.0189 19.8203 29.0084C19.8057 29.0015 19.796 28.9871 19.8009 28.9797L19.8039 28.9811ZM24.5346 12.6154C24.6419 12.7088 24.5 12.957 24.301 12.7354C24.3556 12.6995 24.2728 12.5462 24.5346 12.6154ZM21.0722 23.9823C21.3276 24.0322 21.2864 24.3837 20.9343 24.3171C20.9591 24.1987 21.0165 24.0893 21.0722 23.9823ZM24.9599 10.002C24.7129 9.85847 25.0098 9.94438 25.1853 9.94653C25.1409 9.96121 25.1033 10.041 24.984 10.0005L24.9599 10.002ZM25.2299 8.36295C25.1051 8.31335 25.0452 8.20671 25.0507 8.16374C25.1806 8.07254 25.362 8.3379 25.2299 8.36295ZM25.9203 5.70965C25.7719 5.67813 25.7372 5.60301 25.8912 5.61444C25.9992 5.64303 26.0673 5.7373 25.8899 5.71475C25.8958 5.71753 25.9124 5.71567 25.9203 5.70965ZM20.0916 25.4689C19.6679 25.2901 20.119 25.0457 20.0429 24.8533C20.4758 24.9779 20.0671 25.2164 20.1099 25.3604C20.0953 25.4055 20.0901 25.4422 20.0916 25.4689ZM23.0048 15.0614C22.6065 14.9891 23.0197 14.6974 22.9629 14.563L23.1187 14.5948C23.1127 14.7775 23.1853 14.8999 23.0097 15.054L23.0048 15.0614ZM20.8243 22.2368C20.6841 22.1408 20.8632 22.0567 20.8805 21.9901C21.1018 22.0335 21.0622 22.3304 20.8243 22.2368ZM21.6739 19.3207C21.9213 19.3538 21.7612 19.473 21.7766 19.5193C21.7338 19.4795 21.5988 19.3989 21.6098 19.3651C21.6216 19.3414 21.6487 19.3413 21.6739 19.3207ZM23.1217 15.2212C23.0929 15.3572 23.0454 15.5039 22.9999 15.6417L22.8457 15.6074C22.8853 15.4668 22.925 15.3262 22.9659 15.1894L23.1201 15.2237L23.1217 15.2212ZM22.5093 16.5476L22.3564 16.5172C22.2613 16.2897 22.6636 16.3444 22.5126 16.5427L22.5093 16.5476ZM23.4179 13.4155C23.4047 13.4353 23.385 13.465 23.3793 13.4851C23.3193 13.7722 22.8605 13.2642 23.4179 13.4155ZM23.6657 11.9025C23.6496 11.8688 23.6147 11.8229 23.6298 11.7944C23.7027 11.5979 24.0192 11.8917 23.6657 11.9025Z" fill="white"/>
<path d="M29.6919 19.1439L30.7737 19.1605C30.7737 19.1605 32.5156 19.6832 33.3191 19.4991L35.9805 20.1436C35.9805 20.1436 37.131 20.271 37.5218 20.1346C37.767 20.0495 37.9436 19.9284 38.0083 19.7964C38.1438 19.5289 37.8264 19.2249 36.714 19.1156C36.7059 19.0987 36.6654 19.0729 36.6668 19.0476C35.4665 19.0299 34.4568 18.4649 33.2764 18.2842C33.27 18.369 33.2143 18.4239 33.1885 18.3758L33.2273 18.277C32.3952 18.3304 31.9945 17.9087 31.1879 18.1206C31.1879 18.1206 31.3089 18.0024 31.306 18.001C28.8515 17.595 25.5833 16.8214 22.8985 16.4783L22.9066 16.4952L22.8967 16.51C23.1134 16.6587 24.2421 17.0329 24.2421 17.0329C23.2309 17.3559 22.3704 16.6535 21.4289 16.4953L21.4724 16.3662C21.8761 16.4476 22.251 16.4567 22.4118 16.429C21.0086 15.9698 18.1068 15.3802 16.6598 15.3168C16.6702 15.4227 17.16 15.2879 17.1807 15.633C16.824 15.5675 16.4557 15.5485 16.1219 15.4776C16.1776 15.2665 16.3516 15.3753 16.4029 15.3443C15.8851 15.0003 4.13616 12.4901 6.7142 13.9315L6.61263 14.0264C7.32718 14.2134 7.92042 14.3686 8.62221 14.7253C8.73457 14.7299 8.73932 14.7517 8.76964 14.6424C8.80326 14.6324 8.85715 14.6092 8.85842 14.561C8.91869 14.2967 9.12789 14.4451 9.23532 14.4571C8.88736 15.2583 11.5697 14.9915 11.8917 15.0861C11.8488 15.4921 12.5368 15.227 12.6903 15.4302C12.6716 15.4409 12.5595 15.5112 12.545 15.5272C12.6563 15.8112 15.777 15.6781 14.8062 16.004C18.0494 17.4981 24.5983 17.7069 28.1494 19.149L28.1344 19.0963C28.1604 19.1151 28.2581 19.1128 28.2652 19.1715C28.6772 19.0843 29.6824 19.1524 29.6824 19.1524L29.6919 19.1439ZM21.2302 17.0257C21.2302 17.0257 21.2187 17.043 21.2212 17.0508C21.2296 17.0092 20.7424 16.9434 20.7281 16.9301L20.7686 16.7996C21.3215 16.6395 22.2037 17.7493 21.2437 17.1558C21.2002 17.1807 21.226 17.0725 21.2331 17.0271L21.2302 17.0257ZM16.9593 16.1917C16.8784 16.163 16.7929 16.1353 16.694 16.1046C17.913 15.9033 19.271 16.7024 20.539 16.7457C19.9665 17.2481 19.0597 16.7483 18.5477 16.6154C17.9843 16.6468 17.4042 16.3676 16.9609 16.1893L16.9593 16.1917ZM9.84319 14.7235L9.82127 14.7912L9.78418 14.7833C9.7882 14.7657 9.79843 14.7445 9.81085 14.7374C9.81907 14.7251 9.83606 14.7169 9.84483 14.721L9.84319 14.7235ZM29.1889 18.7256C29.0786 18.8163 28.7851 18.6962 29.0471 18.5279C29.0895 18.5741 29.2707 18.5041 29.1889 18.7256ZM15.7522 15.7965C15.6932 16.0125 15.2777 15.9776 15.3564 15.6798C15.4964 15.7008 15.6257 15.7493 15.7522 15.7965ZM32.2782 19.0853C32.4479 18.8763 32.3464 19.1275 32.3438 19.276C32.3265 19.2384 32.2322 19.2066 32.28 19.1057L32.2782 19.0853ZM34.2158 19.3137C34.2744 19.2082 34.4005 19.1575 34.4512 19.1621C34.559 19.272 34.2454 19.4255 34.2158 19.3137ZM37.3522 19.8977C37.3895 19.7722 37.4783 19.7428 37.4648 19.8731C37.431 19.9645 37.3195 20.0221 37.3462 19.8721C37.3429 19.877 37.3451 19.8911 37.3522 19.8977ZM13.9962 14.9708C14.2075 14.6124 14.4964 14.994 14.7238 14.9296C14.5766 15.2958 14.2947 14.9501 14.1244 14.9863C14.0711 14.9739 14.0278 14.9696 13.9962 14.9708ZM26.2988 17.4352C26.3843 17.0983 26.7291 17.4479 26.888 17.3998L26.8504 17.5316C26.6345 17.5265 26.4898 17.5879 26.3076 17.4394L26.3018 17.4366L26.2988 17.4352ZM17.8168 15.5906C17.9303 15.4721 18.0297 15.6235 18.1084 15.6382C18.0571 15.8254 17.7061 15.7918 17.8168 15.5906ZM21.2639 16.3093C21.2248 16.5186 21.0839 16.3832 21.0291 16.3962C21.0763 16.3601 21.1714 16.2458 21.2115 16.2551C21.2394 16.2651 21.2396 16.288 21.2639 16.3093ZM26.1099 17.5342C25.9492 17.5097 25.7758 17.4696 25.6128 17.4311L25.6533 17.3007C25.8196 17.3342 25.9859 17.3677 26.1476 17.4023L26.107 17.5328L26.1099 17.5342ZM24.542 17.016L24.5779 16.8867C24.8469 16.8063 24.7822 17.1466 24.5478 17.0188L24.542 17.016ZM28.2444 17.7847C28.2211 17.7736 28.186 17.7569 28.1622 17.7521C27.8228 17.7013 28.4233 17.3131 28.2444 17.7847ZM30.0329 17.9943C30.0727 17.9807 30.127 17.9512 30.1608 17.964C30.393 18.0256 30.0457 18.2934 30.0329 17.9943Z" fill="white"/>
<path d="M28.5302 15.0147L29.31 14.3799C29.31 14.3799 30.9782 13.7055 31.3905 13.0911L33.8079 11.9495C33.8079 11.9495 34.7253 11.3509 34.8886 11.0184C34.9905 10.813 35.0123 10.6182 34.9492 10.4873C34.8206 10.2178 34.3428 10.1956 33.4652 10.7806C33.4447 10.7709 33.3932 10.7789 33.3747 10.7604C32.5126 11.4668 31.3279 11.6746 30.3424 12.2539C30.4079 12.3176 30.4172 12.3904 30.3567 12.3714L30.3035 12.2777C29.7591 12.813 29.1272 12.7565 28.735 13.3869C28.735 13.3869 28.72 13.2301 28.7183 13.2325C26.6483 14.4189 23.6927 15.8318 21.5118 17.1965L21.5323 17.2062L21.539 17.2192C21.8184 17.1926 22.9279 16.7797 22.9279 16.7797C22.4849 17.6139 21.2869 17.6331 20.4906 18.0843L20.4102 17.968C20.7632 17.7843 21.0355 17.5656 21.1232 17.4511C19.7496 17.9661 17.206 19.2918 16.1331 20.1127C16.2297 20.1815 16.4608 19.7934 16.763 20.0218C16.4561 20.1883 16.1799 20.3954 15.8857 20.5484C15.7491 20.3662 15.9639 20.3382 15.9714 20.2865C15.3188 20.3536 4.92538 25.6268 7.95175 25.0973L7.95943 25.2246C8.62224 24.928 9.17104 24.6813 9.96467 24.512C10.0465 24.4467 10.0712 24.4617 10.0001 24.3661C10.0153 24.3375 10.0361 24.2888 9.99296 24.2553C9.81353 24.0332 10.085 24.0126 10.1723 23.9565C10.5963 24.7311 12.2674 22.935 12.5751 22.808C12.8875 23.1194 13.1473 22.5203 13.4252 22.5711C13.4241 22.5901 13.4038 22.7074 13.4027 22.7265C13.7208 22.8615 15.8087 20.8959 15.3971 21.7059C18.9368 20.8151 23.7329 17.039 27.4476 15.9255L27.392 15.899C27.4282 15.8967 27.4934 15.8333 27.5482 15.8724C27.7658 15.5625 28.5318 15.0123 28.5318 15.0123L28.5302 15.0147ZM20.7843 18.5919C20.7843 18.5919 20.7936 18.6126 20.7994 18.6154C20.7729 18.58 20.3714 18.8251 20.3489 18.8242L20.2669 18.7103C20.5237 18.2661 22.0754 18.5193 20.901 18.6767C20.891 18.7208 20.8182 18.6276 20.7843 18.5919ZM17.0698 20.5616C16.9902 20.5888 16.9026 20.6221 16.8119 20.6603C17.5033 19.7881 19.132 19.5376 20.063 18.8086C20.0799 19.5067 19.0222 19.6969 18.5489 19.9112C18.1782 20.2719 17.5329 20.4206 17.0727 20.563L17.0698 20.5616ZM10.8171 23.7912L10.8571 23.8526L10.8231 23.869C10.8105 23.8532 10.8012 23.8325 10.8019 23.8198C10.7968 23.8044 10.8037 23.7881 10.8141 23.7898L10.8171 23.7912ZM27.8196 15.0185C27.8166 15.1505 27.5111 15.2395 27.5525 14.963C27.6212 14.9697 27.6873 14.8123 27.8196 15.0185ZM15.8849 21.007C16.0228 21.1931 15.7018 21.4212 15.508 21.163C15.626 21.0954 15.7563 21.05 15.8849 21.007ZM30.2978 13.4208C30.24 13.172 30.3826 13.4091 30.5041 13.5157C30.4599 13.5012 30.3649 13.5341 30.3166 13.433L30.2932 13.4219L30.2978 13.4208ZM31.8585 12.4218C31.8093 12.3105 31.8563 12.1994 31.8968 12.1731C32.0658 12.1852 31.9721 12.4824 31.8585 12.4218ZM34.5619 10.9541C34.4828 10.8416 34.5201 10.7682 34.6178 10.87C34.673 10.9549 34.6398 11.0628 34.5327 10.9402C34.5385 10.943 34.547 10.9535 34.559 10.9527L34.5619 10.9541ZM13.9538 21.475C13.8059 21.0954 14.3259 21.193 14.4326 21.0094C14.6363 21.357 14.1482 21.281 14.0597 21.4082C14.0133 21.4317 13.979 21.4544 13.9538 21.475ZM24.7 15.8389C24.4792 15.5516 25.0133 15.5876 25.0867 15.4598L25.1687 15.5737C25.0129 15.6981 24.9603 15.8293 24.7078 15.8329L24.7045 15.8379L24.7 15.8389ZM17.1704 19.6232C17.1521 19.4712 17.3476 19.5187 17.4159 19.4796C17.5371 19.6446 17.2607 19.8289 17.1675 19.6218L17.1704 19.6232ZM20.205 18.0624C20.3529 18.2336 20.1402 18.2236 20.1123 18.2656C20.1168 18.2125 20.0857 18.074 20.1243 18.0565C20.1504 18.0462 20.1734 18.0636 20.208 18.0638L20.205 18.0624ZM24.6519 16.0212C24.5153 16.0994 24.3636 16.177 24.2169 16.2472L24.1365 16.1308C24.2836 16.0543 24.429 15.9802 24.5715 15.9048L24.6519 16.0212ZM23.1127 16.5942L23.0278 16.4789C23.1529 16.2618 23.3906 16.5409 23.116 16.5893L23.1127 16.5942ZM26.3703 14.9181C26.3474 14.9235 26.3034 14.9319 26.2848 14.9426C26.0033 15.1114 26.1013 14.4777 26.3703 14.9181ZM27.808 13.9941C27.8248 13.963 27.8385 13.9077 27.8738 13.8952C28.0881 13.7986 28.0668 14.1953 27.808 13.9941Z" fill="white"/>
<path d="M23.6945 24.5591L24.2964 25.3207C24.2964 25.3207 24.7861 26.8297 25.4238 27.2828L26.3204 29.4997C26.3204 29.4997 26.8528 30.3715 27.2126 30.5655C27.4353 30.6877 27.6546 30.7399 27.8199 30.7112C28.1551 30.6526 28.2709 30.2584 27.7408 29.4236C27.7523 29.4062 27.7562 29.3658 27.781 29.3515C27.1102 28.5083 27.0837 27.4833 26.5857 26.5596C26.4991 26.603 26.4125 26.5944 26.4479 26.5526L26.5667 26.5245C26.0381 25.9768 26.2211 25.4584 25.554 25.0206C25.554 25.0206 25.7393 25.0371 25.7364 25.0357C24.726 23.1 23.61 20.3913 22.4102 18.3296L22.3987 18.347L22.3791 18.3474C22.3611 18.583 22.64 19.5815 22.6429 19.5829C21.7505 19.0672 21.9434 18.0652 21.5596 17.3228L21.7094 17.2769C21.8618 17.6033 22.0657 17.8696 22.1834 17.9646C21.8281 16.7279 20.7412 14.3748 19.9781 13.3347C19.8797 13.4018 20.2911 13.6627 19.9696 13.8743C19.8283 13.589 19.6365 13.3219 19.514 13.0488C19.753 12.9672 19.7453 13.1524 19.8045 13.1675C19.8425 12.6127 15.5652 3.01926 15.6401 5.63294L15.4893 5.61657C15.7159 6.21916 15.9047 6.72238 15.9581 7.41185C16.0166 7.49175 16.0005 7.51015 16.1217 7.46686C16.1538 7.48216 16.2064 7.50719 16.2528 7.4837C16.5444 7.37503 16.5192 7.60392 16.5686 7.68599C15.5906 7.90105 17.3812 9.61231 17.4733 9.8905C17.0548 10.0918 17.7072 10.4184 17.5984 10.6401C17.5746 10.6353 17.4433 10.5956 17.4224 10.5922C17.2089 10.8324 19.122 12.9209 18.2519 12.4354C18.6543 15.5402 22.1924 20.2084 22.8247 23.4942L22.8676 23.4528C22.8629 23.4831 22.9237 23.5479 22.8675 23.5862C23.1872 23.823 23.6945 24.5591 23.6945 24.5591ZM20.9156 17.4754C20.9156 17.4754 20.8928 17.4808 20.8866 17.4843C20.9326 17.4672 20.717 17.0912 20.7226 17.0711L20.8695 17.0238C21.3407 17.3163 20.7705 18.5619 20.7952 17.5581C20.7452 17.5408 20.8692 17.4989 20.9156 17.4754ZM19.2861 14.0342C19.2677 13.9635 19.2467 13.8852 19.2185 13.8002C20.1089 14.533 20.1094 15.933 20.7931 16.8377C19.9765 16.7291 19.9466 15.8132 19.7808 15.3795C19.4284 15.0068 19.3677 14.444 19.2861 14.0342ZM16.6455 8.2532L16.5675 8.27794L16.5527 8.24811C16.5743 8.23883 16.5984 8.23729 16.6117 8.24038C16.6313 8.23991 16.6459 8.24686 16.6439 8.25567L16.6455 8.2532ZM23.8157 23.9657C23.6624 23.9416 23.6136 23.6677 23.9255 23.7543C23.9072 23.8107 24.0781 23.8952 23.8157 23.9657ZM18.9829 12.9622C18.7394 13.0449 18.5335 12.7353 18.872 12.6197C18.9303 12.7288 18.9595 12.8469 18.9829 12.9622ZM25.2317 26.3158C25.5321 26.3155 25.2306 26.3869 25.0832 26.4697C25.1062 26.4351 25.0855 26.3504 25.2114 26.3289L25.2317 26.3158ZM26.1168 27.7916C26.2531 27.7718 26.3759 27.8302 26.4008 27.8681C26.3553 28.0059 26.0264 27.8755 26.1168 27.7916ZM27.3432 30.3053C27.4884 30.2605 27.5641 30.303 27.4311 30.3699C27.3227 30.3998 27.2022 30.3554 27.3651 30.2897C27.3589 30.2933 27.3465 30.3004 27.3445 30.3092L27.3432 30.3053ZM18.7783 11.2731C19.2471 11.2161 19.0429 11.6333 19.2357 11.7543C18.7985 11.8621 18.9713 11.469 18.8403 11.3709C18.8187 11.3281 18.8026 11.2944 18.7829 11.272L18.7783 11.2731ZM23.4179 21.2244C23.7933 21.0938 23.6525 21.5313 23.7904 21.6132L23.6419 21.663C23.523 21.512 23.3797 21.4439 23.4234 21.2335L23.4208 21.2258L23.4179 21.2244ZM20.3606 14.2817C20.54 14.2954 20.4502 14.448 20.481 14.5115C20.2682 14.5828 20.103 14.3219 20.3606 14.2817ZM21.6347 17.0883C21.4116 17.1808 21.4593 17.0049 21.4174 16.9752C21.4783 16.9879 21.6464 16.9897 21.6595 17.022C21.6672 17.0452 21.6424 17.0594 21.6376 17.0897L21.6347 17.0883ZM23.2147 21.1538C23.1484 21.0278 23.0844 20.8867 23.0292 20.7498L23.179 20.7039C23.2434 20.8386 23.3031 20.9745 23.3645 21.1079L23.2147 21.1538ZM22.8229 19.7695L22.9714 19.7197C23.2005 19.8612 22.8344 20.0126 22.8271 19.7747L22.8241 19.7733L22.8229 19.7695ZM24.1918 22.7807C24.1899 22.7603 24.1876 22.7234 24.1766 22.7051C24.0326 22.4413 24.7497 22.636 24.1918 22.7807ZM25.0115 24.1407C25.0466 24.1574 25.1083 24.1803 25.114 24.2123C25.1867 24.4097 24.7309 24.3197 25.0115 24.1407Z" fill="white"/>
</g>
<g clip-path="url(#clip1_1604_18512)">
<path d="M44.6003 204.851L44.6297 203.583C44.6297 203.583 45.484 201.546 45.1831 200.606L46.2362 197.494C46.2362 197.494 46.4444 196.148 46.2216 195.691C46.0824 195.405 45.8846 195.198 45.6689 195.122C45.2317 194.964 44.735 195.335 44.5563 196.636C44.5288 196.645 44.4866 196.693 44.4452 196.691C44.4163 198.095 43.493 199.276 43.1977 200.656C43.3363 200.664 43.426 200.729 43.3474 200.759L43.186 200.714C43.2733 201.687 42.58 202.153 42.9264 203.096C42.9264 203.096 42.7332 202.955 42.7309 202.958C42.0675 205.829 40.8033 209.651 40.2426 212.791L40.2702 212.781L40.2944 212.793C40.5374 212.539 41.1489 211.219 41.1489 211.219C41.6767 212.402 40.5289 213.408 40.2703 214.509L40.0594 214.458C40.1925 213.986 40.2074 213.548 40.1621 213.36C39.4117 215.001 38.4482 218.394 38.3446 220.086C38.5217 220.076 38.2973 219.501 38.8613 219.477C38.7542 219.894 38.7232 220.325 38.6073 220.715C38.2623 220.65 38.4401 220.447 38.3896 220.387C37.8275 220.992 33.7255 234.732 36.0808 231.717L36.2359 231.836C36.5414 231 36.7952 230.307 37.378 229.486C37.3856 229.355 37.4212 229.349 37.2426 229.314C37.2262 229.274 37.1883 229.211 37.1095 229.21C36.6776 229.139 36.92 228.895 36.9397 228.769C38.2491 229.176 37.8131 226.039 37.9676 225.662C38.6311 225.713 38.1979 224.908 38.53 224.729C38.5474 224.75 38.6623 224.882 38.6883 224.898C39.1525 224.768 38.935 221.119 39.4675 222.254C41.9091 218.461 42.2503 210.803 44.6068 206.65L44.5207 206.667C44.5515 206.637 44.5477 206.523 44.6437 206.514C44.5012 206.033 44.6124 204.857 44.6124 204.857L44.6003 204.851ZM41.1389 214.747C41.1389 214.747 41.1672 214.76 41.1799 214.757C41.1119 214.748 41.0044 215.317 40.9827 215.334L40.7695 215.287C40.5078 214.64 42.3213 213.608 41.3516 214.731C41.3923 214.782 41.2155 214.752 41.1412 214.744L41.1389 214.747ZM39.7761 219.741C39.7291 219.836 39.6839 219.936 39.6337 220.052C39.3047 218.626 40.6106 217.038 40.6814 215.555C41.5023 216.225 40.6856 217.285 40.4684 217.884C40.5198 218.543 40.0635 219.221 39.7721 219.74L39.7761 219.741ZM37.3768 228.063L37.4875 228.089L37.4746 228.132C37.4458 228.128 37.4112 228.116 37.3996 228.101C37.3794 228.092 37.366 228.072 37.3728 228.061L37.3768 228.063ZM43.9167 205.44C44.065 205.569 43.8688 205.912 43.5937 205.605C43.6692 205.556 43.5548 205.344 43.9167 205.44ZM39.1302 221.153C39.4833 221.222 39.4263 221.708 38.9396 221.616C38.9739 221.452 39.0532 221.301 39.1302 221.153ZM44.5045 201.827C44.1631 201.628 44.5735 201.747 44.8162 201.75C44.7548 201.77 44.7028 201.881 44.5379 201.825L44.5045 201.827ZM44.8779 199.561C44.7053 199.492 44.6225 199.345 44.6301 199.286C44.8096 199.159 45.0605 199.526 44.8779 199.561ZM45.8322 195.893C45.6271 195.849 45.5791 195.746 45.792 195.761C45.9413 195.801 46.0355 195.931 45.7902 195.9C45.7983 195.904 45.8213 195.901 45.8322 195.893ZM37.7746 223.208C37.1889 222.961 37.8125 222.623 37.7074 222.357C38.3057 222.529 37.7408 222.859 37.7999 223.058C37.7797 223.121 37.7726 223.171 37.7746 223.208ZM41.8018 208.821C41.2512 208.721 41.8225 208.318 41.7439 208.132L41.9593 208.176C41.951 208.428 42.0513 208.598 41.8086 208.811L41.8018 208.821ZM38.7875 218.74C38.5937 218.607 38.8412 218.491 38.8652 218.399C39.1711 218.459 39.1163 218.87 38.7875 218.74ZM39.962 214.709C40.304 214.755 40.0827 214.919 40.104 214.984C40.0448 214.928 39.8582 214.817 39.8733 214.77C39.8898 214.738 39.9271 214.737 39.962 214.709ZM41.9635 209.042C41.9236 209.23 41.8579 209.433 41.7951 209.623L41.5819 209.576C41.6367 209.381 41.6915 209.187 41.748 208.998L41.9612 209.045L41.9635 209.042ZM41.1168 210.875L40.9054 210.833C40.7741 210.519 41.3302 210.594 41.1214 210.869L41.1168 210.875ZM42.3729 206.546C42.3547 206.573 42.3274 206.614 42.3196 206.642C42.2365 207.039 41.6023 206.336 42.3729 206.546ZM42.7154 204.454C42.6932 204.407 42.6449 204.344 42.6659 204.305C42.7666 204.033 43.2041 204.439 42.7154 204.454Z" fill="white"/>
<path d="M51.0461 214.465L52.5416 214.487C52.5416 214.487 54.9496 215.21 56.0603 214.956L59.7395 215.846C59.7395 215.846 61.3299 216.023 61.8702 215.834C62.2091 215.716 62.4533 215.549 62.5427 215.367C62.7301 214.997 62.2913 214.577 60.7534 214.425C60.7423 214.402 60.6862 214.366 60.6883 214.331C59.0289 214.307 57.6332 213.526 56.0013 213.276C55.9925 213.393 55.9155 213.469 55.8799 213.403L55.9334 213.266C54.7832 213.34 54.2293 212.757 53.1142 213.05C53.1142 213.05 53.2814 212.887 53.2774 212.885C49.8844 212.323 45.3664 211.254 41.6549 210.78L41.6661 210.803L41.6524 210.823C41.952 211.029 43.5124 211.546 43.5124 211.546C42.1145 211.993 40.9248 211.022 39.6233 210.803L39.6834 210.625C40.2416 210.737 40.7599 210.75 40.9821 210.712C39.0424 210.077 35.0308 209.262 33.0305 209.174C33.0449 209.32 33.722 209.134 33.7506 209.611C33.2576 209.521 32.7484 209.494 32.287 209.396C32.364 209.104 32.6044 209.255 32.6754 209.212C31.9596 208.736 15.7179 205.266 19.2817 207.259L19.1413 207.39C20.1291 207.649 20.9492 207.863 21.9194 208.356C22.0747 208.363 22.0813 208.393 22.1232 208.242C22.1697 208.228 22.2442 208.196 22.2459 208.129C22.3292 207.764 22.6184 207.969 22.7669 207.986C22.2859 209.093 25.994 208.724 26.4391 208.855C26.3798 209.416 27.3309 209.05 27.5431 209.331C27.5173 209.346 27.3622 209.443 27.3423 209.465C27.4961 209.857 31.8102 209.673 30.4681 210.124C34.9515 212.189 44.0047 212.478 48.9138 214.472L48.893 214.399C48.9289 214.425 49.064 214.422 49.0739 214.503C49.6434 214.382 51.033 214.476 51.033 214.476L51.0461 214.465ZM39.3486 211.536C39.3486 211.536 39.3327 211.56 39.3362 211.571C39.3479 211.513 38.6743 211.423 38.6546 211.404L38.7106 211.224C39.4748 211.002 40.6944 212.537 39.3673 211.716C39.3072 211.751 39.3428 211.601 39.3527 211.538L39.3486 211.536ZM33.4446 210.383C33.3327 210.344 33.2145 210.305 33.0778 210.263C34.7629 209.985 36.6403 211.089 38.3931 211.149C37.6017 211.844 36.3481 211.153 35.6404 210.969C34.8615 211.013 34.0596 210.627 33.4468 210.38L33.4446 210.383ZM23.6073 208.354L23.577 208.447L23.5257 208.436C23.5312 208.412 23.5454 208.383 23.5626 208.373C23.5739 208.356 23.5974 208.345 23.6095 208.35L23.6073 208.354ZM50.3508 213.886C50.1982 214.012 49.7926 213.846 50.1548 213.613C50.2134 213.677 50.4639 213.58 50.3508 213.886ZM31.7758 209.837C31.6943 210.136 31.1199 210.087 31.2288 209.676C31.4222 209.705 31.601 209.772 31.7758 209.837ZM54.6214 214.384C54.856 214.095 54.7156 214.442 54.7121 214.647C54.6881 214.595 54.5578 214.551 54.624 214.412L54.6214 214.384ZM57.2999 214.699C57.381 214.553 57.5552 214.483 57.6254 214.49C57.7745 214.642 57.3408 214.854 57.2999 214.699ZM61.6357 215.507C61.6873 215.333 61.81 215.293 61.7913 215.473C61.7446 215.599 61.5906 215.679 61.6274 215.471C61.6229 215.478 61.6259 215.497 61.6357 215.507ZM29.3483 208.696C29.6405 208.2 30.0398 208.728 30.3543 208.639C30.1508 209.145 29.761 208.667 29.5256 208.717C29.4519 208.7 29.392 208.694 29.3483 208.696ZM46.3555 212.102C46.4737 211.637 46.9503 212.12 47.1701 212.053L47.1181 212.236C46.8195 212.229 46.6195 212.314 46.3677 212.108L46.3596 212.104L46.3555 212.102ZM34.63 209.552C34.7868 209.389 34.9243 209.598 35.0331 209.618C34.9622 209.877 34.477 209.831 34.63 209.552ZM39.3952 210.546C39.3412 210.835 39.1465 210.648 39.0707 210.666C39.1359 210.616 39.2674 210.458 39.3227 210.471C39.3614 210.485 39.3616 210.517 39.3952 210.546ZM46.0944 212.239C45.8722 212.205 45.6325 212.15 45.4072 212.097L45.4632 211.916C45.6931 211.963 45.9229 212.009 46.1464 212.057L46.0904 212.237L46.0944 212.239ZM43.9268 211.523L43.9766 211.344C44.3483 211.233 44.259 211.704 43.9349 211.527L43.9268 211.523ZM49.0451 212.586C49.0128 212.57 48.9643 212.547 48.9315 212.54C48.4622 212.47 49.2923 211.934 49.0451 212.586ZM51.5175 212.875C51.5726 212.857 51.6476 212.816 51.6943 212.833C52.0153 212.919 51.5352 213.289 51.5175 212.875Z" fill="white"/>
<path d="M49.44 208.756L50.5181 207.879C50.5181 207.879 52.8242 206.946 53.3942 206.097L56.7359 204.519C56.7359 204.519 58.0042 203.691 58.23 203.232C58.3709 202.948 58.4009 202.679 58.3137 202.498C58.1359 202.125 57.4754 202.094 56.2622 202.903C56.2339 202.89 56.1627 202.901 56.1372 202.875C54.9454 203.852 53.3076 204.139 51.9453 204.94C52.0358 205.028 52.0487 205.128 51.9651 205.102L51.8915 204.973C51.139 205.713 50.2654 205.635 49.7232 206.506C49.7232 206.506 49.7025 206.289 49.7002 206.293C46.8386 207.933 42.7528 209.886 39.7379 211.772L39.7662 211.786L39.7755 211.804C40.1617 211.767 41.6954 211.196 41.6954 211.196C41.0831 212.349 39.427 212.376 38.3262 213L38.215 212.839C38.7029 212.585 39.0795 212.283 39.2007 212.124C37.3017 212.836 33.7855 214.669 32.3023 215.804C32.4359 215.899 32.7554 215.362 33.1731 215.678C32.7488 215.908 32.367 216.195 31.9604 216.406C31.7714 216.154 32.0685 216.116 32.0788 216.044C31.1767 216.137 16.8088 223.427 20.9924 222.694L21.0031 222.871C21.9193 222.46 22.678 222.119 23.7751 221.885C23.8882 221.795 23.9223 221.816 23.8241 221.684C23.845 221.644 23.8738 221.577 23.8142 221.53C23.5662 221.223 23.9415 221.195 24.0622 221.117C24.6483 222.188 26.9584 219.705 27.3837 219.53C27.8157 219.96 28.1747 219.132 28.5589 219.202C28.5574 219.229 28.5294 219.391 28.5279 219.417C28.9676 219.604 31.8539 216.886 31.2849 218.006C36.1782 216.775 42.8083 211.555 47.9435 210.015L47.8667 209.979C47.9167 209.976 48.0069 209.888 48.0826 209.942C48.3834 209.514 49.4423 208.753 49.4423 208.753L49.44 208.756ZM38.7321 213.701C38.7321 213.701 38.745 213.73 38.7531 213.734C38.7164 213.685 38.1613 214.024 38.1303 214.023L38.0169 213.865C38.3719 213.251 40.517 213.601 38.8935 213.819C38.8796 213.88 38.7791 213.751 38.7321 213.701ZM33.5973 216.424C33.4871 216.462 33.3662 216.508 33.2406 216.561C34.1965 215.355 36.448 215.009 37.735 214.001C37.7583 214.966 36.2963 215.229 35.6419 215.525C35.1295 216.024 34.2375 216.23 33.6013 216.426L33.5973 216.424ZM24.9535 220.889L25.0088 220.974L24.9618 220.996C24.9444 220.975 24.9315 220.946 24.9325 220.929C24.9254 220.907 24.935 220.885 24.9494 220.887L24.9535 220.889ZM48.4578 208.762C48.4536 208.944 48.0313 209.067 48.0886 208.685C48.1835 208.694 48.2749 208.477 48.4578 208.762ZM31.9592 217.04C32.1499 217.297 31.7062 217.613 31.4382 217.256C31.6013 217.162 31.7814 217.099 31.9592 217.04ZM51.8836 206.553C51.8038 206.209 52.0008 206.537 52.1688 206.684C52.1077 206.664 51.9763 206.71 51.9096 206.57L51.8773 206.554L51.8836 206.553ZM54.0411 205.172C53.9732 205.018 54.0381 204.864 54.0941 204.828C54.3278 204.845 54.1982 205.256 54.0411 205.172ZM57.7784 203.143C57.669 202.987 57.7205 202.886 57.8556 203.027C57.9319 203.144 57.886 203.293 57.738 203.124C57.746 203.128 57.7577 203.142 57.7743 203.141L57.7784 203.143ZM29.2897 217.687C29.0853 217.162 29.8041 217.297 29.9516 217.043C30.2332 217.524 29.5584 217.419 29.4361 217.595C29.372 217.627 29.3245 217.659 29.2897 217.687ZM44.1452 209.896C43.84 209.499 44.5783 209.548 44.6798 209.372L44.7932 209.529C44.5778 209.701 44.5051 209.882 44.156 209.887L44.1515 209.894L44.1452 209.896ZM33.7363 215.127C33.711 214.917 33.9813 214.983 34.0757 214.929C34.2432 215.157 33.8611 215.411 33.7322 215.125L33.7363 215.127ZM37.9314 212.969C38.1357 213.206 37.8418 213.192 37.8031 213.25C37.8094 213.177 37.7665 212.986 37.8198 212.961C37.8559 212.947 37.8877 212.971 37.9354 212.971L37.9314 212.969ZM44.0788 210.148C43.8899 210.256 43.6802 210.363 43.4774 210.46L43.3663 210.299C43.5696 210.193 43.7706 210.091 43.9676 209.987L44.0788 210.148ZM41.951 210.94L41.8335 210.78C42.0065 210.48 42.3351 210.866 41.9555 210.933L41.951 210.94ZM46.4542 208.623C46.4227 208.63 46.3618 208.642 46.336 208.657C45.9469 208.89 46.0824 208.014 46.4542 208.623ZM48.4418 207.345C48.465 207.303 48.4839 207.226 48.5327 207.209C48.8289 207.075 48.7994 207.624 48.4418 207.345Z" fill="white"/>
<path d="M42.7552 221.95L43.5873 223.003C43.5873 223.003 44.2644 225.089 45.1459 225.716L46.3853 228.78C46.3853 228.78 47.1214 229.986 47.6187 230.254C47.9266 230.423 48.2297 230.495 48.4582 230.455C48.9217 230.374 49.0818 229.829 48.3489 228.675C48.3649 228.651 48.3702 228.595 48.4045 228.576C47.4772 227.41 47.4405 225.993 46.7521 224.716C46.6324 224.776 46.5127 224.764 46.5617 224.706L46.7258 224.667C45.9951 223.91 46.2481 223.194 45.3259 222.588C45.3259 222.588 45.582 222.611 45.578 222.609C44.1813 219.933 42.6385 216.189 40.9798 213.339L40.9639 213.363L40.9369 213.363C40.9119 213.689 41.2975 215.07 41.3015 215.071C40.0679 214.359 40.3345 212.973 39.804 211.947L40.0111 211.884C40.2218 212.335 40.5037 212.703 40.6664 212.834C40.1752 211.125 38.6726 207.872 37.6178 206.434C37.4816 206.527 38.0505 206.887 37.606 207.18C37.4107 206.785 37.1455 206.416 36.9762 206.039C37.3066 205.926 37.296 206.182 37.3778 206.203C37.4303 205.436 31.5174 192.174 31.6208 195.787L31.4125 195.764C31.7257 196.597 31.9867 197.293 32.0605 198.246C32.1414 198.357 32.1191 198.382 32.2866 198.322C32.331 198.343 32.4038 198.378 32.4679 198.345C32.871 198.195 32.8362 198.512 32.9044 198.625C31.5525 198.922 34.0278 201.288 34.1551 201.673C33.5765 201.951 34.4785 202.402 34.328 202.709C34.2952 202.702 34.1136 202.647 34.0848 202.643C33.7896 202.975 36.4342 205.862 35.2314 205.191C35.7878 209.483 40.6788 215.936 41.5529 220.478L41.6122 220.421C41.6057 220.463 41.6898 220.553 41.612 220.606C42.054 220.933 42.7552 221.95 42.7552 221.95ZM38.9138 212.158C38.9138 212.158 38.8822 212.165 38.8736 212.17C38.9372 212.147 38.6392 211.627 38.647 211.599L38.85 211.534C39.5014 211.938 38.7131 213.66 38.7473 212.272C38.6781 212.248 38.8496 212.19 38.9138 212.158ZM36.6612 207.401C36.6356 207.303 36.6066 207.195 36.5677 207.077C37.7985 208.09 37.7992 210.026 38.7444 211.276C37.6155 211.126 37.5742 209.86 37.345 209.261C36.8578 208.745 36.7739 207.967 36.6612 207.401ZM33.0108 199.409L32.903 199.443L32.8825 199.402C32.9123 199.389 32.9456 199.387 32.9641 199.391C32.9911 199.391 33.0113 199.4 33.0085 199.413L33.0108 199.409ZM42.9229 221.13C42.711 221.097 42.6435 220.718 43.0746 220.838C43.0494 220.916 43.2855 221.033 42.9229 221.13ZM36.242 205.919C35.9053 206.033 35.6207 205.605 36.0887 205.445C36.1692 205.596 36.2097 205.76 36.242 205.919ZM44.8803 224.379C45.2955 224.378 44.8788 224.477 44.675 224.592C44.7068 224.544 44.6783 224.427 44.8523 224.397L44.8803 224.379ZM46.1039 226.419C46.2923 226.392 46.4621 226.472 46.4964 226.525C46.4336 226.715 45.9789 226.535 46.1039 226.419ZM47.7992 229.894C48 229.832 48.1046 229.891 47.9207 229.983C47.771 230.025 47.6043 229.963 47.8295 229.873C47.821 229.877 47.8038 229.887 47.801 229.899L47.7992 229.894ZM35.9591 203.584C36.6072 203.505 36.3249 204.082 36.5914 204.249C35.987 204.398 36.2259 203.855 36.0448 203.719C36.015 203.66 35.9927 203.613 35.9655 203.582L35.9591 203.584ZM42.3729 217.341C42.8919 217.16 42.6972 217.765 42.8879 217.878L42.6826 217.947C42.5182 217.738 42.3201 217.644 42.3805 217.353L42.3769 217.343L42.3729 217.341ZM38.1465 207.743C38.3945 207.762 38.2703 207.973 38.313 208.061C38.0188 208.159 37.7904 207.799 38.1465 207.743ZM39.9078 211.623C39.5994 211.751 39.6653 211.508 39.6075 211.467C39.6916 211.484 39.9239 211.487 39.9421 211.531C39.9527 211.563 39.9184 211.583 39.9118 211.625L39.9078 211.623ZM42.092 217.243C42.0003 217.069 41.9119 216.874 41.8356 216.685L42.0427 216.621C42.1316 216.807 42.2142 216.995 42.2991 217.18L42.092 217.243ZM41.5503 215.329L41.7557 215.26C42.0724 215.456 41.5663 215.665 41.5561 215.337L41.5521 215.335L41.5503 215.329ZM43.4427 219.492C43.4402 219.464 43.4369 219.413 43.4217 219.388C43.2227 219.023 44.214 219.292 43.4427 219.492ZM44.5759 221.372C44.6244 221.395 44.7098 221.427 44.7176 221.471C44.8182 221.744 44.188 221.62 44.5759 221.372Z" fill="white"/>
</g>
<defs>
<clipPath id="clip0_1604_18512">
<rect width="30.3044" height="27.7986" fill="white" transform="matrix(-0.903014 -0.429612 0.55362 -0.832769 27.3654 36.169)"/>
</clipPath>
<clipPath id="clip1_1604_18512">
<rect width="41.8929" height="38.4288" fill="white" transform="matrix(-0.903014 -0.429612 0.55362 -0.832769 47.8298 238)"/>
</clipPath>
</defs>
</svg>
