<svg width="70" height="286" viewBox="0 0 70 286" fill="none" xmlns="http://www.w3.org/2000/svg">
<g clip-path="url(#clip0_1604_18511)">
<path d="M27.2848 26.3403L26.152 25.1207C26.152 25.1207 23.6648 23.7586 23.0929 22.6167L19.5014 20.3493C19.5014 20.3493 18.1533 19.1866 17.9385 18.5747C17.8032 18.1912 17.7864 17.8429 17.8989 17.6094C18.1223 17.1311 18.8579 17.1271 20.1426 18.2682C20.1736 18.257 20.2499 18.2723 20.2827 18.24C21.5333 19.5923 23.3293 20.0653 24.7801 21.1979C24.6718 21.3077 24.6545 21.4378 24.7459 21.4092L24.8399 21.2456C25.6179 22.2622 26.5996 22.2065 27.1371 23.3856C27.1371 23.3856 27.1735 23.1044 27.1784 23.106C30.2357 25.4245 34.622 28.2303 37.8296 30.8884L37.7986 30.8996L37.7886 30.9288C37.3661 30.8604 35.7063 30.0207 35.7063 30.0207C36.3028 31.568 38.1324 31.7044 39.3085 32.5908L39.4387 32.3851C38.9159 32.0214 38.5205 31.6033 38.3937 31.3859C40.4488 32.437 44.2117 35.0458 45.7762 36.6252C45.6206 36.746 45.3041 36.0177 44.8161 36.411C45.2692 36.74 45.6712 37.1386 46.1083 37.4349C46.337 37.1161 46.0121 37.0485 46.0014 36.9524C46.9959 37.1295 62.3977 47.543 57.8134 46.3337L57.7888 46.5646C56.8057 45.9727 55.9894 45.4814 54.7898 45.109C54.6687 44.9861 54.6343 45.0069 54.7512 44.8402C54.7304 44.7896 54.7067 44.6999 54.7707 44.6402C55.0666 44.252 54.6521 44.1918 54.5261 44.0834C53.7977 45.4495 51.4176 42.0574 50.9607 41.8032C50.4553 42.3428 50.1108 41.2352 49.6791 41.305C49.6837 41.3392 49.7031 41.5525 49.6964 41.5883C49.1983 41.804 46.1895 38.0718 46.7407 39.5765C41.4052 37.6697 34.4306 30.4272 28.851 28.1052L28.9376 28.0587C28.8856 28.0518 28.7889 27.9371 28.7021 27.9999C28.3991 27.4231 27.2798 26.3549 27.2798 26.3549L27.2848 26.3403ZM38.7972 33.4655C38.7972 33.4655 38.7855 33.4996 38.7724 33.506C38.8201 33.4461 39.407 33.9243 39.4396 33.9245L39.5746 33.7206C39.2264 32.8944 36.8235 33.2254 38.6073 33.6072C38.618 33.687 38.7381 33.5269 38.7923 33.4638L38.7972 33.4655ZM44.2897 37.3458C44.4113 37.4037 44.5361 37.4681 44.6787 37.5441C43.7054 35.9059 41.2366 35.317 39.8823 33.9183C39.7877 35.1803 41.3904 35.6144 42.0933 36.0397C42.6266 36.7225 43.5972 37.0491 44.2913 37.3409L44.2897 37.3458ZM53.5477 43.7161L53.4785 43.823L53.5271 43.8559C53.5468 43.83 53.565 43.7927 53.5619 43.7699C53.5702 43.7456 53.564 43.7162 53.5494 43.7112L53.5477 43.7161ZM28.3647 26.4106C28.3548 26.6465 28.817 26.8373 28.777 26.3341C28.6712 26.3414 28.5808 26.0494 28.3647 26.4106ZM46.0579 38.2498C45.8259 38.5783 46.2977 39.0116 46.6202 38.5618C46.4487 38.427 46.2509 38.3376 46.0579 38.2498ZM24.7212 23.3097C24.8305 22.863 24.5945 23.2826 24.3962 23.465C24.4647 23.4395 24.6041 23.5089 24.6917 23.3322L24.7212 23.3097ZM22.4322 21.3682C22.5151 21.1736 22.4549 20.9681 22.3967 20.9156C22.1379 20.9249 22.2508 21.4693 22.4322 21.3682ZM18.4371 18.4842C18.5688 18.29 18.5178 18.1529 18.3554 18.3257C18.2663 18.4748 18.3022 18.6719 18.478 18.4601C18.4747 18.4699 18.4534 18.4844 18.4371 18.4842ZM48.9759 39.2589C49.2448 38.584 48.4334 38.7143 48.288 38.3763C47.9431 38.9871 48.6989 38.8922 48.8239 39.1307C48.8952 39.1769 48.9452 39.2212 48.9759 39.2589ZM33.0701 28.1562C33.4386 27.6514 32.6134 27.6791 32.516 27.4391L32.3761 27.6414C32.6036 27.8824 32.6685 28.1222 33.0555 28.1512L33.0701 28.1562ZM44.2331 35.6351C44.2776 35.362 43.9711 35.4312 43.8708 35.3588C43.67 35.6437 44.074 36.0048 44.2331 35.6351ZM39.7384 32.5584C39.4952 32.8559 39.8223 32.8535 39.8607 32.932C39.8615 32.8343 39.9187 32.5874 39.8653 32.5528C39.8232 32.533 39.792 32.5604 39.7384 32.5584ZM33.1294 28.4919C33.3267 28.6464 33.5582 28.7963 33.7768 28.9364L33.9118 28.7324C33.6966 28.5826 33.4813 28.4328 33.2693 28.2896L33.1342 28.4936L33.1294 28.4919ZM35.4325 29.6605L35.5708 29.4631C35.4047 29.0582 35.0104 29.5433 35.4228 29.6572L35.4325 29.6605ZM30.6092 26.3518C30.6482 26.3651 30.7066 26.3851 30.7374 26.4065C31.153 26.7336 31.0644 25.5775 30.6092 26.3518ZM28.4981 24.5582C28.4758 24.4962 28.4603 24.3984 28.4084 24.3752C28.0877 24.1839 28.0804 24.9048 28.4981 24.5582Z" fill="white"/>
<path d="M30.3515 40.5126L29.1336 41.6405C29.1336 41.6405 27.7716 44.1276 26.6296 44.6996L24.3622 48.2911C24.3622 48.2911 23.1995 49.6391 22.5876 49.854C22.2041 49.9893 21.8558 50.0061 21.6223 49.8936C21.144 49.6702 21.14 48.9346 22.2811 47.6499C22.2699 47.6189 22.2852 47.5425 22.2529 47.5097C23.6052 46.2592 24.0782 44.4631 25.2108 43.0124C25.3206 43.1206 25.4507 43.1379 25.4221 43.0466L25.2585 42.9525C26.2752 42.1745 26.2243 41.1945 27.4034 40.657C27.4034 40.657 27.1222 40.6206 27.1238 40.6158C29.4423 37.5584 32.248 33.1721 34.9062 29.9645L34.9173 29.9955L34.9465 30.0055C34.8781 30.428 34.0384 32.0878 34.0384 32.0878C35.5858 31.4913 35.7222 29.6617 36.6085 28.4857L36.4029 28.3555C36.0392 28.8782 35.6211 29.2736 35.4037 29.4005C36.4548 27.3453 39.0636 23.5824 40.643 22.018C40.7589 22.1718 40.0355 22.49 40.4287 22.978C40.7578 22.525 41.1563 22.1229 41.4527 21.6859C41.1339 21.4572 41.0663 21.7821 40.9702 21.7927C41.1472 20.7982 51.5608 5.39642 50.3515 9.98075L50.5824 10.0053C49.9905 10.9885 49.4991 11.8047 49.1268 13.0044C49.0038 13.1255 49.0247 13.1598 48.858 13.043C48.8074 13.0637 48.7177 13.0874 48.658 13.0235C48.2698 12.7275 48.2096 13.142 48.1012 13.2681C49.4673 13.9964 46.0752 16.3765 45.821 16.8334C46.3606 17.3389 45.2529 17.6833 45.3228 18.1151C45.357 18.1105 45.5703 18.091 45.606 18.0978C45.8218 18.5958 42.0896 21.6046 43.5943 21.0534C41.6875 26.3889 34.445 33.3635 32.123 38.9431L32.0764 38.8565C32.0695 38.9085 31.9549 39.0053 32.0176 39.092C31.4408 39.395 30.3727 40.5144 30.3727 40.5144L30.3515 40.5126ZM37.4767 29.0002C37.4767 29.0002 37.5108 29.0118 37.5172 29.0249C37.4574 28.9772 37.9355 28.3903 37.9358 28.3578L37.7318 28.2227C36.9057 28.571 37.2367 30.9738 37.6184 29.1901C37.6983 29.1793 37.5381 29.0592 37.4751 29.0051L37.4767 29.0002ZM41.357 23.5077C41.4149 23.3861 41.4794 23.2613 41.5553 23.1187C39.9172 24.0919 39.3282 26.5608 37.9295 27.9151C39.1915 28.0096 39.6256 26.4069 40.051 25.704C40.7337 25.1707 41.0603 24.2002 41.3521 23.506L41.357 23.5077ZM47.7273 14.2497L47.8342 14.3188L47.8671 14.2703C47.8412 14.2505 47.804 14.2324 47.7812 14.2354C47.7568 14.2271 47.7275 14.2334 47.7225 14.248L47.7273 14.2497ZM30.4219 39.4326C30.6577 39.4426 30.8485 38.9803 30.3454 39.0203C30.3527 39.1261 30.0607 39.2166 30.4219 39.4326ZM42.261 21.7394C42.5895 21.9714 43.0229 21.4997 42.573 21.1772C42.4382 21.3486 42.3488 21.5464 42.261 21.7394ZM27.3209 43.0761C26.8743 42.9669 27.2939 43.2029 27.4762 43.4012C27.4507 43.3326 27.5202 43.1932 27.3435 43.1056L27.3209 43.0761ZM25.3795 45.3651C25.1849 45.2822 24.9794 45.3424 24.9268 45.4006C24.9362 45.6594 25.4806 45.5465 25.3795 45.3651ZM22.4955 49.3602C22.3012 49.2285 22.1641 49.2795 22.337 49.442C22.486 49.531 22.6832 49.4951 22.4714 49.3194C22.4811 49.3227 22.4956 49.344 22.4955 49.3602ZM43.2733 18.828C42.5985 18.5591 42.7288 19.3705 42.3908 19.5159C43.0016 19.8608 42.9066 19.105 43.1452 18.98C43.1913 18.9087 43.2356 18.8586 43.2733 18.828ZM32.1707 34.7337C31.6659 34.3653 31.6935 35.1905 31.4536 35.2879L31.6559 35.4278C31.8969 35.2002 32.1366 35.1354 32.1657 34.7483L32.169 34.7386L32.1707 34.7337ZM39.6495 23.5707C39.3765 23.5263 39.4457 23.8328 39.3733 23.9331C39.6581 24.1338 40.0193 23.7299 39.6495 23.5707ZM36.5728 28.0655C36.8703 28.3087 36.868 27.9816 36.9464 27.9432C36.8488 27.9424 36.6019 27.8851 36.5673 27.9386C36.5474 27.9807 36.5748 28.0118 36.5728 28.0655ZM32.5064 34.6745C32.6609 34.4772 32.8108 34.2457 32.9508 34.0271L32.7468 33.8921C32.5971 34.1073 32.4473 34.3226 32.3041 34.5346L32.508 34.6697L32.5064 34.6745ZM33.6749 32.3713L33.4775 32.2331C33.0726 32.3992 33.5577 32.7935 33.6716 32.3811L33.6749 32.3713ZM30.3662 37.1946C30.3795 37.1557 30.3995 37.0973 30.4209 37.0665C30.748 36.6509 29.5919 36.7394 30.3662 37.1946ZM28.5726 39.3058C28.5106 39.3281 28.4129 39.3436 28.3897 39.3955C28.1984 39.7162 28.9192 39.7235 28.5726 39.3058Z" fill="white"/>
<path d="M26.6903 33.7392L25.0309 33.6773C25.0309 33.6773 22.3072 34.4696 21.0932 34.0597L16.9477 34.9856C16.9477 34.9856 15.1746 35.1133 14.5861 34.8304C14.2213 34.6566 13.9612 34.4154 13.8753 34.1739C13.6969 33.6778 14.2168 33.1595 15.9279 33.0542C15.9396 33.0201 16.0083 32.9783 16.007 32.9344C17.8469 33.009 19.4538 32.0795 21.2813 31.8562C21.2834 32.0092 21.3607 32.1172 21.4069 32.0297L21.3546 31.8487C22.6242 32.0165 23.2792 31.2942 24.4896 31.7464C24.4896 31.7464 24.3172 31.5188 24.3221 31.5205C28.1242 31.0101 33.2133 29.9012 37.3577 29.5188L37.3461 29.5529L37.354 29.5774C37.0022 29.8268 35.2337 30.402 35.2337 30.402C36.7483 31.0779 38.1425 29.8797 39.5989 29.6764L39.5503 29.4368C38.9246 29.549 38.3487 29.5315 38.11 29.4662C40.3042 28.7592 44.8165 27.9534 47.036 27.9676C47.0084 28.1594 46.2752 27.8705 46.2052 28.4883C46.7576 28.3999 47.3239 28.3978 47.8454 28.3043C47.7817 27.9181 47.502 28.0998 47.4309 28.0374C48.2588 27.4613 66.5232 23.9744 62.42 26.3505L62.5651 26.5306C61.4482 26.8066 60.5221 27.0337 59.4094 27.6157C59.2369 27.611 59.2268 27.6565 59.1926 27.4545C59.1407 27.4313 59.058 27.3867 59.0669 27.2973C59.004 26.8135 58.6684 27.0631 58.5007 27.0764C58.9512 28.5575 54.8691 27.8355 54.3636 27.978C54.3822 28.7185 53.3613 28.1735 53.1046 28.5262C53.1288 28.5508 53.2937 28.6888 53.318 28.7134C53.1171 29.2212 48.3533 28.6956 49.8027 29.3709C44.6757 31.7829 34.6256 31.5754 29.0293 33.865L29.061 33.7725C29.0168 33.8063 28.8656 33.7872 28.8501 33.8961C28.2268 33.6992 26.6854 33.7375 26.6854 33.7375L26.6903 33.7392ZM39.8759 30.6631C39.8759 30.6631 39.8903 30.7006 39.8869 30.7103C39.8745 30.6354 40.6302 30.5567 40.6548 30.5325L40.6111 30.2946C39.7806 29.9561 38.3106 31.8842 39.8448 30.8971C39.9095 30.9465 39.8802 30.7461 39.8759 30.6631ZM46.5062 29.5321C46.6302 29.4875 46.7705 29.4431 46.9206 29.4019C45.0757 28.9285 42.9091 30.254 40.9632 30.2192C41.7872 31.1809 43.2273 30.3574 44.0278 30.1636C44.8878 30.2728 45.8059 29.8146 46.5046 29.537L46.5062 29.5321ZM57.5632 27.5116L57.5915 27.6355L57.6502 27.623C57.6456 27.5888 57.6312 27.5512 57.6151 27.5348C57.6023 27.5087 57.5747 27.4938 57.5649 27.5068L57.5632 27.5116ZM27.508 33.0182C27.6709 33.1936 28.1281 33.0019 27.7467 32.6702C27.6761 32.7494 27.4103 32.6041 27.508 33.0182ZM48.4003 28.9237C48.4672 29.3164 49.1101 29.2971 49.02 28.7496C48.8034 28.7788 48.5994 28.8505 48.4003 28.9237ZM22.742 33.3892C22.5075 32.9936 22.6308 33.4599 22.6205 33.7284C22.6536 33.6635 22.8021 33.611 22.7352 33.425L22.7485 33.386L22.742 33.3892ZM19.7491 33.6326C19.671 33.4318 19.483 33.3294 19.4049 33.3353C19.226 33.5243 19.6923 33.8307 19.7491 33.6326ZM14.8823 34.4096C14.837 34.1766 14.7056 34.1153 14.7168 34.353C14.7561 34.5242 14.9245 34.6361 14.899 34.3609C14.8957 34.3707 14.8987 34.3935 14.884 34.4047L14.8823 34.4096ZM51.1756 27.5835C50.8862 26.9189 50.4091 27.5824 50.0652 27.443C50.2519 28.1214 50.7188 27.5197 50.9736 27.6015C51.0551 27.5858 51.1219 27.5815 51.1756 27.5835ZM32.0693 30.9402C31.9749 30.326 31.4071 30.9204 31.1687 30.8225L31.2124 31.0604C31.541 31.0695 31.7597 31.1933 32.053 30.9401L32.0628 30.9434L32.0693 30.9402ZM45.2575 28.3653C45.0949 28.1411 44.9285 28.405 44.803 28.4219C44.8638 28.769 45.4027 28.7358 45.2592 28.3604L45.2575 28.3653ZM39.8992 29.3549C39.9369 29.7376 40.1682 29.5067 40.2509 29.535C40.1815 29.4678 40.0498 29.2487 39.9845 29.2644C39.9421 29.2771 39.9369 29.3243 39.8976 29.3598L39.8992 29.3549ZM32.3444 31.1376C32.5952 31.1038 32.8625 31.0538 33.1152 30.9989L33.0666 30.7593C32.8059 30.806 32.55 30.8545 32.2958 30.898L32.3444 31.1376ZM34.7981 30.34L34.7561 30.0972C34.3505 29.9313 34.4156 30.5518 34.7883 30.3367L34.7981 30.34ZM29.0454 31.4014C29.0781 31.3854 29.1386 31.3517 29.1728 31.3471C29.6989 31.2877 28.8212 30.5306 29.0454 31.4014ZM26.2838 31.6205C26.2271 31.5957 26.1446 31.5348 26.0891 31.5539C25.7271 31.6422 26.2308 32.1571 26.2838 31.6205Z" fill="white"/>
<path d="M43.7525 41.7091L43.9837 43.3545C43.9837 43.3545 45.246 45.8965 45.0636 47.1611L46.7154 51.0763C46.7154 51.0763 47.1592 52.7998 46.9817 53.4298C46.8745 53.8227 46.6867 54.1174 46.4627 54.2475C46.0082 54.5108 45.3996 54.0959 44.9978 52.4248C44.9637 52.4131 44.9104 52.3623 44.8648 52.3684C44.6139 50.5423 43.4062 49.1284 42.8602 47.3699C43.0118 47.3402 43.1005 47.24 43.0095 47.2198L42.8396 47.3031C42.7829 46.0219 41.9473 45.5077 42.1819 44.2337C42.1819 44.2337 41.9898 44.4454 41.9915 44.4405C40.8095 40.7894 38.8147 35.9846 37.6974 31.9694L37.7315 31.9811L37.7544 31.9618C38.0596 32.2619 38.9467 33.8978 38.945 33.9027C39.3433 32.2932 37.9123 31.1347 37.4546 29.7382L37.2277 29.8291C37.4476 30.4264 37.5358 30.9951 37.516 31.2439C36.4287 29.2077 34.8303 24.9138 34.4471 22.727C34.6408 22.7171 34.4851 23.4905 35.1086 23.4482C34.9257 22.9179 34.8226 22.3605 34.6329 21.866C34.2608 21.9997 34.4932 22.2424 34.4438 22.3234C33.7301 21.6115 27.0367 4.26254 30.1083 7.87484L30.261 7.69866C30.7296 8.74544 31.1214 9.61911 31.8931 10.6064C31.9227 10.7743 31.9633 10.7827 31.7724 10.8479C31.7541 10.9015 31.7241 10.9891 31.6427 11.0048C31.1777 11.1557 31.483 11.4396 31.5257 11.6011C32.9047 10.8926 32.9226 15.0375 33.1532 15.5079C33.8753 15.3525 33.5232 16.4612 33.9156 16.6498C33.9369 16.619 34.0393 16.4311 34.059 16.4052C34.5936 16.5119 34.9271 21.2922 35.3363 19.7463C38.6262 24.3578 40.2161 34.2886 43.4616 39.3798L43.3625 39.3676C43.4045 39.4038 43.4131 39.5536 43.5238 39.5479C43.4438 40.1949 43.7525 41.7091 43.7525 41.7091ZM38.3759 29.2865C38.3759 29.2865 38.4086 29.2705 38.42 29.2689C38.3466 29.2928 38.1391 28.5638 38.1084 28.5424L37.8831 28.6285C37.6973 29.5057 39.8545 30.6081 38.6136 29.2753C38.65 29.2008 38.4574 29.2709 38.3759 29.2865ZM36.0839 22.966C36.0197 22.8516 35.9491 22.7241 35.8787 22.5804C35.7449 24.4816 37.4354 26.376 37.7458 28.2987C38.5492 27.3172 37.4771 26.0477 37.1429 25.2916C37.096 24.4271 36.4857 23.6038 36.0839 22.966ZM32.1228 12.4471L32.2419 12.4008L32.2228 12.3453C32.1869 12.3548 32.1575 12.3774 32.1459 12.3952C32.123 12.4145 32.1147 12.4389 32.1276 12.4487L32.1228 12.4471ZM42.897 41.0303C43.0433 40.8411 42.7684 40.4207 42.516 40.8565C42.605 40.9141 42.5116 41.203 42.897 41.0303ZM35.136 21.206C35.5146 21.069 35.3764 20.4398 34.8493 20.6293C34.9144 20.8365 35.0235 21.0261 35.136 21.206ZM44.1153 45.6565C43.7712 45.963 44.2024 45.7516 44.4712 45.713C44.4031 45.6897 44.3244 45.554 44.1544 45.6536L44.1153 45.6565ZM44.885 48.5575C44.7051 48.67 44.6352 48.8745 44.6525 48.9511C44.871 49.0911 45.0899 48.5786 44.885 48.5575ZM46.518 53.2113C46.2977 53.2991 46.2624 53.4339 46.4955 53.3885C46.6555 53.3182 46.7399 53.135 46.4741 53.2126C46.4855 53.2111 46.5083 53.208 46.5212 53.2179L46.518 53.2113ZM33.3298 18.7118C32.7246 19.1139 33.4622 19.4695 33.3877 19.8302C34.0182 19.5292 33.3457 19.1741 33.3771 18.9075C33.35 18.8275 33.3278 18.7655 33.3233 18.715L33.3298 18.7118ZM40.0409 36.9153C39.4535 37.1222 40.1432 37.5702 40.0842 37.822L40.3143 37.7376C40.2681 37.4117 40.3497 37.1732 40.0457 36.9332L40.0392 36.9201L40.0409 36.9153ZM35.1532 24.3989C34.9645 24.6008 35.2517 24.7153 35.293 24.8328C35.6227 24.7117 35.4966 24.19 35.1532 24.3989ZM37.0855 29.4977C37.4524 29.3948 37.1854 29.2055 37.1974 29.1227C37.1431 29.202 36.953 29.3762 36.9769 29.4334C36.9962 29.4726 37.0418 29.4664 37.0838 29.5025L37.0855 29.4977ZM40.1881 36.6121C40.1119 36.3739 40.0146 36.1177 39.9124 35.8761L39.6855 35.967C39.7747 36.2151 39.8704 36.4599 39.9612 36.7031L40.1881 36.6121ZM38.9644 34.339L38.7343 34.4234C38.643 34.849 39.2448 34.6796 38.9659 34.3504L38.9676 34.3455L38.9644 34.339ZM41.0352 39.8115C41.0127 39.782 40.9708 39.7296 40.9613 39.6938C40.8074 39.1897 40.2219 40.1859 41.0352 39.8115ZM41.7399 42.489C41.72 42.5475 41.6769 42.6415 41.7091 42.6906C41.8642 43.0319 42.2773 42.4444 41.7399 42.489Z" fill="white"/>
</g>
<g clip-path="url(#clip1_1604_18511)">
<path d="M25.029 261.19L25.0503 260.272C25.0503 260.272 25.6683 258.799 25.4506 258.119L26.2124 255.868C26.2124 255.868 26.363 254.894 26.2018 254.564C26.1012 254.356 25.9581 254.207 25.8021 254.152C25.4858 254.038 25.1265 254.306 24.9972 255.247C24.9773 255.254 24.9468 255.288 24.9168 255.287C24.8959 256.302 24.228 257.157 24.0144 258.155C24.1147 258.161 24.1796 258.208 24.1227 258.229L24.006 258.197C24.0691 258.901 23.5676 259.238 23.8182 259.92C23.8182 259.92 23.6784 259.818 23.6767 259.821C23.1968 261.897 22.2823 264.662 21.8768 266.933L21.8967 266.926L21.9142 266.935C22.09 266.751 22.5324 265.796 22.5324 265.796C22.9141 266.652 22.0838 267.38 21.8968 268.176L21.7443 268.139C21.8405 267.798 21.8513 267.481 21.8185 267.345C21.2757 268.532 20.5788 270.987 20.5038 272.211C20.6319 272.203 20.4696 271.787 20.8776 271.77C20.8001 272.072 20.7777 272.383 20.6938 272.666C20.4443 272.619 20.5729 272.471 20.5363 272.428C20.1297 272.866 17.1624 282.805 18.8662 280.624L18.9784 280.71C19.1994 280.106 19.383 279.604 19.8046 279.01C19.81 278.915 19.8358 278.911 19.7066 278.885C19.6947 278.857 19.6673 278.811 19.6103 278.81C19.2979 278.759 19.4733 278.582 19.4875 278.491C20.4347 278.786 20.1193 276.517 20.2311 276.244C20.711 276.281 20.3976 275.699 20.6379 275.569C20.6505 275.584 20.7336 275.679 20.7524 275.692C21.0882 275.597 20.9308 272.957 21.3161 273.779C23.0823 271.035 23.3291 265.495 25.0337 262.491L24.9714 262.504C24.9937 262.482 24.991 262.399 25.0604 262.393C24.9573 262.044 25.0378 261.194 25.0378 261.194L25.029 261.19ZM22.5252 268.348C22.5252 268.348 22.5456 268.358 22.5547 268.356C22.5056 268.349 22.4278 268.761 22.4121 268.773L22.2579 268.739C22.0686 268.271 23.3805 267.525 22.679 268.337C22.7084 268.374 22.5805 268.352 22.5268 268.346L22.5252 268.348ZM21.5393 271.961C21.5053 272.03 21.4726 272.102 21.4363 272.186C21.1983 271.154 22.1429 270.006 22.1942 268.933C22.788 269.417 22.1972 270.184 22.0401 270.617C22.0773 271.094 21.7472 271.585 21.5364 271.96L21.5393 271.961ZM19.8037 277.981L19.8838 278L19.8744 278.031C19.8536 278.028 19.8286 278.019 19.8202 278.008C19.8056 278.001 19.7959 277.987 19.8008 277.98L19.8037 277.981ZM24.5345 261.615C24.6418 261.709 24.4998 261.957 24.3009 261.735C24.3555 261.7 24.2727 261.546 24.5345 261.615ZM21.0721 272.982C21.3275 273.032 21.2862 273.384 20.9342 273.317C20.959 273.199 21.0164 273.089 21.0721 272.982ZM24.9598 259.002C24.7127 258.858 25.0096 258.944 25.1852 258.947C25.1408 258.961 25.1032 259.041 24.9839 259L24.9598 259.002ZM25.2298 257.363C25.105 257.313 25.0451 257.207 25.0506 257.164C25.1805 257.073 25.3619 257.338 25.2298 257.363ZM25.9201 254.71C25.7718 254.678 25.7371 254.603 25.8911 254.614C25.9991 254.643 26.0672 254.737 25.8898 254.715C25.8957 254.718 25.9123 254.716 25.9201 254.71ZM20.0915 274.469C19.6678 274.29 20.1188 274.046 20.0428 273.853C20.4757 273.978 20.067 274.216 20.1097 274.36C20.0951 274.406 20.09 274.442 20.0915 274.469ZM23.0047 264.061C22.6064 263.989 23.0196 263.697 22.9628 263.563L23.1186 263.595C23.1126 263.777 23.1852 263.9 23.0096 264.054L23.0047 264.061ZM20.8241 271.237C20.684 271.141 20.863 271.057 20.8804 270.99C21.1016 271.034 21.062 271.33 20.8241 271.237ZM21.6738 268.321C21.9211 268.354 21.7611 268.473 21.7765 268.519C21.7337 268.479 21.5987 268.399 21.6096 268.365C21.6215 268.341 21.6486 268.341 21.6738 268.321ZM23.1216 264.221C23.0928 264.357 23.0453 264.504 22.9998 264.642L22.8456 264.607C22.8852 264.467 22.9249 264.326 22.9658 264.189L23.12 264.224L23.1216 264.221ZM22.5092 265.548L22.3562 265.517C22.2612 265.29 22.6635 265.344 22.5124 265.543L22.5092 265.548ZM23.4178 262.416C23.4046 262.435 23.3849 262.465 23.3792 262.485C23.3191 262.772 22.8603 262.264 23.4178 262.416ZM23.6655 260.903C23.6495 260.869 23.6146 260.823 23.6297 260.794C23.7026 260.598 24.0191 260.892 23.6655 260.903Z" fill="white"/>
<path d="M29.6918 268.144L30.7736 268.161C30.7736 268.161 32.5155 268.683 33.319 268.499L35.9804 269.144C35.9804 269.144 37.1309 269.271 37.5217 269.135C37.7668 269.049 37.9435 268.928 38.0082 268.796C38.1437 268.529 37.8263 268.225 36.7139 268.116C36.7058 268.099 36.6652 268.073 36.6667 268.048C35.4664 268.03 34.4567 267.465 33.2763 267.284C33.2699 267.369 33.2142 267.424 33.1884 267.376L33.2271 267.277C32.3951 267.33 31.9944 266.909 31.1878 267.121C31.1878 267.121 31.3088 267.002 31.3058 267.001C28.8514 266.595 25.5832 265.821 22.8984 265.478L22.9064 265.495L22.8966 265.51C23.1133 265.659 24.242 266.033 24.242 266.033C23.2308 266.356 22.3702 265.653 21.4288 265.495L21.4722 265.366C21.876 265.448 22.2509 265.457 22.4117 265.429C21.0085 264.97 18.1066 264.38 16.6596 264.317C16.6701 264.423 17.1599 264.288 17.1806 264.633C16.8239 264.567 16.4556 264.549 16.1218 264.478C16.1775 264.266 16.3514 264.375 16.4028 264.344C15.885 264 4.13604 261.49 6.71408 262.931L6.6125 263.026C7.32706 263.213 7.9203 263.369 8.62209 263.725C8.73445 263.73 8.7392 263.752 8.76952 263.642C8.80313 263.632 8.85703 263.609 8.8583 263.561C8.91856 263.297 9.12777 263.445 9.2352 263.457C8.88724 264.258 11.5696 263.992 11.8915 264.086C11.8486 264.492 12.5367 264.227 12.6901 264.43C12.6715 264.441 12.5593 264.511 12.5449 264.527C12.6562 264.811 15.7769 264.678 14.806 265.004C18.0493 266.498 24.5982 266.707 28.1493 268.149L28.1343 268.096C28.1602 268.115 28.258 268.113 28.2651 268.172C28.6771 268.084 29.6823 268.152 29.6823 268.152L29.6918 268.144ZM21.23 266.026C21.23 266.026 21.2185 266.043 21.2211 266.051C21.2295 266.009 20.7422 265.943 20.728 265.93L20.7685 265.8C21.3214 265.639 22.2035 266.749 21.2436 266.156C21.2001 266.181 21.2258 266.073 21.233 266.027L21.23 266.026ZM16.9592 265.192C16.8782 265.163 16.7927 265.135 16.6939 265.105C17.9128 264.903 19.2709 265.702 20.5389 265.746C19.9663 266.248 19.0595 265.748 18.5476 265.615C17.9842 265.647 17.4041 265.368 16.9608 265.189L16.9592 265.192ZM9.84307 263.724L9.82115 263.791L9.78406 263.783C9.78808 263.766 9.79831 263.745 9.81073 263.737C9.81895 263.725 9.83594 263.717 9.84471 263.721L9.84307 263.724ZM29.1888 267.726C29.0784 267.816 28.785 267.696 29.047 267.528C29.0894 267.574 29.2706 267.504 29.1888 267.726ZM15.752 264.796C15.6931 265.013 15.2776 264.978 15.3563 264.68C15.4963 264.701 15.6256 264.749 15.752 264.796ZM32.2781 268.085C32.4478 267.876 32.3462 268.127 32.3437 268.276C32.3263 268.238 32.2321 268.207 32.2799 268.106L32.2781 268.085ZM34.2156 268.314C34.2743 268.208 34.4003 268.157 34.4511 268.162C34.5589 268.272 34.2452 268.425 34.2156 268.314ZM37.3521 268.898C37.3894 268.772 37.4781 268.743 37.4646 268.873C37.4308 268.964 37.3194 269.022 37.3461 268.872C37.3428 268.877 37.345 268.891 37.3521 268.898ZM13.996 263.971C14.2074 263.612 14.4963 263.994 14.7237 263.93C14.5765 264.296 14.2946 263.95 14.1243 263.986C14.0709 263.974 14.0276 263.97 13.996 263.971ZM26.2987 266.435C26.3842 266.098 26.729 266.448 26.8879 266.4L26.8503 266.532C26.6343 266.527 26.4897 266.588 26.3075 266.439L26.3016 266.437L26.2987 266.435ZM17.8167 264.591C17.9302 264.472 18.0296 264.624 18.1083 264.638C18.057 264.825 17.706 264.792 17.8167 264.591ZM21.2638 265.309C21.2247 265.519 21.0838 265.383 21.029 265.396C21.0761 265.36 21.1713 265.246 21.2113 265.255C21.2393 265.265 21.2395 265.288 21.2638 265.309ZM26.1098 266.534C25.949 266.51 25.7757 266.47 25.6127 266.431L25.6532 266.301C25.8195 266.334 25.9857 266.368 26.1474 266.402L26.1069 266.533L26.1098 266.534ZM24.5418 266.016L24.5778 265.887C24.8467 265.806 24.7821 266.147 24.5477 266.019L24.5418 266.016ZM28.2443 266.785C28.2209 266.774 28.1859 266.757 28.1621 266.752C27.8226 266.701 28.4231 266.313 28.2443 266.785ZM30.0328 266.994C30.0726 266.981 30.1269 266.951 30.1607 266.964C30.3929 267.026 30.0456 267.293 30.0328 266.994Z" fill="white"/>
<path d="M28.53 264.015L29.3099 263.38C29.3099 263.38 30.9781 262.705 31.3904 262.091L33.8077 260.95C33.8077 260.95 34.7252 260.351 34.8885 260.018C34.9904 259.813 35.0121 259.618 34.9491 259.487C34.8204 259.218 34.3427 259.196 33.4651 259.781C33.4446 259.771 33.3931 259.779 33.3746 259.76C32.5125 260.467 31.3277 260.675 30.3423 261.254C30.4077 261.318 30.4171 261.39 30.3566 261.371L30.3034 261.278C29.759 261.813 29.1271 261.756 28.7349 262.387C28.7349 262.387 28.7199 262.23 28.7182 262.233C26.6482 263.419 23.6926 264.832 21.5117 266.196L21.5321 266.206L21.5389 266.219C21.8183 266.193 22.9277 265.78 22.9277 265.78C22.4848 266.614 21.2868 266.633 20.4905 267.084L20.4101 266.968C20.763 266.784 21.0354 266.566 21.1231 266.451C19.7494 266.966 17.2059 268.292 16.1329 269.113C16.2296 269.181 16.4607 268.793 16.7629 269.022C16.456 269.188 16.1797 269.395 15.8856 269.548C15.7489 269.366 15.9638 269.338 15.9713 269.286C15.3187 269.354 4.92526 274.627 7.95162 274.097L7.95931 274.225C8.62212 273.928 9.17092 273.681 9.96455 273.512C10.0464 273.447 10.0711 273.462 9.99998 273.366C10.0151 273.337 10.036 273.289 9.99284 273.255C9.81341 273.033 10.0849 273.013 10.1722 272.956C10.5962 273.731 12.2673 271.935 12.575 271.808C12.8874 272.119 13.1472 271.52 13.425 271.571C13.4239 271.59 13.4037 271.707 13.4026 271.726C13.7207 271.862 15.8086 269.896 15.397 270.706C18.9367 269.815 23.7327 266.039 27.4475 264.925L27.3919 264.899C27.4281 264.897 27.4933 264.833 27.5481 264.872C27.7657 264.563 28.5317 264.012 28.5317 264.012L28.53 264.015ZM20.7841 267.592C20.7841 267.592 20.7935 267.613 20.7993 267.615C20.7728 267.58 20.3713 267.825 20.3488 267.824L20.2667 267.71C20.5236 267.266 22.0753 267.519 20.9009 267.677C20.8908 267.721 20.8181 267.628 20.7841 267.592ZM17.0697 269.562C16.99 269.589 16.9025 269.622 16.8117 269.66C17.5032 268.788 19.1319 268.538 20.0629 267.809C20.0797 268.507 19.0221 268.697 18.5488 268.911C18.1781 269.272 17.5328 269.421 17.0726 269.563L17.0697 269.562ZM10.817 272.791L10.857 272.853L10.823 272.869C10.8104 272.853 10.8011 272.832 10.8018 272.82C10.7967 272.804 10.8036 272.788 10.814 272.79L10.817 272.791ZM27.8195 264.018C27.8164 264.15 27.511 264.24 27.5524 263.963C27.6211 263.97 27.6872 263.812 27.8195 264.018ZM15.8847 270.007C16.0227 270.193 15.7017 270.421 15.5079 270.163C15.6259 270.095 15.7561 270.05 15.8847 270.007ZM30.2977 262.421C30.2399 262.172 30.3824 262.409 30.504 262.516C30.4597 262.501 30.3647 262.534 30.3165 262.433L30.2931 262.422L30.2977 262.421ZM31.8584 261.422C31.8092 261.311 31.8562 261.199 31.8967 261.173C32.0657 261.185 31.972 261.482 31.8584 261.422ZM34.5618 259.954C34.4827 259.842 34.52 259.768 34.6177 259.87C34.6729 259.955 34.6397 260.063 34.5326 259.94C34.5384 259.943 34.5468 259.954 34.5589 259.953L34.5618 259.954ZM13.9537 270.475C13.8058 270.095 14.3258 270.193 14.4325 270.009C14.6362 270.357 14.148 270.281 14.0596 270.408C14.0132 270.432 13.9789 270.454 13.9537 270.475ZM24.6998 264.839C24.4791 264.552 25.0131 264.588 25.0866 264.46L25.1686 264.574C25.0128 264.698 24.9602 264.829 24.7077 264.833L24.7044 264.838L24.6998 264.839ZM17.1703 268.623C17.152 268.471 17.3475 268.519 17.4158 268.48C17.5369 268.645 17.2605 268.829 17.1673 268.622L17.1703 268.623ZM20.2049 267.062C20.3527 267.234 20.1401 267.224 20.1121 267.266C20.1167 267.212 20.0856 267.074 20.1242 267.057C20.1503 267.046 20.1733 267.064 20.2078 267.064L20.2049 267.062ZM24.6518 265.021C24.5151 265.099 24.3635 265.177 24.2168 265.247L24.1364 265.131C24.2835 265.054 24.4289 264.98 24.5714 264.905L24.6518 265.021ZM23.1126 265.594L23.0276 265.479C23.1528 265.262 23.3905 265.541 23.1159 265.589L23.1126 265.594ZM26.3702 263.918C26.3473 263.924 26.3033 263.932 26.2847 263.943C26.0031 264.111 26.1012 263.478 26.3702 263.918ZM27.8079 262.994C27.8247 262.963 27.8384 262.908 27.8737 262.895C28.088 262.799 28.0666 263.195 27.8079 262.994Z" fill="white"/>
<path d="M23.6945 273.559L24.2964 274.321C24.2964 274.321 24.7861 275.83 25.4238 276.283L26.3204 278.5C26.3204 278.5 26.8528 279.372 27.2126 279.565C27.4353 279.688 27.6546 279.74 27.8199 279.711C28.1551 279.653 28.2709 279.258 27.7408 278.424C27.7523 278.406 27.7562 278.366 27.781 278.352C27.1102 277.508 27.0837 276.483 26.5857 275.56C26.4991 275.603 26.4125 275.594 26.4479 275.553L26.5667 275.524C26.0381 274.977 26.2211 274.458 25.554 274.021C25.554 274.021 25.7393 274.037 25.7364 274.036C24.726 272.1 23.61 269.391 22.4102 267.33L22.3987 267.347L22.3791 267.347C22.3611 267.583 22.64 268.582 22.6429 268.583C21.7505 268.067 21.9434 267.065 21.5596 266.323L21.7094 266.277C21.8618 266.603 22.0657 266.87 22.1834 266.965C21.8281 265.728 20.7412 263.375 19.9781 262.335C19.8797 262.402 20.2911 262.663 19.9696 262.874C19.8283 262.589 19.6365 262.322 19.514 262.049C19.753 261.967 19.7453 262.152 19.8045 262.168C19.8425 261.613 15.5652 252.019 15.6401 254.633L15.4893 254.617C15.7159 255.219 15.9047 255.722 15.9581 256.412C16.0166 256.492 16.0005 256.51 16.1217 256.467C16.1538 256.482 16.2064 256.507 16.2528 256.484C16.5444 256.375 16.5192 256.604 16.5686 256.686C15.5906 256.901 17.3812 258.612 17.4733 258.891C17.0548 259.092 17.7072 259.418 17.5984 259.64C17.5746 259.635 17.4433 259.596 17.4224 259.592C17.2089 259.832 19.122 261.921 18.2519 261.435C18.6543 264.54 22.1924 269.208 22.8247 272.494L22.8676 272.453C22.8629 272.483 22.9237 272.548 22.8675 272.586C23.1872 272.823 23.6945 273.559 23.6945 273.559ZM20.9156 266.475C20.9156 266.475 20.8928 266.481 20.8866 266.484C20.9326 266.467 20.717 266.091 20.7226 266.071L20.8695 266.024C21.3407 266.316 20.7705 267.562 20.7952 266.558C20.7452 266.541 20.8692 266.499 20.9156 266.475ZM19.2861 263.034C19.2677 262.964 19.2467 262.885 19.2185 262.8C20.1089 263.533 20.1094 264.933 20.7931 265.838C19.9765 265.729 19.9466 264.813 19.7808 264.38C19.4284 264.007 19.3677 263.444 19.2861 263.034ZM16.6455 257.253L16.5675 257.278L16.5527 257.248C16.5743 257.239 16.5984 257.237 16.6117 257.24C16.6313 257.24 16.6459 257.247 16.6439 257.256L16.6455 257.253ZM23.8157 272.966C23.6624 272.942 23.6136 272.668 23.9255 272.754C23.9072 272.811 24.0781 272.895 23.8157 272.966ZM18.9829 261.962C18.7394 262.045 18.5335 261.735 18.872 261.62C18.9303 261.729 18.9595 261.847 18.9829 261.962ZM25.2317 275.316C25.5321 275.315 25.2306 275.387 25.0832 275.47C25.1062 275.435 25.0855 275.35 25.2114 275.329L25.2317 275.316ZM26.1168 276.792C26.2531 276.772 26.3759 276.83 26.4008 276.868C26.3553 277.006 26.0264 276.876 26.1168 276.792ZM27.3432 279.305C27.4884 279.26 27.5641 279.303 27.4311 279.37C27.3227 279.4 27.2022 279.355 27.3651 279.29C27.3589 279.293 27.3465 279.3 27.3445 279.309L27.3432 279.305ZM18.7783 260.273C19.2471 260.216 19.0429 260.633 19.2357 260.754C18.7985 260.862 18.9713 260.469 18.8403 260.371C18.8187 260.328 18.8026 260.294 18.7829 260.272L18.7783 260.273ZM23.4179 270.224C23.7933 270.094 23.6525 270.531 23.7904 270.613L23.6419 270.663C23.523 270.512 23.3797 270.444 23.4234 270.234L23.4208 270.226L23.4179 270.224ZM20.3606 263.282C20.54 263.295 20.4502 263.448 20.481 263.511C20.2682 263.583 20.103 263.322 20.3606 263.282ZM21.6347 266.088C21.4116 266.181 21.4593 266.005 21.4174 265.975C21.4783 265.988 21.6464 265.99 21.6595 266.022C21.6672 266.045 21.6424 266.059 21.6376 266.09L21.6347 266.088ZM23.2147 270.154C23.1484 270.028 23.0844 269.887 23.0292 269.75L23.179 269.704C23.2434 269.839 23.3031 269.974 23.3645 270.108L23.2147 270.154ZM22.8229 268.769L22.9714 268.72C23.2005 268.861 22.8344 269.013 22.8271 268.775L22.8241 268.773L22.8229 268.769ZM24.1918 271.781C24.1899 271.76 24.1876 271.723 24.1766 271.705C24.0326 271.441 24.7497 271.636 24.1918 271.781ZM25.0115 273.141C25.0466 273.157 25.1083 273.18 25.114 273.212C25.1867 273.41 24.7309 273.32 25.0115 273.141Z" fill="white"/>
</g>
<defs>
<clipPath id="clip0_1604_18511">
<rect width="48.1695" height="48.1695" fill="white" transform="matrix(0.323671 -0.94617 -0.94617 -0.323671 53.5764 61.1676)"/>
</clipPath>
<clipPath id="clip1_1604_18511">
<rect width="30.3044" height="27.7986" fill="white" transform="matrix(-0.903014 -0.429612 0.55362 -0.832769 27.3652 285.169)"/>
</clipPath>
</defs>
</svg>
