<svg width="763" height="503" viewBox="0 0 763 503" fill="none" xmlns="http://www.w3.org/2000/svg">
<path d="M604.069 115.9L269.938 79.1879V70.4759L0 62.3047V482L576.565 475.753L604.069 115.9Z" fill="#FCA700"/>
<path d="M763 0H291.357L211.088 208.177L383.019 453.3L551.099 458.053L757.888 464.3L763 0Z" fill="#FCA700"/>
<path d="M751.362 454.567C750.957 452.509 751.09 455.095 750.344 454.759C750.05 456.39 748.19 457.392 747.801 458.629C748.014 459.045 748.132 459.279 747.726 459.599C747.156 459.029 746.41 459.999 745.69 461.155C745.024 462.579 742.753 465.542 742.614 464.748C742.604 464.114 739.064 470.057 739.416 468.309C737.924 469.396 736.34 470.873 734.688 472.552C734.523 471.598 734.352 470.654 734.182 469.732C734.166 469.759 734.182 469.839 734.134 469.78C733.92 470.26 734.912 472.675 733.819 473.447C733.393 470.35 731.783 459.018 733.707 467.323C730.855 459.807 745.472 459.38 749.672 454.556C751.959 450.425 736.852 458.789 735.568 459.546C735.568 459.546 735.637 459.242 735.637 459.236C728.974 463.495 733.569 446.081 727.444 445.02C724.752 446.113 723.931 450.34 722.742 452.717C722.988 452.621 723.531 450.409 724.347 450.164C723.793 451.305 721.607 456.902 722.369 453.911C717.22 469.252 712.609 468.49 704.4 472.392C703.979 472.52 682.444 480.361 684.928 482.808C686.287 481.907 688.483 481.758 689.576 480.814C689.597 480.335 689.619 480.068 690.157 479.961C690.786 481.486 695.258 477.531 695.77 477.477C695.983 478.639 703.697 473.677 702.279 475.228C705.882 474.439 710.456 472.541 715.2 470.553C713.579 477.882 709.949 483.24 709.949 483.24C709.949 483.24 699.235 478.687 689.875 481.438C694.629 483.522 703.947 482.685 709.528 485.489C705.274 497.216 702.497 506.395 705.482 500.26L705.557 500.676C706.532 496.96 709.267 493.341 709.688 489.721C709.011 488.058 710.733 488.522 711.436 486.155C713.387 487.307 720.264 487.723 717.097 490.532C714.587 494.732 707.46 498.282 705.2 503C709.368 502.728 714.139 497.024 716.969 493.975C716.969 493.975 717.017 494.279 717.017 494.284C718.878 492.968 720.477 489.135 723.163 491.15C723.158 491.15 722.684 491.155 722.673 491.155C726.708 492.387 737.327 506.086 737.401 495.207C737.071 489.034 734.789 476.038 734.789 476.038C734.789 476.038 737.348 471.992 738.824 471.603C740.12 470.601 751.314 459.402 751.351 454.567H751.362ZM719.661 464.508C720.754 461.342 721.698 458.815 721.308 460.985C723.334 457.696 725.056 452.056 727.444 449.332C729.464 454.343 730.642 462.147 730.642 462.147C730.642 462.147 724.315 464.876 719.091 466.155C719.283 465.601 719.469 465.047 719.656 464.508H719.661ZM712.977 484.343C712.977 484.343 715.834 475.015 716.927 471.198C716.927 471.278 717.087 469.359 717.092 469.428C717.092 469.428 727.204 466.283 730.727 464.727C731.351 468.117 731.943 471.529 732.465 474.887C728.531 478.986 721.586 487.365 721.586 487.365C721.586 487.365 716.021 486.305 712.977 484.348V484.343ZM734.448 495.239C734.448 495.345 734.448 496.065 734.23 495.686C734.24 495.729 734.251 495.772 734.262 495.814C734.246 495.777 734.224 495.814 734.23 495.681C725.978 489.562 719.144 490.622 729.565 481.704C729.075 481.763 727.081 483.511 727.071 483.474C727.369 481.907 733.441 477.104 730.216 480.932C730.994 480.297 731.975 479.402 732.993 478.394C733.761 484.013 734.539 489.727 734.448 495.233V495.239Z" fill="#101214"/>
<path d="M670.919 454.61L670.877 454.375C670.115 455.196 668.302 455.473 667.865 456.294C667.972 456.737 668.121 456.907 667.679 457.083C664.566 459.466 659.795 461.918 656.351 464.173C655.973 462.733 655.104 460.052 655.104 460.052C654.992 460.409 654.837 458.336 654.736 457.675C655.898 457.59 656.996 457.579 657.993 457.691L657.94 457.606C657.988 457.627 658.11 457.568 658.158 457.67C661.17 456.092 664.629 455.98 668.084 454.546C669.656 454.85 673.681 452.472 668.995 452.845C666.522 453.666 663.617 452.872 661.314 454.242C661.314 454.242 661.394 453.975 661.394 453.97C658.441 454.135 653.499 456.651 653.313 452.003C653.132 452.089 653.665 452.563 653.084 452.824C652.982 452.366 652.796 451.923 652.716 451.486C653.116 451.406 653.03 451.683 653.116 451.721C653.286 451.897 651.618 436.438 650.147 439.37L649.923 439.306C649.949 439.812 649.965 440.276 649.949 440.756C649.15 439.972 648.798 441.033 648.169 442.446C647.977 444.242 646.778 445.628 646.234 447.344C646.575 447.451 646.378 447.547 646.213 447.414C646.175 448.677 645.312 449.157 645.557 450.425C645.557 450.425 645.365 450.218 645.36 450.212C644.272 452.456 644.032 457.067 640.632 457.078C640.712 457.259 641.266 456.758 641.506 457.355C640.999 457.43 640.504 457.595 640.024 457.654C639.971 457.248 640.264 457.35 640.306 457.27C640.408 457.264 621.223 457.915 627.129 461.406C628.643 461.726 629.619 462.995 631.005 463.634C631.165 463.309 631.202 463.517 631.058 463.661C632.145 463.789 632.401 464.652 633.542 464.503C633.542 464.503 633.329 464.679 633.324 464.679C636.666 466.076 639.544 467.622 637.348 471.406C637.551 471.422 637.391 471.886 637.348 471.806C636.826 472.648 631.474 483.842 632.503 486.566C632.663 488.016 633.601 487.254 634.971 486.145C637.705 482.877 639.736 482.797 641.239 480.084C641.239 480.084 641.309 480.361 641.314 480.367C643.654 478.975 646.884 473.746 649.907 474.189C651.223 474.365 660.6 483.986 660.514 481.326L660.738 481.252C660.568 480.894 660.488 478.666 660.189 477.462C658.643 474.301 659.496 472.648 657.87 470.66C657.87 470.66 658.142 470.692 658.148 470.692C657.14 468.57 656.98 466.465 659.144 465.17C658.979 465.058 658.702 465.815 658.18 465.436C658.622 465.074 659.011 464.647 659.438 464.317C659.688 464.636 659.363 464.722 659.358 464.818C659.539 465.004 674.566 454.317 670.919 454.615V454.61ZM651.234 468.304C648.51 472.254 645.28 467.776 642.023 466.481C642.94 463.992 643.835 461.39 644.832 459.103C646.964 459.375 651.682 456.619 652.295 459.093C653.174 462.877 655.354 466.204 651.234 468.299V468.304ZM646.863 455.287L646.762 455.298C646.804 455.266 646.815 455.116 646.927 455.122C647.247 450.697 648.185 448.341 650.019 443.965C651.948 447.872 650.301 451.257 651.399 455.436C649.235 455.926 648.937 455.868 646.362 456.07C646.527 455.799 646.692 455.537 646.863 455.287ZM637.988 463.677C635.296 462.941 632.668 461.939 629.896 460.404C630.813 458.528 639.848 459.743 641.847 459.418C641.474 460.431 641.122 461.428 640.829 462.382L640.861 462.371C640.861 462.371 640.642 463.341 640.626 463.096C640.333 463.597 640.003 464.247 639.661 464.972C639.043 464.525 637.982 463.682 637.982 463.682L637.988 463.677ZM643.078 475.894C640.253 477.851 637.423 481.065 634.811 483.299C633.11 481.561 640.264 472.264 641.079 468.954C642.364 469.573 643.798 470.511 642.252 469.066C641.938 468.768 645.349 471.582 646.495 472.318C645.115 473.416 644.368 475.207 643.084 475.894H643.078ZM655.12 469.818C656.154 471.79 657.305 475.191 657.934 477.787C655.088 475.788 653.27 474.093 650.93 471.945C651.09 471.795 651.25 471.646 651.405 471.497C651.117 471.523 652.055 470.745 651.943 470.953C652.695 470.5 653.681 469.812 654.699 469.039C654.933 469.439 655.109 469.818 655.109 469.818H655.12Z" fill="#101214"/>
</svg>
