<svg width="782" height="497" viewBox="0 0 782 497" fill="none" xmlns="http://www.w3.org/2000/svg">
<path d="M623.069 115.9L288.938 79.1879V70.4759L19 62.3047V482L595.565 475.753L623.069 115.9Z" fill="#BF63F3"/>
<path d="M782 0H310.357L230.088 208.177L402.019 453.3L570.099 458.053L776.888 464.3L782 0Z" fill="#BF63F3"/>
<path d="M146 464.274C140.835 435.948 129.695 477.588 125.056 484.895C122.257 475.222 123.118 465.165 121.656 455.04C121.508 455.325 121.285 454.669 121.291 454.031C117.08 432.375 107.289 465.785 106.565 473.34C106.565 473.321 106.639 471.928 106.639 471.897C95.7769 515.946 101.771 458.533 95.9317 445.528C90.0052 435.855 86.0852 455.548 84.9396 460.05C82.382 469.599 74.9074 512.422 73.9351 479.607L73.9103 479.836L73.8732 479.737C73.7369 483.954 74.0032 502.161 78.815 488.27C70.9131 509.375 73.3035 461.06 72.7833 455.752C73.898 461.989 73.2168 469.259 73.675 471.47C71.8358 398.643 58.6081 475.916 50.83 491.825C49.449 488.24 49.449 483.781 49.1456 480.04C48.9226 481.217 49.833 488.401 49.5667 489.738C48.5201 486.221 48.1361 466.039 48.8731 475.953C48.0618 472.801 52.4091 435.354 41.0517 446.017C34.2211 458.898 34.4564 475.024 26.8579 487.571C21.2968 482.641 30.5178 442.642 17.6617 450.643C12.9305 455.195 3.13973 494.185 0.904153 473.365C-0.0928775 464.348 -0.0681186 472.857 0.4273 476.591C0.272482 476.201 0.13624 475.811 0 475.414C4.45258 498.272 15.0855 451.832 20.6838 450.47C24.0464 463.339 20.7209 516.522 35.0757 471.866C35.0447 472.107 34.8404 473.631 34.8094 473.829C37.6581 470.014 38.3207 447.33 45.1698 446.55C46.4889 447.851 47.3311 460.601 46.1978 452.959C45.6033 528.622 56.9236 487.893 68.2687 445.658C75.5514 458.533 64.7265 484.258 75.4647 496.507C87.8997 485.149 84.0726 461.803 92.4204 447.138C95.845 451.993 94.6127 463.438 95.3372 470.151L95.4177 469.661C96.0184 498.773 101.945 505.133 109.63 471.315C110.912 467.729 117.098 439.75 118.944 456.062C123.322 504.91 124.257 490.042 140.724 456.781C144.879 456.539 146.05 478.758 145.988 464.28L146 464.274Z" fill="#101214"/>
</svg>
