<svg width="16" height="15" viewBox="0 0 16 15" fill="none" xmlns="http://www.w3.org/2000/svg"> <path fill-rule="evenodd" clip-rule="evenodd" d="M7.77087 14.5334C7.87109 14.4335 7.9506 14.3148 8.00485 14.1841C8.0591 14.0535 8.08702 13.9134 8.08702 13.772C8.08702 13.6306 8.0591 13.4905 8.00485 13.3599C7.9506 13.2292 7.87109 13.1105 7.77087 13.0106L3.68091 8.92576L14.0174 8.92576C14.3034 8.92576 14.5777 8.8123 14.7799 8.61033C14.9821 8.40837 15.0957 8.13444 15.0957 7.84882C15.0957 7.5632 14.9821 7.28927 14.7799 7.08731C14.5777 6.88534 14.3034 6.77188 14.0174 6.77188L3.68091 6.77188L7.77087 2.68705C7.87109 2.58712 7.9506 2.46843 8.00485 2.33778C8.0591 2.20714 8.08702 2.06709 8.08702 1.92565C8.08702 1.78421 8.0591 1.64416 8.00485 1.51351C7.9506 1.38286 7.87109 1.26418 7.77087 1.16425C7.35033 0.744243 6.6667 0.744243 6.24508 1.16425L0.315557 7.08742C0.120278 7.28171 0.00717735 7.54348 -0.00038147 7.81867V7.88005C0.00734234 8.15489 0.120439 8.41626 0.315557 8.61022L6.24508 14.5334C6.34523 14.6335 6.46415 14.713 6.59505 14.7672C6.72596 14.8213 6.86627 14.8492 7.00798 14.8492C7.14968 14.8492 7.28999 14.8213 7.4209 14.7672C7.5518 14.713 7.67072 14.6335 7.77087 14.5334Z" fill="#1868DB"></path> </svg>