<svg width="142" height="16" viewBox="0 0 142 16" fill="none" xmlns="http://www.w3.org/2000/svg"> <g clip-path="url(#clip0_2389_2333)"> <path d="M4.73929 7.06523C4.5084 6.81126 4.16207 6.83435 4.00045 7.1345L0.23698 14.6384C0.0984476 14.9385 0.306247 15.2848 0.629489 15.2848H5.84755C6.00917 15.2848 6.17079 15.1925 6.24006 15.0309C7.3945 12.6989 6.70184 9.16631 4.73929 7.06523Z" fill="#1868DB"></path> <path d="M7.48794 0.231197C5.38686 3.55598 5.52539 7.22709 6.91072 9.99775C8.29604 12.7684 9.35813 14.8695 9.42739 15.0311C9.49666 15.1927 9.65828 15.2851 9.8199 15.2851H15.038C15.3612 15.2851 15.5921 14.9387 15.4305 14.6386C15.4305 14.6386 8.41149 0.600617 8.22678 0.254285C8.08824 -0.0689573 7.69573 -0.0920461 7.48794 0.231197Z" fill="#1868DB"></path> <path d="M78.3262 10.2168C78.3262 8.02338 77.1487 6.98439 73.8701 6.26863C72.0461 5.87612 71.6074 5.46053 71.6074 4.88331C71.6074 4.16756 72.2539 3.84431 73.4545 3.84431C74.9091 3.84431 76.3406 4.283 77.7028 4.9064V2.0203C76.7562 1.53544 75.2785 1.16602 73.5468 1.16602C70.2913 1.16602 68.6059 2.57443 68.6059 4.9064C68.6059 6.7535 69.4601 8.23118 72.8311 8.87767C74.8398 9.29326 75.2554 9.61651 75.2554 10.2861C75.2554 10.9326 74.8398 11.3482 73.4083 11.3482C71.769 11.3482 69.8065 10.794 68.5366 10.0321V13.0567C69.5525 13.5647 70.8916 14.1188 73.3852 14.1188C76.9178 14.1188 78.3262 12.5488 78.3262 10.2168Z" fill="#1868DB"></path> <path d="M113.837 1.35076V13.9341H116.516V4.3523L117.647 6.89206L121.434 13.9341H124.805V1.35076H122.126V9.478L121.11 7.12295L118.063 1.35076H113.837Z" fill="#1868DB"></path> <path d="M96.8214 1.35076H93.8891V13.911H96.8214V1.35076Z" fill="#1868DB"></path> <path d="M90.494 10.2168C90.494 8.02338 89.3165 6.98439 86.0379 6.26863C84.2139 5.87612 83.7752 5.46053 83.7752 4.88331C83.7752 4.16756 84.4217 3.84431 85.6223 3.84431C87.0769 3.84431 88.5084 4.283 89.8707 4.9064V2.0203C88.924 1.53544 87.4463 1.16602 85.7147 1.16602C82.4592 1.16602 80.7737 2.57443 80.7737 4.9064C80.7737 6.7535 81.628 8.23118 84.9989 8.87767C87.0076 9.29326 87.4232 9.61651 87.4232 10.2861C87.4232 10.9326 87.0077 11.3482 85.5761 11.3482C83.9368 11.3482 81.9743 10.794 80.7044 10.0321V13.0567C81.7203 13.5647 83.0595 14.1188 85.5531 14.1188C89.1087 14.1188 90.494 12.5488 90.494 10.2168Z" fill="#1868DB"></path> <path d="M45.8871 1.35076V13.9341H51.8902L52.8368 11.2097H48.8194V1.35076H45.8871Z" fill="#1868DB"></path> <path d="M33.9967 1.35085V4.07532H37.2522V13.9342H40.1845V4.07532H43.6709V1.35085H33.9967Z" fill="#1868DB"></path> <path d="M29.7251 1.35068H25.8693L21.4824 13.9341H24.8303L25.4537 11.8099C26.1925 12.0177 26.9775 12.1562 27.8087 12.1562C28.6169 12.1562 29.4019 12.0408 30.1638 11.8099L30.7872 13.9341H34.1351L29.7251 1.35068ZM27.7857 9.54719C27.2315 9.54719 26.6774 9.45484 26.1694 9.3163L27.7857 3.82118L29.4019 9.3163C28.8939 9.45484 28.3629 9.54719 27.7857 9.54719Z" fill="#1868DB"></path> <path d="M62.2799 1.35073H58.424L54.0372 13.911H57.3851L58.0084 11.7869C58.7473 11.9947 59.5323 12.1332 60.3635 12.1332C61.1716 12.1332 61.9566 12.0177 62.7186 11.7869L63.342 13.911H66.6898L62.2799 1.35073ZM60.3404 9.54724C59.7863 9.54724 59.2322 9.45489 58.7242 9.31635L60.3404 3.82123L61.9566 9.31635C61.4487 9.45489 60.8945 9.54724 60.3404 9.54724Z" fill="#1868DB"></path> <path d="M107.349 1.35073H103.493L99.1065 13.911H102.454L103.078 11.7869C103.817 11.9947 104.602 12.1332 105.433 12.1332C106.241 12.1332 107.026 12.0177 107.788 11.7869L108.411 13.911H111.759L107.349 1.35073ZM105.433 9.54724C104.879 9.54724 104.325 9.45489 103.817 9.31635L105.433 3.82123L107.049 9.31635C106.518 9.45489 105.987 9.54724 105.433 9.54724Z" fill="#1868DB"></path> <path fill-rule="evenodd" clip-rule="evenodd" d="M138.213 3.64258L137.133 4.84467L138.883 6.79227H131.568C131.147 6.79227 130.805 7.17296 130.805 7.64201C130.805 8.11107 131.147 8.49175 131.568 8.49175H138.883L137.133 10.4405L138.213 11.6426L141.805 7.64201L138.213 3.64258Z" fill="#0065FF"></path> </g> <defs> <clipPath id="clip0_2389_2333"> <rect width="141.612" height="15.2851" fill="white" transform="translate(0.193359)"></rect> </clipPath> </defs> </svg>