<svg width="24" height="24" class="search-svg" viewBox="0 0 24 24" fill="none" xmlns="http://www.w3.org/2000/svg"> <path fill-rule="evenodd" clip-rule="evenodd" d="M16.4362 15.085L20.3762 19.095C20.5527 19.2858 20.648 19.5378 20.6419 19.7976C20.6358 20.0574 20.5288 20.3047 20.3435 20.4869C20.1583 20.6692 19.9093 20.7722 19.6494 20.7741C19.3895 20.776 19.1391 20.6766 18.9512 20.497L15.0132 16.491C13.4938 17.6356 11.5961 18.1601 9.70452 17.9582C7.81291 17.7563 6.0687 16.8431 4.82506 15.4036C3.58142 13.964 2.9313 12.1057 3.00633 10.2048C3.08136 8.30391 3.87593 6.50257 5.22916 5.16551C6.58238 3.82845 8.39314 3.05558 10.2948 3.0034C12.1964 2.95123 14.0468 3.62364 15.4714 4.88448C16.8959 6.14533 17.788 7.90039 17.9672 9.79429C18.1463 11.6882 17.5991 13.5794 16.4362 15.085ZM10.5002 16C11.9589 16 13.3579 15.4205 14.3893 14.3891C15.4208 13.3576 16.0002 11.9587 16.0002 10.5C16.0002 9.04131 15.4208 7.64236 14.3893 6.61091C13.3579 5.57946 11.9589 5 10.5002 5C9.04155 5 7.64261 5.57946 6.61116 6.61091C5.57971 7.64236 5.00024 9.04131 5.00024 10.5C5.00024 11.9587 5.57971 13.3576 6.61116 14.3891C7.64261 15.4205 9.04155 16 10.5002 16Z" fill="#292A2E"></path> </svg>