<svg width="101" height="142" viewBox="0 0 101 142" fill="none" xmlns="http://www.w3.org/2000/svg">
<g clip-path="url(#clip0_2870_16058)">
<path d="M99.9365 103.71C100.549 100.259 100.873 96.5958 100.873 92.7144C100.873 88.833 100.549 85.0644 99.9224 81.5704C96.189 60.7899 81.7483 47.9765 61.5102 44.6868C58.0585 44.1233 54.4378 43.8345 50.6692 43.8345C46.9005 43.8345 42.9698 44.1444 39.3773 44.7432C19.111 48.1315 4.6985 60.9097 0.958015 81.5775C0.324035 85.0714 0 88.7837 0 92.7214C0 96.6592 0.324035 100.266 0.943927 103.717C4.65624 124.357 19.0758 137.156 39.3702 140.538C42.9628 141.136 46.7314 141.446 50.6621 141.446C54.5928 141.446 58.0515 141.158 61.5032 140.594C81.7835 137.297 96.2312 124.463 99.9365 103.71Z" fill="#82B536"/>
<path d="M64.0605 87.601C64.2295 86.65 64.3211 85.6427 64.3211 84.572C64.3211 83.5012 64.2295 82.4657 64.0605 81.5077C63.032 75.7878 59.0591 72.2657 53.4871 71.357C52.5361 71.202 51.5429 71.1245 50.5003 71.1245C49.4578 71.1245 48.38 71.209 47.3938 71.3781C41.8148 72.3079 37.8489 75.823 36.8204 81.5148C36.6443 82.4728 36.5527 83.5012 36.5527 84.579C36.5527 85.6568 36.6443 86.657 36.8134 87.608C37.8348 93.2857 41.8077 96.8148 47.3868 97.7447C48.373 97.9067 49.4155 97.9983 50.4933 97.9983C51.571 97.9983 52.529 97.9208 53.48 97.7658C59.0591 96.8571 63.039 93.3279 64.0605 87.6151V87.601Z" fill="#09326C"/>
<path d="M87.0949 31.3037H13.7715V63.207H87.0949V31.3037Z" fill="#82B536"/>
<path d="M59.2634 91.0669H41.6035V114.468H59.2634V91.0669Z" fill="#09326C"/>
<path d="M50.5494 62.4671C48.2459 62.4671 45.9706 62.2839 43.801 61.9176C30.3958 59.6846 21.3651 50.9709 19.0405 38.0236C18.6601 35.8962 18.4629 33.6421 18.4629 31.3386C18.4629 29.0352 18.6601 26.7246 19.0476 24.5691C21.3933 11.6289 30.417 2.91514 43.801 0.682121C48.0768 -0.0293466 52.7753 -0.043435 57.0441 0.6469C70.4564 2.83061 79.4941 11.5514 81.8328 24.5832C82.2202 26.7387 82.4175 29.014 82.4175 31.3386C82.4175 33.6632 82.2273 35.8892 81.8469 38.0165C79.5223 51.0484 70.4845 59.7762 57.0512 61.9599C54.9661 62.298 52.7824 62.4741 50.5564 62.4741L50.5494 62.4671ZM50.5494 6.66972C48.6192 6.66972 46.6821 6.81765 44.8788 7.12055C34.2138 8.90274 27.3245 15.5102 25.4719 25.7314C25.1479 27.4995 24.9858 29.3874 24.9858 31.3386C24.9858 33.2899 25.1479 35.1214 25.4578 36.8683C27.2964 47.0895 34.1927 53.704 44.8717 55.4862C48.4431 56.085 52.4513 56.092 55.9946 55.5144C66.6806 53.7745 73.577 47.1529 75.4155 36.8683C75.7254 35.1143 75.8875 33.2546 75.8875 31.3386C75.8875 29.4226 75.7254 27.5066 75.4085 25.7314C73.5629 15.4468 66.6666 8.82525 55.9946 7.08533C54.2617 6.80356 52.402 6.66267 50.5423 6.66267L50.5494 6.66972Z" fill="#82B536"/>
</g>
<defs>
<clipPath id="clip0_2870_16058">
<rect width="100.873" height="141.307" fill="white" transform="translate(0 0.139648)"/>
</clipPath>
</defs>
</svg>
