<svg width="300" height="114" viewBox="0 0 300 114" fill="none" xmlns="http://www.w3.org/2000/svg">
<g clip-path="url(#clip0_3358_7616)">
<path d="M119.797 103.278L120.434 104.466C120.434 104.466 120.826 106.729 121.551 107.467L122.347 110.813C122.347 110.813 122.885 112.151 123.298 112.476C123.556 112.681 123.819 112.785 124.027 112.76C124.452 112.714 124.648 112.151 124.11 110.868C124.127 110.847 124.135 110.784 124.169 110.768C123.46 109.455 123.569 107.954 123.081 106.546C122.968 106.6 122.864 106.579 122.91 106.516L123.06 106.487C122.485 105.625 122.785 104.887 122.022 104.166C122.022 104.166 122.247 104.212 122.247 104.208C121.272 101.257 120.272 97.1599 119.076 94.005L119.059 94.0258H119.034C118.976 94.3675 119.184 95.8596 119.184 95.8596C118.155 94.9969 118.53 93.559 118.159 92.4254L118.351 92.3795C118.492 92.8755 118.709 93.2881 118.842 93.4423C118.576 91.5918 117.563 88.0243 116.763 86.4114C116.629 86.4989 117.104 86.9323 116.675 87.2032C116.542 86.7698 116.342 86.3572 116.229 85.9446C116.534 85.8529 116.5 86.1196 116.571 86.153C116.696 85.3444 112.753 70.8116 112.478 74.6417L112.295 74.6C112.491 75.5086 112.653 76.2629 112.624 77.2799C112.687 77.4049 112.662 77.4257 112.82 77.3799C112.853 77.4091 112.916 77.4507 112.978 77.4174C113.354 77.2924 113.291 77.6258 113.341 77.7508C112.103 77.9509 114.079 80.6641 114.154 81.0808C113.608 81.3267 114.366 81.881 114.2 82.1936C114.175 82.1811 114.016 82.1103 113.987 82.1061C113.691 82.4312 115.762 85.7153 114.754 84.8985C114.816 89.4871 118.538 96.7307 118.855 101.615L118.913 101.561C118.905 101.603 118.967 101.707 118.897 101.757C119.259 102.14 119.784 103.278 119.784 103.278H119.797ZM117.355 92.5879C117.355 92.5879 117.325 92.5879 117.317 92.5963C117.375 92.5754 117.163 92.0003 117.171 91.9753L117.363 91.9253C117.905 92.4087 117.021 94.1633 117.196 92.6963C117.138 92.6671 117.292 92.6171 117.355 92.5921V92.5879ZM115.821 87.3616C115.808 87.2532 115.792 87.1407 115.771 87.0115C116.771 88.1868 116.575 90.2332 117.292 91.6377C116.3 91.3793 116.388 90.0373 116.246 89.3871C115.862 88.7995 115.867 87.9701 115.825 87.3616H115.821ZM113.366 78.5969L113.266 78.6219L113.253 78.576C113.279 78.5677 113.312 78.5635 113.329 78.5719C113.349 78.5719 113.37 78.5844 113.37 78.5969H113.366ZM120.026 102.432C119.843 102.378 119.818 101.974 120.193 102.136C120.159 102.215 120.359 102.361 120.026 102.432ZM115.592 85.7695C115.279 85.8612 115.071 85.3861 115.5 85.2569C115.558 85.4236 115.575 85.5987 115.592 85.7695ZM121.447 106.037C121.818 106.071 121.435 106.141 121.243 106.246C121.281 106.2 121.264 106.075 121.422 106.054L121.447 106.037ZM122.335 108.3C122.506 108.288 122.648 108.388 122.673 108.446C122.598 108.642 122.21 108.413 122.335 108.3ZM123.498 112.118C123.681 112.068 123.773 112.143 123.598 112.222C123.46 112.251 123.319 112.172 123.527 112.093C123.519 112.093 123.502 112.105 123.498 112.118ZM115.583 83.2689C116.171 83.2397 115.858 83.8274 116.079 84.0274C115.521 84.1316 115.792 83.5773 115.642 83.4189C115.625 83.3522 115.604 83.3022 115.583 83.2689ZM119.922 98.3686C120.405 98.2185 120.168 98.8437 120.326 98.9812L120.134 99.0354C120.009 98.7978 119.843 98.6853 119.922 98.3811V98.3686ZM117.117 87.8534C117.338 87.8909 117.205 88.1076 117.234 88.2035C116.963 88.2827 116.792 87.8784 117.117 87.8534ZM118.296 92.1045C118.005 92.2128 118.092 91.9628 118.042 91.9128C118.117 91.9378 118.321 91.9586 118.334 92.0086C118.338 92.0461 118.309 92.0628 118.296 92.1045ZM119.68 98.2352C119.613 98.0435 119.559 97.8268 119.509 97.6225L119.701 97.5725C119.759 97.7768 119.818 97.981 119.872 98.181L119.68 98.231V98.2352ZM119.388 96.1638L119.576 96.1097C119.843 96.3431 119.368 96.5181 119.388 96.1722V96.1638ZM120.66 100.728C120.66 100.694 120.66 100.644 120.651 100.615C120.51 100.211 121.372 100.582 120.66 100.728ZM121.481 102.816C121.522 102.849 121.593 102.886 121.597 102.932C121.66 103.228 121.105 103.045 121.481 102.816Z" fill="white"/>
<path d="M109.739 97.2141L108.555 97.8517C108.555 97.8517 106.292 98.2435 105.554 98.9687L102.208 99.7647C102.208 99.7647 100.87 100.302 100.545 100.715C100.341 100.973 100.236 101.236 100.261 101.444C100.307 101.869 100.87 102.065 102.154 101.528C102.174 101.544 102.237 101.553 102.254 101.586C103.566 100.878 105.067 100.986 106.476 100.498C106.421 100.386 106.442 100.282 106.505 100.327L106.534 100.477C107.397 99.9023 108.134 100.198 108.855 99.4355C108.855 99.4355 108.809 99.6605 108.814 99.6605C111.764 98.6853 115.861 97.685 119.016 96.4889L118.995 96.4722V96.4472C118.654 96.3889 117.162 96.5973 117.162 96.5973C118.024 95.5678 119.462 95.9429 120.596 95.572L120.642 95.7637C120.146 95.9054 119.733 96.1221 119.579 96.2555C121.429 95.9888 124.997 94.976 126.61 94.1758C126.522 94.0466 126.089 94.5176 125.818 94.0883C126.251 93.9549 126.664 93.7549 127.077 93.6423C127.168 93.9466 126.902 93.9132 126.868 93.9841C127.677 94.1091 142.21 90.1665 138.38 89.8914L138.421 89.708C137.513 89.9039 136.758 90.0664 135.741 90.0373C135.616 90.0998 135.595 90.0748 135.641 90.2331C135.612 90.2665 135.57 90.329 135.604 90.3915C135.729 90.7666 135.395 90.7041 135.27 90.7541C135.07 89.5163 132.357 91.4918 131.94 91.5668C131.694 91.0208 131.14 91.7794 130.828 91.6127C130.84 91.5877 130.911 91.4293 130.915 91.4001C130.59 91.1042 127.306 93.1756 128.123 92.167C123.534 92.2295 116.291 95.9513 111.406 96.268L111.46 96.3264C111.418 96.318 111.314 96.3805 111.264 96.3097C110.881 96.6723 109.743 97.1974 109.743 97.1974L109.739 97.2141ZM120.429 94.7718C120.429 94.7718 120.429 94.7426 120.421 94.7343C120.442 94.7926 121.017 94.5801 121.042 94.5884L121.092 94.7801C120.608 95.3219 118.854 94.4384 120.321 94.6134C120.35 94.5551 120.4 94.7093 120.425 94.7718H120.429ZM125.655 93.2381C125.764 93.2256 125.876 93.2089 126.006 93.1881C124.83 94.1883 122.784 93.9924 121.379 94.7093C121.638 93.7174 122.98 93.8049 123.63 93.6632C124.218 93.2798 125.047 93.2839 125.655 93.2422V93.2381ZM134.42 90.7833L134.395 90.6833L134.441 90.6708C134.449 90.6958 134.454 90.7291 134.445 90.7458C134.445 90.7666 134.433 90.7874 134.42 90.7874V90.7833ZM110.585 97.4433C110.639 97.2599 111.043 97.2349 110.881 97.61C110.802 97.5767 110.656 97.7767 110.585 97.4433ZM127.248 93.0088C127.156 92.6963 127.631 92.4879 127.76 92.9172C127.593 92.9755 127.418 92.9922 127.248 93.0088ZM106.98 98.8645C106.947 99.2354 106.876 98.852 106.771 98.6603C106.817 98.6978 106.942 98.6811 106.963 98.8395L106.98 98.8645ZM104.717 99.7522C104.729 99.9231 104.629 100.065 104.571 100.09C104.375 100.015 104.604 99.6272 104.717 99.7522ZM100.899 100.915C100.949 101.098 100.874 101.19 100.795 101.015C100.766 100.878 100.845 100.736 100.924 100.944C100.924 100.936 100.912 100.919 100.899 100.915ZM129.744 92.9963C129.773 93.584 129.186 93.2714 128.985 93.4923C128.881 92.9338 129.436 93.2047 129.594 93.0547C129.661 93.038 129.711 93.0172 129.744 92.9963ZM114.644 97.3349C114.794 97.8184 114.169 97.5808 114.032 97.7392L113.977 97.5475C114.215 97.4225 114.328 97.2558 114.632 97.3349H114.64H114.644ZM125.159 94.5301C125.122 94.751 124.905 94.6176 124.809 94.6468C124.73 94.3759 125.134 94.205 125.159 94.5301ZM120.908 95.7095C120.8 95.4178 121.05 95.5053 121.1 95.4553C121.075 95.5303 121.054 95.7345 121.004 95.747C120.967 95.7512 120.95 95.722 120.908 95.7095ZM114.778 97.0932C114.969 97.0265 115.186 96.9724 115.39 96.9223L115.44 97.1141C115.236 97.1724 115.032 97.2308 114.832 97.2849L114.782 97.0932H114.778ZM116.849 96.8015L116.903 96.989C116.67 97.2558 116.495 96.7806 116.841 96.8015H116.849ZM112.285 98.0726C112.319 98.0726 112.369 98.0726 112.398 98.0643C112.802 97.9226 112.431 98.7853 112.285 98.0726ZM110.197 98.8937C110.164 98.9354 110.126 99.0062 110.081 99.0104C109.785 99.0729 109.968 98.5186 110.197 98.8937Z" fill="white"/>
<path d="M113.969 101.795L113.582 103.083C113.582 103.083 112.261 104.962 112.256 106L110.46 108.934C110.46 108.934 109.897 110.259 109.96 110.784C109.997 111.11 110.114 111.372 110.277 111.501C110.61 111.768 111.144 111.505 111.673 110.222C111.702 110.222 111.752 110.18 111.785 110.193C112.211 108.763 113.344 107.775 113.994 106.433C113.878 106.392 113.815 106.304 113.894 106.292L114.019 106.379C114.224 105.362 114.949 105.05 114.92 104.004C114.92 104.004 115.049 104.195 115.049 104.191C116.437 101.411 118.62 97.802 120 94.7262H119.971L119.954 94.7137C119.671 94.9179 118.766 96.1224 118.766 96.1224C118.645 94.7846 119.929 94.0302 120.467 92.9674L120.638 93.0675C120.388 93.5176 120.25 93.9635 120.238 94.1636C121.354 92.6674 123.155 89.4207 123.726 87.7161C123.572 87.6869 123.601 88.3246 123.109 88.2162C123.322 87.8161 123.472 87.3827 123.68 87.0076C123.959 87.1576 123.747 87.3243 123.776 87.3952C124.434 86.9117 131.895 73.8292 128.998 76.3507L128.898 76.1923C128.394 76.9759 127.977 77.626 127.239 78.3262C127.198 78.4596 127.16 78.4554 127.306 78.5346C127.31 78.5804 127.323 78.6555 127.394 78.6721C127.748 78.8472 127.469 79.0389 127.414 79.1639C126.397 78.4304 125.881 81.7479 125.639 82.098C125.076 81.8896 125.226 82.8148 124.889 82.919C124.876 82.894 124.814 82.7315 124.801 82.7065C124.359 82.7273 123.513 86.5158 123.376 85.228C120.183 88.5246 117.708 96.2808 114.486 99.9692H114.565C114.528 99.9942 114.503 100.115 114.415 100.098C114.403 100.628 113.969 101.799 113.969 101.799V101.795ZM119.783 92.4965C119.783 92.4965 119.758 92.4756 119.75 92.4756C119.804 92.5048 120.062 91.9463 120.088 91.9338L120.258 92.0297C120.3 92.7549 118.437 93.3759 119.596 92.459C119.575 92.3965 119.721 92.4715 119.783 92.4965ZM122.388 87.7119C122.455 87.6286 122.526 87.5327 122.596 87.4285C122.476 88.9664 120.892 90.2792 120.408 91.7796C119.887 90.8961 120.896 90.0083 121.254 89.4457C121.396 88.758 121.988 88.1745 122.384 87.7119H122.388ZM126.835 79.7682L126.748 79.7141L126.773 79.6724C126.798 79.6849 126.823 79.7057 126.831 79.7224C126.848 79.7391 126.852 79.7641 126.839 79.7682H126.835ZM114.736 101.357C114.644 101.186 114.911 100.886 115.065 101.265C114.986 101.299 115.028 101.54 114.736 101.357ZM123.351 86.4199C123.067 86.2657 123.251 85.7781 123.647 85.9907C123.568 86.149 123.459 86.2866 123.351 86.4199ZM113.202 104.912C113.444 105.196 113.119 104.979 112.911 104.916C112.969 104.908 113.048 104.808 113.173 104.908H113.207L113.202 104.912ZM112.231 107.142C112.365 107.254 112.394 107.425 112.369 107.484C112.177 107.571 112.065 107.134 112.231 107.142ZM110.36 110.668C110.527 110.764 110.539 110.88 110.36 110.809C110.239 110.734 110.197 110.576 110.402 110.668C110.393 110.668 110.377 110.659 110.364 110.668H110.36ZM125.105 84.6445C125.539 85.0404 124.905 85.2321 124.922 85.5322C124.451 85.2113 125.035 85.0112 125.039 84.7945C125.072 84.7362 125.093 84.6862 125.105 84.6445ZM117.524 98.4063C117.97 98.6397 117.366 98.9189 117.378 99.1273L117.208 99.0315C117.287 98.7772 117.249 98.5772 117.52 98.4188V98.4105L117.524 98.4063ZM122.955 88.9747C123.084 89.1581 122.838 89.2165 122.792 89.3082C122.542 89.1706 122.709 88.7664 122.959 88.9747H122.955ZM120.792 92.8216C120.508 92.6924 120.746 92.5757 120.746 92.5048C120.779 92.5757 120.913 92.734 120.884 92.7799C120.863 92.8091 120.825 92.8007 120.788 92.8216H120.792ZM117.445 98.1437C117.537 97.9604 117.645 97.7687 117.754 97.5894L117.924 97.6895C117.82 97.877 117.716 98.0604 117.616 98.2438L117.445 98.1437ZM118.7 96.4725L118.875 96.5683C118.896 96.9226 118.437 96.71 118.7 96.4808V96.4725ZM116.378 100.603C116.399 100.582 116.441 100.544 116.453 100.519C116.637 100.132 116.987 101.003 116.378 100.603ZM115.486 102.662C115.491 102.712 115.516 102.791 115.486 102.828C115.324 103.083 115.061 102.562 115.486 102.662Z" fill="white"/>
<path d="M112.336 86.6281L111.136 86.0197C111.136 86.0197 109.519 84.3859 108.502 84.1942L105.935 81.9019C105.935 81.9019 104.73 81.1101 104.201 81.0809C103.872 81.0601 103.597 81.1267 103.438 81.2643C103.117 81.5435 103.276 82.1187 104.451 82.8647C104.451 82.8939 104.476 82.948 104.459 82.9814C105.793 83.6524 106.56 84.9485 107.764 85.8279C107.827 85.7196 107.927 85.6779 107.918 85.7529L107.81 85.8613C108.777 86.2405 108.952 87.0157 109.99 87.1699C109.99 87.1699 109.777 87.2616 109.781 87.2616C112.27 89.1246 115.429 91.9128 118.213 93.8216V93.7925L118.234 93.78C118.084 93.4674 117.062 92.3588 117.058 92.3588C118.396 92.4755 118.909 93.8758 119.859 94.5927L119.73 94.7427C119.33 94.4176 118.917 94.2009 118.721 94.1509C119.997 95.5179 122.868 97.8685 124.443 98.7354C124.502 98.5895 123.868 98.5062 124.064 98.0394C124.423 98.3186 124.823 98.5437 125.152 98.8187C124.952 99.0688 124.827 98.8271 124.752 98.8438C125.11 99.5773 136.651 109.255 134.688 105.954L134.863 105.883C134.183 105.25 133.617 104.72 133.062 103.87C132.941 103.803 132.946 103.77 132.846 103.899C132.8 103.899 132.725 103.899 132.691 103.958C132.454 104.274 132.316 103.966 132.204 103.891C133.108 103.02 129.937 101.92 129.636 101.619C129.945 101.107 129.003 101.086 128.961 100.736C128.99 100.728 129.161 100.698 129.186 100.69C129.245 100.252 125.669 98.7437 126.961 98.8354C124.289 95.1053 117.096 91.2835 114.045 87.4617L114.028 87.5409C114.012 87.4992 113.899 87.4534 113.932 87.37C113.416 87.2616 112.336 86.6281 112.336 86.6281ZM120.447 94.005C120.447 94.005 120.467 93.9842 120.472 93.9758C120.434 94.0259 120.938 94.3759 120.947 94.4051L120.822 94.5552C120.101 94.4676 119.821 92.5255 120.517 93.8258C120.584 93.8175 120.48 93.9467 120.447 94.005ZM124.689 97.4184C124.76 97.4976 124.839 97.5851 124.931 97.6768C123.439 97.2809 122.43 95.4887 121.038 94.7469C122.001 94.3885 122.693 95.5429 123.185 95.9972C123.835 96.2598 124.306 96.9433 124.689 97.4184ZM131.712 103.212L131.779 103.132L131.816 103.162C131.8 103.187 131.775 103.203 131.758 103.207C131.737 103.22 131.716 103.22 131.712 103.207V103.212ZM112.632 87.4617C112.816 87.3992 113.066 87.7201 112.665 87.7993C112.645 87.7159 112.399 87.7118 112.632 87.4617ZM125.79 98.6062C125.994 98.352 126.44 98.6229 126.156 98.9771C126.015 98.8729 125.898 98.7396 125.79 98.6062ZM109.406 85.3153C109.081 85.4987 109.356 85.2236 109.456 85.0277C109.456 85.0861 109.54 85.1819 109.419 85.2861L109.406 85.3153ZM107.385 83.965C107.252 84.0733 107.077 84.0733 107.022 84.04C106.972 83.8358 107.422 83.8024 107.385 83.965ZM104.247 81.4935C104.122 81.6394 104.009 81.631 104.105 81.4643C104.201 81.3601 104.363 81.3435 104.234 81.5268C104.238 81.5185 104.247 81.5018 104.243 81.4893L104.247 81.4935ZM127.228 100.644C126.761 101.003 126.682 100.344 126.386 100.307C126.782 99.9024 126.877 100.511 127.09 100.557C127.144 100.598 127.186 100.632 127.223 100.648L127.228 100.644ZM115.037 90.7292C114.724 91.1251 114.562 90.4791 114.353 90.4583L114.478 90.3041C114.716 90.4249 114.92 90.4249 115.024 90.7209L115.033 90.7292H115.037ZM123.347 97.756C123.143 97.8477 123.131 97.5976 123.051 97.5351C123.231 97.3142 123.597 97.5476 123.347 97.756ZM119.947 94.9386C120.122 94.6844 120.197 94.9386 120.263 94.9511C120.188 94.9719 120.005 95.072 119.967 95.0386C119.942 95.0136 119.959 94.9803 119.942 94.9386H119.947ZM115.308 90.6958C115.47 90.8167 115.641 90.9584 115.8 91.1001L115.67 91.2502C115.504 91.1168 115.341 90.9792 115.179 90.8459L115.308 90.6958ZM116.729 92.2296L116.604 92.3838C116.254 92.3421 116.541 91.9253 116.721 92.2254H116.725L116.729 92.2296ZM113.078 89.208C113.095 89.233 113.124 89.2788 113.149 89.2955C113.495 89.5456 112.578 89.7331 113.078 89.208ZM111.211 87.966C111.161 87.966 111.078 87.9743 111.048 87.9368C110.828 87.7284 111.386 87.5659 111.211 87.966Z" fill="white"/>
</g>
<g clip-path="url(#clip1_3358_7616)">
<path d="M24.6247 14.176L24.6456 13.1089C24.6456 13.1089 25.2535 11.3953 25.0394 10.6049L25.7888 7.98662C25.7888 7.98662 25.937 6.85483 25.7785 6.4704C25.6794 6.22921 25.5387 6.05542 25.3852 5.9918C25.074 5.85847 24.7205 6.1707 24.5934 7.2651C24.5738 7.27301 24.5438 7.31291 24.5143 7.31148C24.4937 8.49232 23.8367 9.48558 23.6265 10.6469C23.7252 10.6531 23.789 10.7079 23.7331 10.7333L23.6183 10.6952C23.6803 11.5137 23.187 11.9063 23.4335 12.6998C23.4335 12.6998 23.296 12.5808 23.2944 12.5837C22.8222 14.9982 21.9226 18.2134 21.5236 20.8546L21.5432 20.8467L21.5605 20.8564C21.7334 20.6432 22.1686 19.5328 22.1686 19.5328C22.5441 20.5276 21.7273 21.3742 21.5433 22.3003L21.3933 22.2576C21.488 21.8604 21.4985 21.4916 21.4663 21.3334C20.9323 22.7138 20.2467 25.5685 20.1729 26.992C20.2989 26.9834 20.1393 26.4999 20.5406 26.4796C20.4644 26.8304 20.4424 27.1928 20.3599 27.5211C20.1144 27.4663 20.2409 27.2952 20.2049 27.2447C19.8049 27.7541 16.8858 39.3123 18.5619 36.7761L18.6723 36.876C18.8897 36.1731 19.0703 35.5894 19.4851 34.8991C19.4904 34.7885 19.5158 34.7838 19.3887 34.754C19.377 34.721 19.3501 34.6679 19.294 34.6667C18.9866 34.6074 19.1592 34.4016 19.1732 34.2959C20.1049 34.6382 19.7947 31.9994 19.9046 31.6827C20.3768 31.7249 20.0685 31.0481 20.3048 30.8971C20.3172 30.9154 20.399 31.0257 20.4175 31.0399C20.7479 30.9305 20.593 27.8605 20.972 28.8155C22.7096 25.6249 22.9524 19.1824 24.6293 15.689L24.568 15.7037C24.59 15.6782 24.5873 15.582 24.6556 15.575C24.5542 15.1697 24.6333 14.1808 24.6333 14.1808L24.6247 14.176ZM22.1615 22.5003C22.1615 22.5003 22.1816 22.5117 22.1906 22.5091C22.1422 22.5009 22.0657 22.9802 22.0503 22.9943L21.8986 22.9544C21.7123 22.4105 23.0029 21.5427 22.3128 22.487C22.3417 22.5298 22.2159 22.5045 22.1631 22.4975L22.1615 22.5003ZM21.1916 26.7018C21.1582 26.7815 21.126 26.8656 21.0903 26.9628C20.8562 25.7637 21.7855 24.4276 21.8358 23.1803C22.42 23.7435 21.8388 24.6356 21.6843 25.1392C21.7209 25.6935 21.3961 26.2642 21.1888 26.7002L21.1916 26.7018ZM19.4842 33.7024L19.563 33.724L19.5538 33.7604C19.5333 33.7565 19.5087 33.7464 19.5004 33.7342C19.486 33.7261 19.4765 33.7094 19.4814 33.7008L19.4842 33.7024ZM24.1382 14.6708C24.2437 14.7794 24.1041 15.068 23.9083 14.8103C23.9621 14.7686 23.8806 14.5903 24.1382 14.6708ZM20.732 27.8894C20.9832 27.9474 20.9427 28.3561 20.5963 28.2787C20.6207 28.141 20.6772 28.0138 20.732 27.8894ZM24.5565 11.6317C24.3135 11.4648 24.6056 11.5647 24.7783 11.5672C24.7347 11.5842 24.6976 11.677 24.5803 11.6299L24.5565 11.6317ZM24.8222 9.72562C24.6994 9.66793 24.6405 9.54392 24.6459 9.49396C24.7736 9.3879 24.9521 9.69649 24.8222 9.72562ZM25.5013 6.64009C25.3554 6.60344 25.3212 6.51609 25.4727 6.52938C25.579 6.56262 25.646 6.67225 25.4715 6.64602C25.4772 6.64926 25.4936 6.6471 25.5013 6.64009ZM19.7673 29.6181C19.3505 29.4102 19.7942 29.126 19.7195 28.9023C20.1452 29.0471 19.7432 29.3245 19.7853 29.492C19.7709 29.5444 19.7659 29.587 19.7673 29.6181ZM22.6332 17.5152C22.2414 17.4312 22.6479 17.092 22.592 16.9356L22.7453 16.9726C22.7394 17.1851 22.8108 17.3274 22.638 17.5066L22.6332 17.5152ZM20.4881 25.8595C20.3502 25.7479 20.5264 25.6501 20.5434 25.5726C20.7611 25.6231 20.7221 25.9684 20.4881 25.8595ZM21.3239 22.4684C21.5673 22.5069 21.4098 22.6454 21.4249 22.6994C21.3829 22.653 21.25 22.5594 21.2608 22.52C21.2725 22.4925 21.2991 22.4923 21.3239 22.4684ZM22.7482 17.7011C22.7199 17.8592 22.6731 18.0298 22.6284 18.1901L22.4767 18.1502C22.5157 17.9867 22.5547 17.8231 22.5949 17.6641L22.7466 17.7039L22.7482 17.7011ZM22.1457 19.2436L21.9953 19.2082C21.9018 18.9436 22.2976 19.0072 22.149 19.2378L22.1457 19.2436ZM23.0396 15.6012C23.0266 15.6242 23.0072 15.6587 23.0017 15.6821C22.9426 16.0161 22.4912 15.4253 23.0396 15.6012ZM23.2833 13.8418C23.2675 13.8026 23.2332 13.7492 23.2481 13.716C23.3198 13.4876 23.6311 13.8292 23.2833 13.8418Z" fill="white"/>
<path d="M29.2105 22.2624L30.2746 22.2817C30.2746 22.2817 31.9883 22.8896 32.7787 22.6755L35.3969 23.4249C35.3969 23.4249 36.5287 23.5731 36.9132 23.4145C37.1544 23.3155 37.3282 23.1747 37.3918 23.0213C37.5251 22.7101 37.2129 22.3566 36.1185 22.2295C36.1106 22.2099 36.0707 22.1799 36.0721 22.1504C34.8912 22.1298 33.898 21.4728 32.7367 21.2626C32.7304 21.3613 32.6756 21.4251 32.6503 21.3692L32.6884 21.2543C31.8699 21.3164 31.4757 20.826 30.6822 21.0725C30.6822 21.0725 30.8012 20.9349 30.7983 20.9333C28.3837 20.4612 25.1686 19.5616 22.5274 19.1626L22.5353 19.1822L22.5256 19.1994C22.7388 19.3723 23.8492 19.8075 23.8492 19.8075C22.8544 20.1831 22.0078 19.3663 21.0816 19.1823L21.1244 19.0322C21.5216 19.1269 21.8904 19.1375 22.0486 19.1053C20.6682 18.5713 17.8134 17.8856 16.3899 17.8119C16.4002 17.935 16.882 17.7782 16.9024 18.1796C16.5515 18.1034 16.1892 18.0813 15.8608 17.9989C15.9156 17.7533 16.0867 17.8799 16.1372 17.8439C15.6278 17.4439 4.06969 14.5248 6.60587 16.2009L6.50594 16.3113C7.20889 16.5287 7.7925 16.7093 8.48289 17.124C8.59343 17.1294 8.5981 17.1548 8.62793 17.0277C8.661 17.016 8.71402 16.989 8.71527 16.9329C8.77455 16.6256 8.98036 16.7981 9.08605 16.8121C8.74374 17.7439 11.3825 17.4336 11.6992 17.5436C11.657 18.0158 12.3339 17.7075 12.4849 17.9438C12.4666 17.9562 12.3562 18.038 12.342 18.0565C12.4515 18.3868 15.5215 18.232 14.5664 18.611C17.757 20.3485 24.1995 20.5913 27.693 22.2683L27.6782 22.207C27.7038 22.2289 27.7999 22.2262 27.8069 22.2945C28.2122 22.1931 29.2011 22.2723 29.2011 22.2723L29.2105 22.2624ZM20.8861 19.7992C20.8861 19.7992 20.8748 19.8193 20.8773 19.8283C20.8856 19.7799 20.4062 19.7034 20.3922 19.688L20.4321 19.5363C20.9759 19.35 21.8438 20.6406 20.8994 19.9505C20.8566 19.9794 20.882 19.8536 20.889 19.8008L20.8861 19.7992ZM16.6846 18.8293C16.605 18.7959 16.5209 18.7638 16.4236 18.728C17.6228 18.4939 18.9588 19.4232 20.2062 19.4736C19.6429 20.0577 18.7509 19.4766 18.2472 19.322C17.6929 19.3586 17.1223 19.0338 16.6862 18.8265L16.6846 18.8293ZM9.68404 17.1219L9.66248 17.2007L9.626 17.1915C9.62995 17.171 9.64001 17.1464 9.65223 17.1381C9.66032 17.1237 9.67703 17.1142 9.68566 17.1191L9.68404 17.1219ZM28.7156 21.7759C28.6071 21.8814 28.3184 21.7418 28.5761 21.546C28.6178 21.5998 28.7961 21.5184 28.7156 21.7759ZM15.4971 18.3697C15.439 18.621 15.0303 18.5804 15.1077 18.234C15.2454 18.2585 15.3727 18.3149 15.4971 18.3697ZM31.7547 22.1942C31.9217 21.9512 31.8218 22.2433 31.8193 22.416C31.8022 22.3724 31.7095 22.3353 31.7565 22.218L31.7547 22.1942ZM33.6608 22.4599C33.7185 22.3371 33.8425 22.2782 33.8925 22.2836C33.9985 22.4114 33.69 22.5899 33.6608 22.4599ZM36.7464 23.139C36.783 22.9931 36.8704 22.9589 36.8571 23.1104C36.8238 23.2167 36.7142 23.2837 36.7404 23.1092C36.7372 23.1149 36.7393 23.1313 36.7464 23.139ZM13.7696 17.4095C13.9775 16.9927 14.2617 17.4364 14.4854 17.3617C14.3406 17.7875 14.0632 17.3854 13.8957 17.4275C13.8433 17.4131 13.8007 17.4081 13.7696 17.4095ZM25.8725 20.2754C25.9565 19.8836 26.2957 20.2901 26.4521 20.2342L26.4151 20.3875C26.2026 20.3816 26.0603 20.453 25.8811 20.2802L25.8753 20.277L25.8725 20.2754ZM17.5282 18.1303C17.6398 17.9924 17.7376 18.1686 17.8151 18.1856C17.7646 18.4033 17.4193 18.3643 17.5282 18.1303ZM20.9193 18.9661C20.8808 19.2095 20.7423 19.052 20.6883 19.0671C20.7347 19.0251 20.8283 18.8922 20.8677 18.903C20.8952 18.9147 20.8954 18.9413 20.9193 18.9661ZM25.6866 20.3904C25.5285 20.3621 25.3579 20.3153 25.1976 20.2706L25.2375 20.1189C25.401 20.1579 25.5646 20.1969 25.7236 20.2371L25.6838 20.3888L25.6866 20.3904ZM24.1441 19.7879L24.1795 19.6375C24.4441 19.544 24.3805 19.9398 24.1499 19.7912L24.1441 19.7879ZM27.7865 20.6818C27.7635 20.6688 27.729 20.6494 27.7056 20.6439C27.3716 20.5848 27.9624 20.1334 27.7865 20.6818ZM29.5459 20.9255C29.5851 20.9097 29.6385 20.8754 29.6717 20.8903C29.9002 20.962 29.5585 21.2733 29.5459 20.9255Z" fill="white"/>
<path d="M28.0689 17.461L28.8361 16.7228C28.8361 16.7228 30.4772 15.9385 30.8828 15.224L33.2609 13.8965C33.2609 13.8965 34.1635 13.2003 34.3241 12.8137C34.4244 12.5748 34.4457 12.3483 34.3837 12.1961C34.2572 11.8826 33.7872 11.8568 32.9238 12.5372C32.9037 12.5258 32.853 12.5352 32.8348 12.5136C31.9867 13.3351 30.8212 13.5767 29.8518 14.2505C29.9161 14.3245 29.9253 14.4092 29.8658 14.3871L29.8135 14.2781C29.2779 14.9006 28.6562 14.8349 28.2704 15.568C28.2704 15.568 28.2557 15.3856 28.254 15.3885C26.2176 16.7681 23.31 18.4111 21.1645 19.9982L21.1847 20.0095L21.1913 20.0246C21.4661 19.9936 22.5576 19.5135 22.5576 19.5135C22.1218 20.4835 20.9433 20.5059 20.1599 21.0306L20.0808 20.8953C20.428 20.6817 20.696 20.4274 20.7823 20.2942C19.4309 20.8932 16.9286 22.4348 15.8731 23.3894C15.9682 23.4694 16.1955 23.0181 16.4928 23.2837C16.1909 23.4773 15.9192 23.7182 15.6298 23.8961C15.4954 23.6842 15.7067 23.6517 15.7141 23.5915C15.0721 23.6695 4.84746 29.8018 7.82467 29.186L7.83223 29.3341C8.48428 28.9891 9.02417 28.7022 9.80491 28.5053C9.88542 28.4295 9.90969 28.4469 9.83976 28.3357C9.85468 28.3024 9.87516 28.2458 9.83274 28.2068C9.65622 27.9485 9.9233 27.9246 10.0092 27.8594C10.4263 28.7601 12.0703 26.6715 12.3729 26.5237C12.6803 26.8859 12.9358 26.1892 13.2092 26.2483C13.2081 26.2704 13.1882 26.4068 13.1871 26.429C13.5 26.586 15.554 24.3002 15.1492 25.2422C18.6314 24.2063 23.3495 19.815 27.0039 18.5201L26.9493 18.4893C26.9849 18.4866 27.049 18.4129 27.1029 18.4584C27.317 18.098 28.0705 17.4581 28.0705 17.4581L28.0689 17.461ZM20.4488 21.6208C20.4488 21.6208 20.458 21.6449 20.4637 21.6482C20.4376 21.607 20.0426 21.8921 20.0205 21.891L19.9398 21.7586C20.1925 21.242 21.719 21.5364 20.5636 21.7195C20.5538 21.7707 20.4822 21.6624 20.4488 21.6208ZM16.7947 23.9115C16.7163 23.9431 16.6302 23.9818 16.5409 24.0262C17.2211 23.0119 18.8234 22.7206 19.7392 21.8729C19.7558 22.6847 18.7154 22.9059 18.2497 23.155C17.8851 23.5746 17.2503 23.7475 16.7975 23.9131L16.7947 23.9115ZM10.6435 27.6672L10.6828 27.7385L10.6494 27.7576C10.637 27.7392 10.6278 27.7152 10.6286 27.7004C10.6235 27.6825 10.6303 27.6636 10.6406 27.6656L10.6435 27.6672ZM27.3699 17.4654C27.3669 17.6189 27.0664 17.7224 27.1072 17.4009C27.1747 17.4086 27.2398 17.2256 27.3699 17.4654ZM15.629 24.4294C15.7647 24.6458 15.4489 24.9111 15.2582 24.6108C15.3743 24.5322 15.5024 24.4794 15.629 24.4294ZM29.8078 15.6074C29.751 15.3181 29.8912 15.5938 30.0108 15.7178C29.9673 15.7009 29.8738 15.7392 29.8264 15.6216L29.8034 15.6087L29.8078 15.6074ZM31.3432 14.4457C31.2948 14.3163 31.341 14.1871 31.3809 14.1565C31.5472 14.1705 31.455 14.5161 31.3432 14.4457ZM34.0027 12.7389C33.9249 12.6081 33.9616 12.5227 34.0577 12.6411C34.112 12.7398 34.0793 12.8653 33.974 12.7227C33.9797 12.726 33.988 12.7382 33.9999 12.7373L34.0027 12.7389ZM13.7292 24.9736C13.5838 24.5322 14.0953 24.6458 14.2003 24.4322C14.4007 24.8364 13.9205 24.748 13.8335 24.896C13.7878 24.9233 13.754 24.9497 13.7292 24.9736ZM24.3009 18.4195C24.0838 18.0854 24.6091 18.1272 24.6814 17.9786L24.7621 18.111C24.6088 18.2557 24.557 18.4083 24.3086 18.4125L24.3054 18.4182L24.3009 18.4195ZM16.8936 22.8201C16.8756 22.6435 17.0679 22.6986 17.1352 22.6532C17.2543 22.8451 16.9824 23.0594 16.8907 22.8185L16.8936 22.8201ZM19.879 21.0051C20.0244 21.2043 19.8152 21.1926 19.7877 21.2415C19.7922 21.1797 19.7616 21.0186 19.7995 20.9983C19.8252 20.9863 19.8479 21.0066 19.8819 21.0067L19.879 21.0051ZM24.2537 18.6314C24.1192 18.7223 23.97 18.8126 23.8257 18.8942L23.7466 18.7589C23.8913 18.6699 24.0344 18.5838 24.1746 18.4961L24.2537 18.6314ZM22.7395 19.2978L22.6559 19.1637C22.779 18.9112 23.0128 19.2358 22.7427 19.292L22.7395 19.2978ZM25.9441 17.3487C25.9216 17.355 25.8783 17.3647 25.86 17.3771C25.583 17.5734 25.6795 16.8365 25.9441 17.3487ZM27.3585 16.2741C27.375 16.238 27.3885 16.1736 27.4232 16.1591C27.634 16.0467 27.613 16.5081 27.3585 16.2741Z" fill="white"/>
<path d="M23.3105 28.5597L23.9026 29.4454C23.9026 29.4454 24.3844 31.2002 25.0118 31.7272L25.8937 34.3052C25.8937 34.3052 26.4176 35.319 26.7715 35.5445C26.9906 35.6867 27.2063 35.7474 27.3689 35.714C27.6987 35.6458 27.8126 35.1875 27.2912 34.2166C27.3025 34.1965 27.3063 34.1494 27.3307 34.1329C26.6708 33.1523 26.6446 31.9603 26.1548 30.8861C26.0696 30.9366 25.9844 30.9265 26.0193 30.878L26.1361 30.8453C25.6161 30.2084 25.7961 29.6055 25.1399 29.0964C25.1399 29.0964 25.3221 29.1156 25.3192 29.114C24.3253 26.8629 23.2274 23.713 22.0471 21.3155L22.0357 21.3356L22.0165 21.3362C21.9987 21.6101 22.2731 22.7713 22.276 22.7729C21.3981 22.1732 21.5878 21.008 21.2103 20.1446L21.3577 20.0912C21.5076 20.4708 21.7082 20.7805 21.824 20.891C21.4745 19.4528 20.4052 16.7165 19.6545 15.5069C19.5576 15.5849 19.9624 15.8883 19.6461 16.1344C19.5072 15.8026 19.3184 15.492 19.198 15.1745C19.433 15.0795 19.4255 15.2949 19.4837 15.3125C19.5211 14.6672 15.3133 3.51106 15.3869 6.55051L15.2386 6.53147C15.4615 7.23223 15.6472 7.81742 15.6998 8.61921C15.7573 8.71212 15.7415 8.73351 15.8607 8.68318C15.8923 8.70097 15.9441 8.73008 15.9897 8.70276C16.2766 8.57638 16.2518 8.84256 16.3003 8.938C15.3382 9.18809 17.0998 11.1781 17.1904 11.5016C16.7786 11.7357 17.4205 12.1156 17.3134 12.3733C17.29 12.3677 17.1608 12.3216 17.1403 12.3176C16.9302 12.5969 18.8122 15.0257 17.9563 14.461C18.3522 18.0716 21.8328 23.5003 22.4549 27.3214L22.4971 27.2732C22.4924 27.3085 22.5523 27.3838 22.4969 27.4283C22.8115 27.7037 23.3105 28.5597 23.3105 28.5597ZM20.5768 20.3221C20.5768 20.3221 20.5543 20.3284 20.5482 20.3325C20.5935 20.3125 20.3814 19.8753 20.3869 19.8519L20.5314 19.7969C20.995 20.1371 20.434 21.5856 20.4583 20.4182C20.4091 20.3981 20.5311 20.3494 20.5768 20.3221ZM18.9738 16.3203C18.9556 16.2381 18.9349 16.147 18.9072 16.0482C19.7831 16.9004 19.7836 18.5284 20.4563 19.5805C19.6529 19.4542 19.6235 18.3891 19.4604 17.8848C19.1137 17.4513 19.054 16.7969 18.9738 16.3203ZM16.376 9.59761L16.2993 9.62637L16.2847 9.59169C16.3059 9.5809 16.3297 9.5791 16.3428 9.5827C16.362 9.58215 16.3764 9.59024 16.3744 9.60049L16.376 9.59761ZM23.4298 27.8697C23.279 27.8417 23.231 27.5232 23.5378 27.6238C23.5198 27.6894 23.6879 27.7877 23.4298 27.8697ZM18.6755 15.0737C18.4359 15.1699 18.2333 14.8099 18.5663 14.6754C18.6237 14.8023 18.6525 14.9396 18.6755 15.0737ZM24.8228 30.6026C25.1182 30.6022 24.8217 30.6853 24.6767 30.7816C24.6993 30.7413 24.679 30.6429 24.8028 30.6179L24.8228 30.6026ZM25.6935 32.3188C25.8276 32.2958 25.9484 32.3637 25.9728 32.4077C25.9281 32.568 25.6046 32.4164 25.6935 32.3188ZM26.9 35.242C27.0429 35.1899 27.1173 35.2393 26.9864 35.3171C26.8799 35.3518 26.7612 35.3003 26.9215 35.2239C26.9154 35.228 26.9032 35.2363 26.9012 35.2465L26.9 35.242ZM18.4742 13.1094C18.9354 13.0432 18.7345 13.5283 18.9241 13.6691C18.494 13.7944 18.664 13.3373 18.5351 13.2232C18.5139 13.1734 18.4981 13.1342 18.4787 13.1081L18.4742 13.1094ZM23.0384 24.6818C23.4077 24.5299 23.2692 25.0387 23.4049 25.134L23.2588 25.1919C23.1418 25.0163 23.0009 24.937 23.0438 24.6924L23.0413 24.6834L23.0384 24.6818ZM20.0308 16.6081C20.2073 16.6241 20.1189 16.8015 20.1493 16.8754C19.9399 16.9582 19.7774 16.6549 20.0308 16.6081ZM21.2842 19.872C21.0647 19.9795 21.1116 19.7749 21.0704 19.7404C21.1303 19.7551 21.2957 19.7573 21.3086 19.7948C21.3161 19.8218 21.2917 19.8383 21.287 19.8736L21.2842 19.872ZM22.8385 24.5997C22.7733 24.4532 22.7104 24.2891 22.6561 24.1299L22.8034 24.0765C22.8667 24.2332 22.9255 24.3912 22.9859 24.5463L22.8385 24.5997ZM22.4531 22.9899L22.5992 22.932C22.8246 23.0966 22.4644 23.2726 22.4572 22.996L22.4543 22.9943L22.4531 22.9899ZM23.7997 26.4916C23.7979 26.4679 23.7956 26.425 23.7848 26.4038C23.6431 26.097 24.3486 26.3234 23.7997 26.4916ZM24.6061 28.0732C24.6407 28.0926 24.7014 28.1192 24.707 28.1564C24.7785 28.3859 24.3301 28.2814 24.6061 28.0732Z" fill="white"/>
</g>
<g clip-path="url(#clip2_3358_7616)">
<path d="M274.962 77.9496L274.658 78.8752C274.658 78.8752 273.67 80.2081 273.645 80.9551L272.291 83.0396C272.291 83.0396 271.859 83.9877 271.895 84.3656C271.917 84.6025 271.993 84.7918 272.11 84.8884C272.346 85.0879 272.738 84.91 273.141 83.9889C273.161 83.9872 273.198 83.9604 273.223 83.9696C273.557 82.9446 274.395 82.2534 274.889 81.2962C274.805 81.2644 274.764 81.1995 274.819 81.1923L274.909 81.2562C275.074 80.5254 275.61 80.3147 275.607 79.5563C275.607 79.5563 275.695 79.6969 275.697 79.6948C276.755 77.7139 278.399 75.1486 279.454 72.9504L279.434 72.9521L279.422 72.939C279.214 73.0788 278.537 73.9315 278.537 73.9315C278.476 72.9629 279.415 72.4425 279.823 71.6834L279.942 71.7609C279.754 72.0822 279.646 72.4012 279.632 72.5479C280.467 71.486 281.828 69.178 282.273 67.9555C282.161 67.9294 282.171 68.394 281.815 68.3044C281.976 68.0186 282.092 67.7083 282.251 67.4438C282.451 67.5572 282.295 67.6727 282.313 67.7264C282.798 67.3888 288.436 58.0828 286.295 59.8479L286.225 59.7312C285.848 60.2865 285.534 60.7475 284.987 61.2391C284.953 61.3342 284.93 61.3315 285.033 61.3915C285.034 61.4234 285.043 61.4769 285.092 61.493C285.344 61.6269 285.139 61.7604 285.098 61.8489C284.377 61.301 283.942 63.6868 283.761 63.9338C283.361 63.7707 283.449 64.4438 283.202 64.5124C283.196 64.4931 283.154 64.3749 283.142 64.3576C282.824 64.3648 282.139 67.0853 282.063 66.1506C279.694 68.4704 277.76 74.0277 275.362 76.628L275.42 76.6315C275.394 76.6479 275.37 76.7325 275.309 76.7204C275.289 77.1012 274.956 77.943 274.956 77.943L274.962 77.9496ZM279.337 71.3437C279.337 71.3437 279.322 71.3284 279.314 71.3282C279.354 71.3483 279.549 70.9505 279.566 70.9424L279.688 71.0177C279.705 71.5421 278.347 71.9544 279.201 71.3148C279.187 71.2697 279.29 71.3255 279.335 71.3457L279.337 71.3437ZM281.307 67.9364C281.357 67.8758 281.408 67.811 281.465 67.7357C281.348 68.8448 280.18 69.7623 279.803 70.8373C279.444 70.1896 280.189 69.5665 280.459 69.1683C280.575 68.6749 281.011 68.2637 281.309 67.9386L281.307 67.9364ZM284.668 62.2836L284.605 62.2438L284.623 62.2144C284.64 62.2233 284.659 62.2387 284.663 62.2516C284.673 62.2625 284.677 62.2796 284.67 62.2858L284.668 62.2836ZM275.519 77.6478C275.456 77.5248 275.655 77.3103 275.757 77.5875C275.698 77.6095 275.722 77.7869 275.519 77.6478ZM282.025 67.0229C281.821 66.9051 281.966 66.5593 282.248 66.7195C282.189 66.8331 282.106 66.9291 282.025 67.0229ZM274.341 80.1881C274.508 80.3988 274.28 80.2335 274.13 80.1851C274.173 80.1819 274.23 80.1109 274.32 80.1833L274.341 80.1881ZM273.6 81.7805C273.691 81.8636 273.71 81.9876 273.692 82.0298C273.552 82.0882 273.478 81.7712 273.6 81.7805ZM272.182 84.2916C272.3 84.3626 272.306 84.448 272.177 84.3958C272.094 84.3384 272.064 84.2248 272.21 84.2944C272.205 84.29 272.191 84.2875 272.182 84.2916ZM283.329 65.7722C283.637 66.0651 283.174 66.1945 283.18 66.4097C282.847 66.1695 283.272 66.0349 283.28 65.8775C283.306 65.8356 283.322 65.7997 283.329 65.7722ZM277.592 75.5679C277.912 75.746 277.466 75.9334 277.473 76.0848L277.35 76.0115C277.412 75.8277 277.387 75.6844 277.586 75.5741L277.592 75.5679ZM281.695 68.8596C281.786 68.9938 281.606 69.0321 281.57 69.0951C281.394 68.9929 281.52 68.702 281.695 68.8596ZM280.059 71.5954C279.857 71.4968 280.032 71.418 280.033 71.3669C280.057 71.4186 280.148 71.5358 280.128 71.5673C280.111 71.5882 280.087 71.5812 280.059 71.5954ZM277.542 75.375C277.609 75.2445 277.695 75.1082 277.777 74.9802L277.899 75.0556C277.821 75.1879 277.743 75.3202 277.666 75.4483L277.544 75.3729L277.542 75.375ZM278.48 74.19L278.602 74.2611C278.613 74.5169 278.284 74.3556 278.476 74.1941L278.48 74.19ZM276.726 77.1296C276.744 77.113 276.77 77.088 276.781 77.0691C276.922 76.7935 277.158 77.4297 276.726 77.1296ZM276.043 78.5998C276.046 78.6382 276.062 78.694 276.04 78.719C275.916 78.8992 275.736 78.5178 276.043 78.5998Z" fill="white"/>
<path d="M273.121 69.6659L272.198 69.3646C272.198 69.3646 270.865 68.3759 270.118 68.3515L268.033 66.9975C268.033 66.9975 267.085 66.5656 266.707 66.6011C266.47 66.6231 266.281 66.6995 266.184 66.8164C265.985 67.0523 266.163 67.4443 267.084 67.8478C267.086 67.867 267.112 67.9039 267.103 67.9292C268.128 68.2629 268.819 69.1018 269.777 69.5957C269.808 69.5112 269.873 69.4702 269.881 69.5258L269.817 69.6158C270.547 69.7805 270.76 70.3139 271.519 70.3109C271.519 70.3109 271.378 70.3991 271.38 70.4013C273.361 71.4588 275.926 73.1035 278.125 74.1578L278.123 74.1386L278.136 74.1261C277.996 73.9183 277.143 73.2416 277.143 73.2416C278.112 73.1798 278.632 74.119 279.392 74.5271L279.314 74.6467C278.993 74.4578 278.674 74.35 278.527 74.3358C279.589 75.1709 281.897 76.5324 283.119 76.9774C283.143 76.8672 282.681 76.8752 282.771 76.5195C283.056 76.6798 283.367 76.7959 283.631 76.9557C283.518 77.1553 283.402 76.9991 283.349 77.017C283.686 77.5023 292.992 83.1398 291.227 80.999L291.344 80.9294C290.788 80.5518 290.327 80.2382 289.836 79.6916C289.741 79.6574 289.744 79.634 289.684 79.7369C289.652 79.7383 289.598 79.7476 289.582 79.7962C289.448 80.0486 289.315 79.843 289.226 79.8025C289.774 79.0809 287.388 78.6462 287.141 78.4656C287.304 78.0648 286.631 78.1529 286.563 77.9063C286.582 77.9004 286.7 77.8585 286.717 77.8461C286.71 77.5286 283.99 76.8429 284.924 76.7676C282.605 74.3982 277.047 72.4639 274.447 70.0665L274.443 70.1239C274.427 70.098 274.342 70.0746 274.355 70.0131C273.974 69.9933 273.132 69.6598 273.132 69.6598L273.121 69.6659ZM279.727 74.0411C279.727 74.0411 279.742 74.0265 279.743 74.018C279.722 74.058 280.12 74.2529 280.128 74.2702L280.053 74.3919C279.529 74.409 279.116 73.0507 279.756 73.9054C279.801 73.8916 279.745 73.9946 279.725 74.0389L279.727 74.0411ZM283.134 76.0107C283.195 76.0612 283.26 76.1117 283.335 76.1689C282.226 76.0526 281.308 74.8845 280.233 74.507C280.881 74.1478 281.504 74.8935 281.902 75.163C282.396 75.2793 282.807 75.7152 283.132 76.0128L283.134 76.0107ZM288.787 79.3723L288.827 79.3094L288.856 79.3271C288.847 79.344 288.832 79.3627 288.819 79.3667C288.808 79.3771 288.791 79.3809 288.785 79.3744L288.787 79.3723ZM273.423 70.2228C273.546 70.1597 273.76 70.3587 273.483 70.4607C273.461 70.4026 273.284 70.426 273.423 70.2228ZM284.048 76.7293C284.166 76.5256 284.511 76.6702 284.351 76.9518C284.238 76.8937 284.142 76.8104 284.048 76.7293ZM270.883 69.0452C270.672 69.2126 270.837 68.9844 270.886 68.8344C270.889 68.8771 270.96 68.9342 270.887 69.024L270.883 69.0452ZM269.29 68.3038C269.207 68.3955 269.083 68.4138 269.041 68.3957C268.983 68.2558 269.3 68.1826 269.29 68.3038ZM266.779 66.8862C266.708 67.0037 266.623 67.0102 266.675 66.8815C266.732 66.7977 266.846 66.7685 266.776 66.9138C266.781 66.9096 266.783 66.8948 266.779 66.8862ZM285.299 78.0291C285.006 78.3372 284.876 77.874 284.661 77.8795C284.901 77.5466 285.036 77.9716 285.193 77.9797C285.235 78.0062 285.271 78.022 285.299 78.0291ZM275.503 72.2924C275.325 72.6118 275.137 72.1664 274.986 72.1734L275.059 72.0495C275.243 72.1114 275.386 72.0872 275.497 72.2858L275.501 72.2902L275.503 72.2924ZM282.211 76.3952C282.077 76.4857 282.039 76.3058 281.976 76.2702C282.078 76.0938 282.369 76.2201 282.211 76.3952ZM279.475 74.7592C279.574 74.5571 279.653 74.7315 279.704 74.7328C279.652 74.7571 279.535 74.848 279.504 74.828C279.483 74.8105 279.49 74.7872 279.475 74.7592ZM275.696 72.2417C275.826 72.3087 275.963 72.3951 276.091 72.477L276.015 72.5987C275.883 72.521 275.751 72.4432 275.623 72.3655L275.698 72.2438L275.696 72.2417ZM276.881 73.1798L276.81 73.3017C276.554 73.3125 276.715 72.9841 276.877 73.1755L276.881 73.1798ZM273.941 71.426C273.958 71.4434 273.983 71.4696 274.002 71.4807C274.277 71.6216 273.641 71.8575 273.941 71.426ZM272.471 70.7429C272.433 70.7462 272.377 70.7619 272.352 70.74C272.172 70.6164 272.553 70.436 272.471 70.7429Z" fill="white"/>
<path d="M272.834 74.1618L271.967 74.6009C271.967 74.6009 270.325 74.8466 269.78 75.3617L267.35 75.8844C267.35 75.8844 266.376 76.2506 266.133 76.5451C265.981 76.7267 265.902 76.9186 265.916 77.068C265.942 77.3754 266.346 77.5236 267.281 77.1607C267.295 77.176 267.342 77.1814 267.352 77.205C268.312 76.7149 269.394 76.8156 270.42 76.4869C270.383 76.4051 270.398 76.3287 270.444 76.3639L270.461 76.4729C271.094 76.0729 271.619 76.2965 272.152 75.7598C272.152 75.7598 272.116 75.923 272.118 75.9209C274.264 75.2614 277.241 74.6049 279.538 73.7935L279.523 73.7783L279.521 73.7633C279.273 73.7169 278.192 73.8441 278.192 73.8441C278.832 73.114 279.866 73.4096 280.69 73.1611L280.723 73.3004C280.363 73.3939 280.061 73.5442 279.95 73.6374C281.29 73.476 283.886 72.7996 285.062 72.2487C285 72.1535 284.681 72.4866 284.493 72.1753C284.808 72.0871 285.11 71.9495 285.41 71.8716C285.47 72.0925 285.277 72.0644 285.255 72.1149C285.836 72.2184 296.398 69.6005 293.635 69.342L293.668 69.2107C293.007 69.3374 292.459 69.4435 291.725 69.4066C291.635 69.4512 291.618 69.4295 291.649 69.5453C291.628 69.5703 291.595 69.6143 291.621 69.6596C291.706 69.9322 291.467 69.8817 291.374 69.9157C291.251 69.0181 289.258 70.4012 288.954 70.4493C288.783 70.0511 288.374 70.5907 288.151 70.466C288.158 70.447 288.212 70.3333 288.219 70.3143C287.987 70.0936 285.584 71.5393 286.189 70.8254C282.873 70.7985 277.582 73.3692 274.047 73.5223L274.086 73.5637C274.054 73.5565 273.979 73.6037 273.944 73.5496C273.661 73.8069 272.832 74.1638 272.832 74.1638L272.834 74.1618ZM280.596 72.5688C280.596 72.5688 280.594 72.5454 280.59 72.541C280.602 72.5839 281.023 72.4407 281.042 72.4475L281.077 72.5847C280.718 72.968 279.465 72.3029 280.522 72.452C280.544 72.41 280.578 72.5237 280.596 72.5688ZM284.397 71.5468C284.474 71.5401 284.56 71.5294 284.649 71.5145C283.785 72.2178 282.308 72.0437 281.283 72.5386C281.485 71.8256 282.452 71.9108 282.925 71.8179C283.356 71.5493 283.956 71.568 284.395 71.5446L284.397 71.5468ZM290.769 69.9138L290.754 69.841L290.788 69.8333C290.794 69.8526 290.796 69.8761 290.791 69.8888C290.791 69.9058 290.78 69.9205 290.771 69.916L290.769 69.9138ZM273.445 74.3448C273.489 74.2117 273.779 74.2017 273.657 74.4714C273.6 74.4466 273.495 74.5888 273.445 74.3448ZM285.553 71.4065C285.492 71.1813 285.839 71.0342 285.925 71.3473C285.803 71.3848 285.677 71.3967 285.553 71.4065ZM270.821 75.3144C270.793 75.5821 270.744 75.304 270.673 75.1639C270.707 75.1902 270.799 75.1818 270.809 75.2971L270.825 75.3145L270.821 75.3144ZM269.17 75.9178C269.178 76.0436 269.103 76.144 269.06 76.16C268.919 76.1034 269.092 75.8264 269.17 75.9178ZM266.393 76.6962C266.426 76.8312 266.371 76.8959 266.319 76.7668C266.298 76.6662 266.36 76.5655 266.414 76.718C266.41 76.7136 266.406 76.7008 266.395 76.6984L266.393 76.6962ZM287.356 71.4394C287.365 71.8635 286.949 71.6277 286.801 71.786C286.734 71.3796 287.129 71.5852 287.245 71.4793C287.292 71.4677 287.328 71.4537 287.356 71.4394ZM276.378 74.3327C276.479 74.6823 276.031 74.5054 275.929 74.6158L275.894 74.4786C276.066 74.3933 276.152 74.274 276.37 74.3368L276.374 74.3326L276.378 74.3327ZM284.019 72.4727C283.988 72.6317 283.835 72.5321 283.764 72.5539C283.711 72.3545 284.006 72.2402 284.021 72.4749L284.019 72.4727ZM280.929 73.2585C280.855 73.0458 281.034 73.1119 281.072 73.0766C281.051 73.1294 281.035 73.2781 280.996 73.2857C280.971 73.2893 280.956 73.2655 280.927 73.2563L280.929 73.2585ZM276.476 74.1604C276.618 74.117 276.772 74.0781 276.92 74.0455L276.953 74.1847C276.803 74.2237 276.655 74.2606 276.509 74.2997L276.476 74.1604ZM277.976 73.9837L278.013 74.123C277.838 74.3105 277.721 73.9647 277.972 73.9878L277.976 73.9837ZM274.658 74.8279C274.68 74.8284 274.72 74.8315 274.739 74.8256C275.033 74.7283 274.752 75.3456 274.658 74.8279ZM273.137 75.3875C273.113 75.4146 273.084 75.4671 273.049 75.4706C272.835 75.5122 272.977 75.1152 273.137 75.3875Z" fill="white"/>
<path d="M279.953 65.7476L279.673 64.8164C279.673 64.8164 279.722 63.1561 279.315 62.5286L279.235 60.043C279.235 60.043 279.049 59.0182 278.8 58.7268C278.647 58.5442 278.475 58.4335 278.324 58.4192C278.018 58.3905 277.796 58.76 277.992 59.7467C277.976 59.7612 277.96 59.8013 277.935 59.8092C278.248 60.8414 277.953 61.8886 278.093 62.957C278.181 62.9357 278.252 62.9672 278.209 63.0003L278.098 62.9976C278.382 63.6924 278.064 64.1704 278.5 64.7901C278.5 64.7901 278.346 64.7246 278.348 64.7268C278.614 66.957 278.73 69.9994 279.119 72.4072L279.134 72.3927L279.151 72.3973C279.24 72.163 279.311 71.0763 279.309 71.0741C279.915 71.8322 279.437 72.7983 279.536 73.6527L279.393 73.6599C279.364 73.2886 279.272 72.9647 279.2 72.8373C279.121 74.1858 279.322 76.8596 279.654 78.1159C279.759 78.0737 279.487 77.7007 279.829 77.5705C279.862 77.8972 279.943 78.2187 279.963 78.5281C279.733 78.548 279.797 78.3621 279.751 78.3312C279.546 78.8843 280.235 89.745 280.984 87.0729L281.108 87.1291C281.101 86.458 281.095 85.8977 281.264 85.1839C281.238 85.0874 281.258 85.073 281.14 85.0851C281.117 85.0611 281.08 85.0218 281.033 85.0335C280.749 85.0671 280.842 84.8414 280.825 84.7452C281.731 84.7841 280.726 82.5765 280.733 82.27C281.155 82.1758 280.697 81.6727 280.859 81.4764C280.878 81.4875 280.978 81.5623 280.995 81.5713C281.253 81.3837 280.26 78.761 280.856 79.4826C281.476 76.2259 279.89 70.5578 280.369 67.057L280.319 67.0877C280.332 67.0582 280.3 66.9765 280.361 66.9524C280.16 66.628 279.953 65.7476 279.953 65.7476ZM280.136 73.6672C280.136 73.6672 280.158 73.6678 280.164 73.6658C280.119 73.6711 280.187 74.1094 280.176 74.1283L280.036 74.1377C279.722 73.7169 280.599 72.6028 280.265 73.615C280.303 73.6457 280.184 73.6556 280.136 73.6672ZM280.465 77.5881C280.459 77.6646 280.453 77.7497 280.451 77.8433C279.914 76.8654 280.349 75.4446 280.043 74.3466C280.711 74.6716 280.452 75.6089 280.459 76.0926C280.646 76.5636 280.523 77.1507 280.465 77.5881ZM280.935 84.1493L281.01 84.1447L281.013 84.1789C280.992 84.1826 280.971 84.1778 280.96 84.1712C280.943 84.1665 280.933 84.1556 280.937 84.1472L280.935 84.1493ZM279.664 66.3179C279.789 66.3826 279.745 66.6734 279.505 66.5036C279.538 66.4511 279.417 66.3204 279.664 66.3179ZM280.392 78.7557C280.627 78.7358 280.708 79.1041 280.381 79.1324C280.365 79.0064 280.377 78.8789 280.392 78.7557ZM279.18 63.5605C278.922 63.4818 279.203 63.4886 279.355 63.4433C279.324 63.4724 279.316 63.5638 279.201 63.5525L279.18 63.5605ZM278.878 61.83C278.755 61.8143 278.668 61.7227 278.658 61.6777C278.74 61.5498 278.982 61.7686 278.878 61.83ZM278.607 58.9564C278.469 58.9637 278.417 58.9007 278.552 58.8678C278.654 58.866 278.744 58.9427 278.583 58.9665C278.59 58.9645 278.603 58.9606 278.607 58.9522L278.607 58.9564ZM280.043 80.5237C279.623 80.4581 279.928 80.0885 279.8 79.915C280.209 79.9206 279.938 80.2741 280.02 80.4081C280.025 80.4572 280.029 80.4957 280.039 80.5236L280.043 80.5237ZM279.154 69.2045C278.791 69.2383 279.048 68.8313 278.955 68.7119L279.098 68.7004C279.153 68.885 279.255 68.9918 279.152 69.1938L279.152 69.2023L279.154 69.2045ZM279.62 77.0543C279.47 76.9931 279.595 76.862 279.588 76.7894C279.793 76.773 279.854 77.0812 279.62 77.0543ZM279.399 73.8709C279.619 73.8358 279.523 74.0017 279.55 74.0428C279.502 74.014 279.358 73.9679 279.357 73.9317C279.357 73.9061 279.383 73.8982 279.397 73.8687L279.399 73.8709ZM279.306 69.3296C279.324 69.4748 279.335 69.6349 279.34 69.7883L279.197 69.7955C279.184 69.6419 279.175 69.4883 279.163 69.3368L279.306 69.3296ZM279.212 70.8375L279.069 70.8489C278.917 70.645 279.278 70.5877 279.21 70.8311L279.212 70.8332L279.212 70.8375ZM278.973 67.4215C278.968 67.4427 278.959 67.4808 278.963 67.5022C279.004 67.8078 278.449 67.4216 278.973 67.4215ZM278.692 65.8257C278.667 65.7996 278.621 65.7601 278.627 65.7262C278.625 65.5067 278.989 65.7179 278.692 65.8257Z" fill="white"/>
</g>
<defs>
<clipPath id="clip0_3358_7616">
<rect width="39.0141" height="39.0141" fill="white" transform="translate(100 74)"/>
</clipPath>
<clipPath id="clip1_3358_7616">
<rect width="30.8862" height="30.8862" fill="white" transform="translate(26.9219 42.061) rotate(-150.647)"/>
</clipPath>
<clipPath id="clip2_3358_7616">
<rect width="28.1901" height="28.1901" fill="white" transform="translate(280.41 53) rotate(46.3857)"/>
</clipPath>
</defs>
</svg>
