<svg width="291" height="82" viewBox="0 0 291 82" fill="none" xmlns="http://www.w3.org/2000/svg">
<g clip-path="url(#clip0_3358_7615)">
<path d="M167.797 29.2782L168.434 30.466C168.434 30.466 168.826 32.729 169.551 33.4667L170.347 36.8134C170.347 36.8134 170.885 38.1512 171.298 38.4763C171.556 38.6805 171.819 38.7847 172.027 38.7597C172.452 38.7139 172.648 38.1512 172.11 36.8676C172.127 36.8467 172.135 36.7842 172.169 36.7676C171.46 35.4547 171.569 33.9543 171.081 32.5457C170.968 32.5998 170.864 32.579 170.91 32.5165L171.06 32.4873C170.485 31.6246 170.785 30.8869 170.022 30.1659C170.022 30.1659 170.247 30.2117 170.247 30.2076C169.272 27.2568 168.272 23.1599 167.076 20.005L167.059 20.0258H167.034C166.976 20.3675 167.184 21.8596 167.184 21.8596C166.155 20.9969 166.53 19.559 166.159 18.4254L166.351 18.3795C166.492 18.8755 166.709 19.2881 166.842 19.4423C166.576 17.5918 165.563 14.0243 164.763 12.4114C164.629 12.4989 165.104 12.9323 164.675 13.2032C164.542 12.7698 164.342 12.3572 164.229 11.9446C164.534 11.8529 164.5 12.1196 164.571 12.153C164.696 11.3444 160.753 -3.18844 160.478 0.641696L160.295 0.600019C160.491 1.50858 160.653 2.26294 160.624 3.27987C160.687 3.4049 160.662 3.42574 160.82 3.37989C160.853 3.40907 160.916 3.45074 160.978 3.4174C161.354 3.29237 161.291 3.62579 161.341 3.75082C160.103 3.95087 162.079 6.66406 162.154 7.08084C161.608 7.32673 162.366 7.88104 162.2 8.19362C162.175 8.18112 162.016 8.11026 161.987 8.1061C161.691 8.43118 163.762 11.7153 162.754 10.8985C162.816 15.4871 166.538 22.7307 166.855 27.6152L166.913 27.561C166.905 27.6027 166.967 27.7069 166.897 27.7569C167.259 28.1404 167.784 29.2782 167.784 29.2782H167.797ZM165.355 18.5879C165.355 18.5879 165.325 18.5879 165.317 18.5963C165.375 18.5754 165.163 18.0003 165.171 17.9753L165.363 17.9253C165.905 18.4087 165.021 20.1633 165.196 18.6963C165.138 18.6671 165.292 18.6171 165.355 18.5921V18.5879ZM163.821 13.3616C163.808 13.2532 163.792 13.1407 163.771 13.0115C164.771 14.1868 164.575 16.2332 165.292 17.6377C164.3 17.3793 164.388 16.0373 164.246 15.3871C163.862 14.7995 163.867 13.9701 163.825 13.3616H163.821ZM161.366 4.59687L161.266 4.62188L161.253 4.57603C161.279 4.5677 161.312 4.56353 161.329 4.57186C161.349 4.57186 161.37 4.58437 161.37 4.59687H161.366ZM168.026 28.4321C167.843 28.3779 167.818 27.9737 168.193 28.1362C168.159 28.2154 168.359 28.3613 168.026 28.4321ZM163.592 11.7695C163.279 11.8612 163.071 11.3861 163.5 11.2569C163.558 11.4236 163.575 11.5987 163.592 11.7695ZM169.447 32.0372C169.818 32.0705 169.435 32.1414 169.243 32.2456C169.281 32.1997 169.264 32.0747 169.422 32.0539L169.447 32.0372ZM170.335 34.3003C170.506 34.2878 170.648 34.3878 170.673 34.4461C170.598 34.642 170.21 34.4128 170.335 34.3003ZM171.498 38.1179C171.681 38.0679 171.773 38.1429 171.598 38.2221C171.46 38.2513 171.319 38.1721 171.527 38.0929C171.519 38.0929 171.502 38.1054 171.498 38.1179ZM163.583 9.26889C164.171 9.23972 163.858 9.82737 164.079 10.0274C163.521 10.1316 163.792 9.5773 163.642 9.41893C163.625 9.35225 163.604 9.30223 163.583 9.26889ZM167.922 24.3686C168.405 24.2185 168.168 24.8437 168.326 24.9812L168.134 25.0354C168.009 24.7978 167.843 24.6853 167.922 24.3811V24.3686ZM165.117 13.8534C165.338 13.8909 165.205 14.1076 165.234 14.2035C164.963 14.2827 164.792 13.8784 165.117 13.8534ZM166.296 18.1045C166.005 18.2128 166.092 17.9628 166.042 17.9128C166.117 17.9378 166.321 17.9586 166.334 18.0086C166.338 18.0461 166.309 18.0628 166.296 18.1045ZM167.68 24.2352C167.613 24.0435 167.559 23.8268 167.509 23.6225L167.701 23.5725C167.759 23.7768 167.818 23.981 167.872 24.181L167.68 24.231V24.2352ZM167.388 22.1638L167.576 22.1097C167.843 22.3431 167.368 22.5181 167.388 22.1722V22.1638ZM168.66 26.7275C168.66 26.6942 168.66 26.6441 168.651 26.615C168.51 26.2107 169.372 26.5816 168.66 26.7275ZM169.481 28.8155C169.522 28.8489 169.593 28.8864 169.597 28.9322C169.66 29.2281 169.105 29.0448 169.481 28.8155Z" fill="white"/>
<path d="M157.739 23.2141L156.555 23.8517C156.555 23.8517 154.292 24.2435 153.554 24.9687L150.208 25.7647C150.208 25.7647 148.87 26.3024 148.545 26.715C148.341 26.9734 148.236 27.2359 148.261 27.4443C148.307 27.8694 148.87 28.0653 150.154 27.5277C150.174 27.5444 150.237 27.5527 150.254 27.586C151.566 26.8775 153.067 26.9859 154.476 26.4983C154.421 26.3857 154.442 26.2815 154.505 26.3274L154.534 26.4774C155.397 25.9023 156.134 26.1982 156.855 25.4355C156.855 25.4355 156.809 25.6605 156.814 25.6605C159.764 24.6853 163.861 23.685 167.016 22.4889L166.995 22.4722V22.4472C166.654 22.3889 165.162 22.5973 165.162 22.5973C166.024 21.5678 167.462 21.9429 168.596 21.572L168.642 21.7637C168.146 21.9054 167.733 22.1221 167.579 22.2555C169.429 21.9888 172.997 20.976 174.61 20.1758C174.522 20.0466 174.089 20.5176 173.818 20.0883C174.251 19.9549 174.664 19.7549 175.077 19.6423C175.168 19.9466 174.902 19.9132 174.868 19.9841C175.677 20.1091 190.21 16.1665 186.38 15.8914L186.421 15.708C185.513 15.9039 184.758 16.0664 183.741 16.0373C183.616 16.0998 183.595 16.0748 183.641 16.2331C183.612 16.2665 183.57 16.329 183.604 16.3915C183.729 16.7666 183.395 16.7041 183.27 16.7541C183.07 15.5163 180.357 17.4918 179.94 17.5668C179.694 17.0208 179.14 17.7794 178.828 17.6127C178.84 17.5877 178.911 17.4293 178.915 17.4001C178.59 17.1042 175.306 19.1756 176.123 18.167C171.534 18.2295 164.291 21.9513 159.406 22.268L159.46 22.3264C159.418 22.318 159.314 22.3805 159.264 22.3097C158.881 22.6723 157.743 23.1974 157.743 23.1974L157.739 23.2141ZM168.429 20.7718C168.429 20.7718 168.429 20.7426 168.421 20.7343C168.442 20.7926 169.017 20.5801 169.042 20.5884L169.092 20.7801C168.608 21.3219 166.854 20.4384 168.321 20.6134C168.35 20.5551 168.4 20.7093 168.425 20.7718H168.429ZM173.655 19.2381C173.764 19.2256 173.876 19.2089 174.006 19.1881C172.83 20.1883 170.784 19.9924 169.379 20.7093C169.638 19.7174 170.98 19.8049 171.63 19.6632C172.218 19.2798 173.047 19.2839 173.655 19.2422V19.2381ZM182.42 16.7833L182.395 16.6833L182.441 16.6708C182.449 16.6958 182.454 16.7291 182.445 16.7458C182.445 16.7666 182.433 16.7874 182.42 16.7874V16.7833ZM158.585 23.4433C158.639 23.2599 159.043 23.2349 158.881 23.61C158.802 23.5767 158.656 23.7767 158.585 23.4433ZM175.248 19.0088C175.156 18.6963 175.631 18.4879 175.76 18.9172C175.593 18.9755 175.418 18.9922 175.248 19.0088ZM154.98 24.8645C154.947 25.2354 154.876 24.852 154.771 24.6603C154.817 24.6978 154.942 24.6811 154.963 24.8395L154.98 24.8645ZM152.717 25.7522C152.729 25.9231 152.629 26.0648 152.571 26.0898C152.375 26.0148 152.604 25.6272 152.717 25.7522ZM148.899 26.915C148.949 27.0984 148.874 27.1901 148.795 27.0151C148.766 26.8775 148.845 26.7358 148.924 26.9442C148.924 26.9359 148.912 26.9192 148.899 26.915ZM177.744 18.9963C177.773 19.584 177.186 19.2714 176.985 19.4923C176.881 18.9338 177.436 19.2047 177.594 19.0547C177.661 19.038 177.711 19.0172 177.744 18.9963ZM162.644 23.3349C162.794 23.8184 162.169 23.5808 162.032 23.7392L161.977 23.5475C162.215 23.4225 162.328 23.2558 162.632 23.3349H162.64H162.644ZM173.159 20.5301C173.122 20.751 172.905 20.6176 172.809 20.6468C172.73 20.3759 173.134 20.205 173.159 20.5301ZM168.908 21.7095C168.8 21.4178 169.05 21.5053 169.1 21.4553C169.075 21.5303 169.054 21.7345 169.004 21.747C168.967 21.7512 168.95 21.722 168.908 21.7095ZM162.778 23.0932C162.969 23.0265 163.186 22.9724 163.39 22.9223L163.44 23.1141C163.236 23.1724 163.032 23.2308 162.832 23.2849L162.782 23.0932H162.778ZM164.849 22.8015L164.903 22.989C164.67 23.2558 164.495 22.7806 164.841 22.8015H164.849ZM160.285 24.0726C160.319 24.0726 160.369 24.0726 160.398 24.0643C160.802 23.9226 160.431 24.7853 160.285 24.0726ZM158.197 24.8937C158.164 24.9354 158.126 25.0062 158.081 25.0104C157.785 25.0729 157.968 24.5186 158.197 24.8937Z" fill="white"/>
<path d="M161.969 27.7947L161.582 29.0825C161.582 29.0825 160.261 30.9621 160.256 31.9999L158.46 34.934C158.46 34.934 157.897 36.2593 157.96 36.7845C157.997 37.1095 158.114 37.3721 158.277 37.5013C158.61 37.7681 159.144 37.5055 159.673 36.2218C159.702 36.2218 159.752 36.1801 159.785 36.1926C160.211 34.7631 161.344 33.7754 161.994 32.4334C161.878 32.3917 161.815 32.3042 161.894 32.2917L162.019 32.3792C162.224 31.3623 162.949 31.0497 162.92 30.0036C162.92 30.0036 163.049 30.1953 163.049 30.1911C164.437 27.4112 166.62 23.802 168 20.7262H167.971L167.954 20.7137C167.671 20.9179 166.766 22.1224 166.766 22.1224C166.645 20.7846 167.929 20.0302 168.467 18.9674L168.638 19.0675C168.388 19.5176 168.25 19.9635 168.238 20.1636C169.354 18.6674 171.155 15.4207 171.726 13.7161C171.572 13.6869 171.601 14.3246 171.109 14.2162C171.322 13.8161 171.472 13.3827 171.68 13.0076C171.959 13.1576 171.747 13.3243 171.776 13.3952C172.434 12.9117 179.895 -0.170775 176.998 2.3507L176.898 2.19233C176.394 2.97586 175.977 3.62602 175.239 4.3262C175.198 4.45957 175.16 4.4554 175.306 4.53459C175.31 4.58043 175.323 4.65545 175.394 4.67212C175.748 4.84717 175.469 5.03888 175.414 5.16392C174.397 4.4304 173.881 7.74791 173.639 8.098C173.076 7.88961 173.226 8.81485 172.889 8.91904C172.876 8.89403 172.814 8.73149 172.801 8.70648C172.359 8.72732 171.513 12.5158 171.376 11.228C168.183 14.5246 165.708 22.2808 162.486 25.9692H162.565C162.528 25.9942 162.503 26.1151 162.415 26.0984C162.403 26.6277 161.969 27.7988 161.969 27.7988V27.7947ZM167.783 18.4965C167.783 18.4965 167.758 18.4756 167.75 18.4756C167.804 18.5048 168.062 17.9463 168.088 17.9338L168.258 18.0297C168.3 18.7549 166.437 19.3759 167.596 18.459C167.575 18.3965 167.721 18.4715 167.783 18.4965ZM170.388 13.7119C170.455 13.6286 170.526 13.5327 170.596 13.4285C170.476 14.9664 168.892 16.2792 168.408 17.7796C167.887 16.8961 168.896 16.0083 169.254 15.4457C169.396 14.758 169.988 14.1745 170.384 13.7119H170.388ZM174.835 5.76824L174.748 5.71406L174.773 5.67238C174.798 5.68488 174.823 5.70572 174.831 5.72239C174.848 5.73906 174.852 5.76407 174.839 5.76824H174.835ZM162.736 27.3571C162.644 27.1862 162.911 26.8861 163.065 27.2654C162.986 27.2987 163.028 27.5404 162.736 27.3571ZM171.351 12.4199C171.067 12.2657 171.251 11.7781 171.647 11.9907C171.568 12.149 171.459 12.2866 171.351 12.4199ZM161.202 30.9121C161.444 31.1955 161.119 30.9788 160.911 30.9163C160.969 30.908 161.048 30.8079 161.173 30.908H161.207L161.202 30.9121ZM160.231 33.1419C160.365 33.2544 160.394 33.4253 160.369 33.4836C160.177 33.5711 160.065 33.1335 160.231 33.1419ZM158.36 36.6678C158.527 36.7636 158.539 36.8803 158.36 36.8095C158.239 36.7345 158.197 36.5761 158.402 36.6678C158.393 36.6678 158.377 36.6594 158.364 36.6678H158.36ZM173.105 10.6445C173.539 11.0404 172.905 11.2321 172.922 11.5322C172.451 11.2113 173.035 11.0112 173.039 10.7945C173.072 10.7362 173.093 10.6862 173.105 10.6445ZM165.524 24.4063C165.97 24.6397 165.366 24.9189 165.378 25.1273L165.208 25.0315C165.287 24.7772 165.249 24.5772 165.52 24.4188V24.4105L165.524 24.4063ZM170.955 14.9747C171.084 15.1581 170.838 15.2165 170.792 15.3082C170.542 15.1706 170.709 14.7664 170.959 14.9747H170.955ZM168.792 18.8216C168.508 18.6924 168.746 18.5757 168.746 18.5048C168.779 18.5757 168.913 18.734 168.884 18.7799C168.863 18.8091 168.825 18.8007 168.788 18.8216H168.792ZM165.445 24.1437C165.537 23.9604 165.645 23.7687 165.754 23.5894L165.924 23.6895C165.82 23.877 165.716 24.0604 165.616 24.2438L165.445 24.1437ZM166.7 22.4725L166.875 22.5683C166.896 22.9226 166.437 22.71 166.7 22.4808V22.4725ZM164.378 26.6027C164.399 26.5819 164.441 26.5444 164.453 26.5194C164.637 26.1318 164.987 27.0028 164.378 26.6027ZM163.486 28.6616C163.491 28.7116 163.516 28.7908 163.486 28.8283C163.324 29.0825 163.061 28.5615 163.486 28.6616Z" fill="white"/>
<path d="M160.336 12.6281L159.136 12.0197C159.136 12.0197 157.519 10.3859 156.502 10.1942L153.935 7.90194C153.935 7.90194 152.73 7.11007 152.201 7.0809C151.872 7.06006 151.597 7.12674 151.438 7.26428C151.117 7.54352 151.276 8.11866 152.451 8.86469C152.451 8.89386 152.476 8.94804 152.459 8.98138C153.793 9.65239 154.56 10.9485 155.764 11.8279C155.827 11.7196 155.927 11.6779 155.918 11.7529L155.81 11.8613C156.777 12.2405 156.952 13.0157 157.99 13.1699C157.99 13.1699 157.777 13.2616 157.781 13.2616C160.27 15.1246 163.429 17.9128 166.213 19.8216V19.7925L166.234 19.78C166.084 19.4674 165.062 18.3588 165.058 18.3588C166.396 18.4755 166.909 19.8758 167.859 20.5927L167.73 20.7427C167.33 20.4176 166.917 20.2009 166.721 20.1509C167.997 21.5179 170.868 23.8685 172.443 24.7354C172.502 24.5895 171.868 24.5062 172.064 24.0394C172.423 24.3186 172.823 24.5437 173.152 24.8187C172.952 25.0688 172.827 24.8271 172.752 24.8438C173.11 25.5773 184.651 35.2547 182.688 31.9539L182.863 31.883C182.183 31.2495 181.617 30.7202 181.062 29.87C180.941 29.8033 180.946 29.77 180.846 29.8992C180.8 29.8992 180.725 29.8992 180.691 29.9576C180.454 30.2743 180.316 29.9659 180.204 29.8909C181.108 29.0198 177.937 27.9195 177.636 27.6195C177.945 27.1068 177.003 27.086 176.961 26.7359C176.99 26.7276 177.161 26.6984 177.186 26.6901C177.245 26.2524 173.669 24.7437 174.961 24.8354C172.289 21.1053 165.096 17.2835 162.045 13.4617L162.028 13.5409C162.012 13.4992 161.899 13.4534 161.932 13.37C161.416 13.2616 160.336 12.6281 160.336 12.6281ZM168.447 20.005C168.447 20.005 168.467 19.9842 168.472 19.9758C168.434 20.0259 168.938 20.3759 168.947 20.4051L168.822 20.5552C168.101 20.4676 167.821 18.5255 168.517 19.8258C168.584 19.8175 168.48 19.9467 168.447 20.005ZM172.689 23.4184C172.76 23.4976 172.839 23.5851 172.931 23.6768C171.439 23.2809 170.43 21.4887 169.038 20.7469C170.001 20.3885 170.693 21.5429 171.185 21.9972C171.835 22.2598 172.306 22.9433 172.689 23.4184ZM179.712 29.2115L179.779 29.1323L179.816 29.1615C179.8 29.1865 179.775 29.2032 179.758 29.2074C179.737 29.2199 179.716 29.2199 179.712 29.2074V29.2115ZM160.632 13.4617C160.816 13.3992 161.066 13.7201 160.665 13.7993C160.645 13.7159 160.399 13.7118 160.632 13.4617ZM173.79 24.6062C173.994 24.352 174.44 24.6229 174.156 24.9771C174.015 24.8729 173.898 24.7396 173.79 24.6062ZM157.406 11.3153C157.081 11.4987 157.356 11.2236 157.456 11.0277C157.456 11.0861 157.54 11.1819 157.419 11.2861L157.406 11.3153ZM155.385 9.96497C155.252 10.0733 155.077 10.0733 155.022 10.04C154.972 9.83577 155.422 9.80242 155.385 9.96497ZM152.247 7.4935C152.122 7.63937 152.009 7.63104 152.105 7.46433C152.201 7.36014 152.363 7.34346 152.234 7.52684C152.238 7.51851 152.247 7.50184 152.243 7.48934L152.247 7.4935ZM175.228 26.6442C174.761 27.0026 174.682 26.3441 174.386 26.3066C174.782 25.9024 174.877 26.5108 175.09 26.5567C175.144 26.5984 175.186 26.6317 175.223 26.6484L175.228 26.6442ZM163.037 16.7292C162.724 17.1251 162.562 16.4791 162.353 16.4583L162.478 16.3041C162.716 16.4249 162.92 16.4249 163.024 16.7209L163.033 16.7292H163.037ZM171.347 23.756C171.143 23.8477 171.131 23.5976 171.051 23.5351C171.231 23.3142 171.597 23.5476 171.347 23.756ZM167.947 20.9386C168.122 20.6844 168.197 20.9386 168.263 20.9511C168.188 20.9719 168.005 21.072 167.967 21.0386C167.942 21.0136 167.959 20.9803 167.942 20.9386H167.947ZM163.308 16.6958C163.47 16.8167 163.641 16.9584 163.8 17.1001L163.67 17.2502C163.504 17.1168 163.341 16.9792 163.179 16.8459L163.308 16.6958ZM164.729 18.2296L164.604 18.3838C164.254 18.3421 164.541 17.9253 164.721 18.2254H164.725L164.729 18.2296ZM161.078 15.208C161.095 15.233 161.124 15.2788 161.149 15.2955C161.495 15.5456 160.578 15.7331 161.078 15.208ZM159.211 13.966C159.161 13.966 159.078 13.9743 159.048 13.9368C158.828 13.7284 159.386 13.5659 159.211 13.966Z" fill="white"/>
</g>
<g clip-path="url(#clip1_3358_7615)">
<path d="M24.6247 45.115L24.6456 44.0479C24.6456 44.0479 25.2535 42.3343 25.0394 41.5438L25.7888 38.9256C25.7888 38.9256 25.937 37.7938 25.7785 37.4094C25.6794 37.1682 25.5387 36.9944 25.3852 36.9308C25.074 36.7974 24.7205 37.1097 24.5934 38.2041C24.5738 38.212 24.5438 38.2519 24.5143 38.2504C24.4937 39.4313 23.8367 40.4245 23.6265 41.5858C23.7252 41.5921 23.789 41.6469 23.7331 41.6723L23.6183 41.6342C23.6803 42.4527 23.187 42.8452 23.4335 43.6387C23.4335 43.6387 23.296 43.5198 23.2944 43.5226C22.8222 45.9372 21.9226 49.1523 21.5236 51.7935L21.5432 51.7856L21.5605 51.7953C21.7334 51.5822 22.1686 50.4717 22.1686 50.4717C22.5441 51.4665 21.7273 52.3131 21.5433 53.2393L21.3933 53.1966C21.488 52.7993 21.4985 52.4305 21.4663 52.2724C20.9323 53.6528 20.2467 56.5075 20.1729 57.931C20.2989 57.9224 20.1393 57.4389 20.5406 57.4185C20.4644 57.7694 20.4424 58.1317 20.3599 58.4601C20.1144 58.4053 20.2409 58.2342 20.2049 58.1837C19.8049 58.6931 16.8858 70.2512 18.5619 67.7151L18.6723 67.815C18.8897 67.112 19.0703 66.5284 19.4851 65.838C19.4904 65.7275 19.5158 65.7228 19.3887 65.693C19.377 65.6599 19.3501 65.6069 19.294 65.6056C18.9866 65.5464 19.1592 65.3406 19.1732 65.2349C20.1049 65.5772 19.7947 62.9384 19.9046 62.6217C20.3768 62.6639 20.0685 61.987 20.3048 61.836C20.3172 61.8544 20.399 61.9647 20.4175 61.9789C20.7479 61.8694 20.593 58.7994 20.972 59.7545C22.7096 56.5639 22.9524 50.1214 24.6293 46.6279L24.568 46.6427C24.59 46.6172 24.5873 46.521 24.6556 46.514C24.5542 46.1087 24.6333 45.1198 24.6333 45.1198L24.6247 45.115ZM22.1615 53.4393C22.1615 53.4393 22.1816 53.4506 22.1906 53.4481C22.1422 53.4398 22.0657 53.9192 22.0503 53.9332L21.8986 53.8933C21.7123 53.3495 23.0029 52.4816 22.3128 53.426C22.3417 53.4688 22.2159 53.4434 22.1631 53.4364L22.1615 53.4393ZM21.1916 57.6408C21.1582 57.7204 21.126 57.8046 21.0903 57.9018C20.8562 56.7026 21.7855 55.3666 21.8358 54.1193C22.42 54.6825 21.8388 55.5746 21.6843 56.0782C21.7209 56.6325 21.3961 57.2031 21.1888 57.6392L21.1916 57.6408ZM19.4842 64.6414L19.563 64.6629L19.5538 64.6994C19.5333 64.6955 19.5087 64.6854 19.5004 64.6732C19.486 64.6651 19.4765 64.6484 19.4814 64.6397L19.4842 64.6414ZM24.1382 45.6098C24.2437 45.7184 24.1041 46.007 23.9083 45.7493C23.9621 45.7076 23.8806 45.5293 24.1382 45.6098ZM20.732 58.8283C20.9832 58.8864 20.9427 59.2951 20.5963 59.2177C20.6207 59.08 20.6772 58.9527 20.732 58.8283ZM24.5565 42.5707C24.3135 42.4037 24.6056 42.5036 24.7783 42.5061C24.7347 42.5232 24.6976 42.6159 24.5803 42.5689L24.5565 42.5707ZM24.8222 40.6646C24.6994 40.6069 24.6405 40.4829 24.6459 40.4329C24.7736 40.3269 24.9521 40.6355 24.8222 40.6646ZM25.5013 37.5791C25.3554 37.5424 25.3212 37.4551 25.4727 37.4683C25.579 37.5016 25.646 37.6112 25.4715 37.585C25.4772 37.5882 25.4936 37.5861 25.5013 37.5791ZM19.7673 60.5571C19.3505 60.3492 19.7942 60.065 19.7195 59.8412C20.1452 59.9861 19.7432 60.2634 19.7853 60.4309C19.7709 60.4834 19.7659 60.526 19.7673 60.5571ZM22.6332 48.4542C22.2414 48.3701 22.6479 48.0309 22.592 47.8746L22.7453 47.9116C22.7394 48.124 22.8108 48.2664 22.638 48.4456L22.6332 48.4542ZM20.4881 56.7985C20.3502 56.6869 20.5264 56.5891 20.5434 56.5116C20.7611 56.5621 20.7221 56.9074 20.4881 56.7985ZM21.3239 53.4074C21.5673 53.4458 21.4098 53.5844 21.4249 53.6383C21.3829 53.592 21.25 53.4983 21.2608 53.459C21.2725 53.4315 21.2991 53.4313 21.3239 53.4074ZM22.7482 48.64C22.7199 48.7982 22.6731 48.9688 22.6284 49.1291L22.4767 49.0892C22.5157 48.9256 22.5547 48.7621 22.5949 48.603L22.7466 48.6429L22.7482 48.64ZM22.1457 50.1826L21.9953 50.1472C21.9018 49.8826 22.2976 49.9462 22.149 50.1768L22.1457 50.1826ZM23.0396 46.5402C23.0266 46.5632 23.0072 46.5977 23.0017 46.6211C22.9426 46.955 22.4912 46.3643 23.0396 46.5402ZM23.2833 44.7808C23.2675 44.7416 23.2332 44.6882 23.2481 44.655C23.3198 44.4265 23.6311 44.7682 23.2833 44.7808Z" fill="white"/>
<path d="M29.2105 53.2014L30.2746 53.2207C30.2746 53.2207 31.9883 53.8286 32.7787 53.6144L35.3969 54.3639C35.3969 54.3639 36.5287 54.5121 36.9132 54.3535C37.1544 54.2545 37.3282 54.1137 37.3918 53.9602C37.5251 53.6491 37.2129 53.2956 36.1185 53.1684C36.1106 53.1488 36.0707 53.1188 36.0721 53.0893C34.8912 53.0688 33.898 52.4118 32.7367 52.2016C32.7304 52.3002 32.6756 52.3641 32.6503 52.3082L32.6884 52.1933C31.8699 52.2554 31.4757 51.7649 30.6822 52.0114C30.6822 52.0114 30.8012 51.8739 30.7983 51.8723C28.3837 51.4002 25.1686 50.5005 22.5274 50.1016L22.5353 50.1212L22.5256 50.1384C22.7388 50.3113 23.8492 50.7465 23.8492 50.7465C22.8544 51.1221 22.0078 50.3052 21.0816 50.1213L21.1244 49.9712C21.5216 50.0659 21.8904 50.0765 22.0486 50.0443C20.6682 49.5102 17.8134 48.8246 16.3899 48.7509C16.4002 48.874 16.882 48.7172 16.9024 49.1186C16.5515 49.0424 16.1892 49.0203 15.8608 48.9378C15.9156 48.6923 16.0867 48.8188 16.1372 48.7829C15.6278 48.3828 4.06969 45.4637 6.60587 47.1399L6.50594 47.2502C7.20889 47.4676 7.7925 47.6482 8.48289 48.063C8.59343 48.0684 8.5981 48.0937 8.62793 47.9666C8.661 47.955 8.71402 47.928 8.71527 47.8719C8.77455 47.5646 8.98036 47.7371 9.08605 47.7511C8.74374 48.6829 11.3825 48.3726 11.6992 48.4826C11.657 48.9547 12.3339 48.6464 12.4849 48.8828C12.4666 48.8952 12.3562 48.977 12.342 48.9955C12.4515 49.3258 15.5215 49.171 14.5664 49.5499C17.757 51.2875 24.1995 51.5303 27.693 53.2073L27.6782 53.146C27.7038 53.1679 27.7999 53.1652 27.8069 53.2335C28.2122 53.1321 29.2011 53.2113 29.2011 53.2113L29.2105 53.2014ZM20.8861 50.7381C20.8861 50.7381 20.8748 50.7583 20.8773 50.7673C20.8856 50.7189 20.4062 50.6424 20.3922 50.6269L20.4321 50.4752C20.9759 50.289 21.8438 51.5796 20.8994 50.8895C20.8566 50.9184 20.882 50.7926 20.889 50.7398L20.8861 50.7381ZM16.6846 49.7683C16.605 49.7349 16.5209 49.7027 16.4236 49.667C17.6228 49.4328 18.9588 50.3621 20.2062 50.4125C19.6429 50.9967 18.7509 50.4155 18.2472 50.261C17.6929 50.2975 17.1223 49.9728 16.6862 49.7654L16.6846 49.7683ZM9.68404 48.0609L9.66248 48.1396L9.626 48.1305C9.62995 48.11 9.64001 48.0854 9.65223 48.0771C9.66032 48.0627 9.67703 48.0532 9.68566 48.058L9.68404 48.0609ZM28.7156 52.7149C28.6071 52.8204 28.3184 52.6808 28.5761 52.485C28.6178 52.5387 28.7961 52.4573 28.7156 52.7149ZM15.4971 49.3087C15.439 49.5599 15.0303 49.5193 15.1077 49.173C15.2454 49.1974 15.3727 49.2538 15.4971 49.3087ZM31.7547 53.1332C31.9217 52.8902 31.8218 53.1823 31.8193 53.355C31.8022 53.3113 31.7095 53.2743 31.7565 53.1569L31.7547 53.1332ZM33.6608 53.3989C33.7185 53.2761 33.8425 53.2171 33.8925 53.2225C33.9985 53.3503 33.69 53.5288 33.6608 53.3989ZM36.7464 54.078C36.783 53.9321 36.8704 53.8979 36.8571 54.0494C36.8238 54.1556 36.7142 54.2227 36.7404 54.0482C36.7372 54.0539 36.7393 54.0703 36.7464 54.078ZM13.7696 48.3485C13.9775 47.9317 14.2617 48.3754 14.4854 48.3006C14.3406 48.7264 14.0632 48.3244 13.8957 48.3665C13.8433 48.3521 13.8007 48.347 13.7696 48.3485ZM25.8725 51.2144C25.9565 50.8225 26.2957 51.2291 26.4521 51.1732L26.4151 51.3265C26.2026 51.3206 26.0603 51.3919 25.8811 51.2192L25.8753 51.216L25.8725 51.2144ZM17.5282 49.0693C17.6398 48.9314 17.7376 49.1075 17.8151 49.1246C17.7646 49.3422 17.4193 49.3033 17.5282 49.0693ZM20.9193 49.9051C20.8808 50.1484 20.7423 49.991 20.6883 50.0061C20.7347 49.964 20.8283 49.8312 20.8677 49.842C20.8952 49.8537 20.8954 49.8803 20.9193 49.9051ZM25.6866 51.3294C25.5285 51.301 25.3579 51.2543 25.1976 51.2096L25.2375 51.0579C25.401 51.0969 25.5646 51.1358 25.7236 51.1761L25.6838 51.3278L25.6866 51.3294ZM24.1441 50.7269L24.1795 50.5765C24.4441 50.483 24.3805 50.8787 24.1499 50.7301L24.1441 50.7269ZM27.7865 51.6207C27.7635 51.6078 27.729 51.5884 27.7056 51.5828C27.3716 51.5237 27.9624 51.0724 27.7865 51.6207ZM29.5459 51.8645C29.5851 51.8487 29.6385 51.8143 29.6717 51.8293C29.9002 51.9009 29.5585 52.2123 29.5459 51.8645Z" fill="white"/>
<path d="M28.0689 48.4L28.8361 47.6617C28.8361 47.6617 30.4772 46.8774 30.8828 46.1629L33.2609 44.8354C33.2609 44.8354 34.1635 44.1392 34.3241 43.7526C34.4244 43.5137 34.4457 43.2873 34.3837 43.135C34.2572 42.8216 33.7872 42.7958 32.9238 43.4761C32.9037 43.4648 32.853 43.4742 32.8348 43.4526C31.9867 44.274 30.8212 44.5157 29.8518 45.1894C29.9161 45.2635 29.9253 45.3481 29.8658 45.326L29.8135 45.2171C29.2779 45.8396 28.6562 45.7738 28.2704 46.507C28.2704 46.507 28.2557 46.3246 28.254 46.3274C26.2176 47.7071 23.31 49.3501 21.1645 50.9371L21.1847 50.9484L21.1913 50.9635C21.4661 50.9326 22.5576 50.4524 22.5576 50.4524C22.1218 51.4225 20.9433 51.4449 20.1599 51.9696L20.0808 51.8343C20.428 51.6207 20.696 51.3664 20.7823 51.2332C19.4309 51.8322 16.9286 53.3738 15.8731 54.3284C15.9682 54.4084 16.1955 53.9571 16.4928 54.2227C16.1909 54.4163 15.9192 54.6571 15.6298 54.8351C15.4954 54.6232 15.7067 54.5907 15.7141 54.5304C15.0721 54.6085 4.84746 60.7408 7.82467 60.1249L7.83223 60.273C8.48428 59.9281 9.02417 59.6412 9.80491 59.4443C9.88542 59.3684 9.90969 59.3859 9.83976 59.2746C9.85468 59.2414 9.87516 59.1848 9.83274 59.1458C9.65622 58.8875 9.9233 58.8636 10.0092 58.7983C10.4263 59.6991 12.0703 57.6105 12.3729 57.4627C12.6803 57.8248 12.9358 57.1282 13.2092 57.1873C13.2081 57.2094 13.1882 57.3458 13.1871 57.3679C13.5 57.525 15.554 55.2391 15.1492 56.1812C18.6314 55.1452 23.3495 50.754 27.0039 49.459L26.9493 49.4283C26.9849 49.4256 27.049 49.3519 27.1029 49.3974C27.317 49.037 28.0705 48.3971 28.0705 48.3971L28.0689 48.4ZM20.4488 52.5598C20.4488 52.5598 20.458 52.5839 20.4637 52.5871C20.4376 52.546 20.0426 52.8311 20.0205 52.83L19.9398 52.6975C20.1925 52.181 21.719 52.4754 20.5636 52.6585C20.5538 52.7097 20.4822 52.6013 20.4488 52.5598ZM16.7947 54.8505C16.7163 54.8821 16.6302 54.9207 16.5409 54.9651C17.2211 53.9509 18.8234 53.6596 19.7392 52.8119C19.7558 53.6237 18.7154 53.8449 18.2497 54.094C17.8851 54.5135 17.2503 54.6865 16.7975 54.8521L16.7947 54.8505ZM10.6435 58.6061L10.6828 58.6775L10.6494 58.6965C10.637 58.6782 10.6278 58.6541 10.6286 58.6394C10.6235 58.6214 10.6303 58.6025 10.6406 58.6045L10.6435 58.6061ZM27.3699 48.4043C27.3669 48.5578 27.0664 48.6614 27.1072 48.3398C27.1747 48.3476 27.2398 48.1646 27.3699 48.4043ZM15.629 55.3684C15.7647 55.5848 15.4489 55.8501 15.2582 55.5497C15.3743 55.4712 15.5024 55.4183 15.629 55.3684ZM29.8078 46.5464C29.751 46.257 29.8912 46.5327 30.0108 46.6567C29.9673 46.6399 29.8738 46.6781 29.8264 46.5606L29.8034 46.5477L29.8078 46.5464ZM31.3432 45.3847C31.2948 45.2553 31.341 45.126 31.3809 45.0955C31.5472 45.1095 31.455 45.4551 31.3432 45.3847ZM34.0027 43.6779C33.9249 43.547 33.9616 43.4617 34.0577 43.5801C34.112 43.6788 34.0793 43.8042 33.974 43.6617C33.9797 43.6649 33.988 43.6772 33.9999 43.6763L34.0027 43.6779ZM13.7292 55.9126C13.5838 55.4712 14.0953 55.5847 14.2003 55.3712C14.4007 55.7754 13.9205 55.687 13.8335 55.8349C13.7878 55.8622 13.754 55.8887 13.7292 55.9126ZM24.3009 49.3584C24.0838 49.0243 24.6091 49.0662 24.6814 48.9175L24.7621 49.05C24.6088 49.1947 24.557 49.3473 24.3086 49.3514L24.3054 49.3572L24.3009 49.3584ZM16.8936 53.7591C16.8756 53.5824 17.0679 53.6376 17.1352 53.5921C17.2543 53.7841 16.9824 53.9983 16.8907 53.7575L16.8936 53.7591ZM19.879 51.9441C20.0244 52.1432 19.8152 52.1316 19.7877 52.1804C19.7922 52.1186 19.7616 51.9576 19.7995 51.9373C19.8252 51.9252 19.8479 51.9455 19.8819 51.9457L19.879 51.9441ZM24.2537 49.5703C24.1192 49.6613 23.97 49.7515 23.8257 49.8332L23.7466 49.6978C23.8913 49.6088 24.0344 49.5227 24.1746 49.435L24.2537 49.5703ZM22.7395 50.2367L22.6559 50.1027C22.779 49.8501 23.0128 50.1747 22.7427 50.231L22.7395 50.2367ZM25.9441 48.2876C25.9216 48.2939 25.8783 48.3036 25.86 48.316C25.583 48.5123 25.6795 47.7754 25.9441 48.2876ZM27.3585 47.2131C27.375 47.1769 27.3885 47.1126 27.4232 47.098C27.634 46.9857 27.613 47.4471 27.3585 47.2131Z" fill="white"/>
<path d="M23.3105 59.4987L23.9026 60.3843C23.9026 60.3843 24.3844 62.1392 25.0118 62.6661L25.8937 65.2441C25.8937 65.2441 26.4176 66.258 26.7715 66.4835C26.9906 66.6256 27.2063 66.6864 27.3689 66.6529C27.6987 66.5848 27.8126 66.1264 27.2912 65.1556C27.3025 65.1354 27.3063 65.0884 27.3307 65.0718C26.6708 64.0913 26.6446 62.8993 26.1548 61.8251C26.0696 61.8756 25.9844 61.8655 26.0193 61.817L26.1361 61.7843C25.6161 61.1473 25.7961 60.5445 25.1399 60.0354C25.1399 60.0354 25.3221 60.0546 25.3192 60.053C24.3253 57.8019 23.2274 54.652 22.0471 52.2545L22.0357 52.2746L22.0165 52.2751C21.9987 52.5491 22.2731 53.7103 22.276 53.7119C21.3981 53.1122 21.5878 51.947 21.2103 51.0836L21.3577 51.0302C21.5076 51.4098 21.7082 51.7194 21.824 51.83C21.4745 50.3918 20.4052 47.6554 19.6545 46.4459C19.5576 46.5239 19.9624 46.8273 19.6461 47.0733C19.5072 46.7416 19.3184 46.431 19.198 46.1134C19.433 46.0185 19.4255 46.2338 19.4837 46.2514C19.5211 45.6062 15.3133 34.45 15.3869 37.4895L15.2386 37.4704C15.4615 38.1712 15.6472 38.7564 15.6998 39.5582C15.7573 39.6511 15.7415 39.6725 15.8607 39.6221C15.8923 39.6399 15.9441 39.669 15.9897 39.6417C16.2766 39.5153 16.2518 39.7815 16.3003 39.877C15.3382 40.1271 17.0998 42.1171 17.1904 42.4406C16.7786 42.6746 17.4205 43.0545 17.3134 43.3123C17.29 43.3067 17.1608 43.2605 17.1403 43.2566C16.9302 43.5359 18.8122 45.9646 17.9563 45.4C18.3522 49.0106 21.8328 54.4393 22.4549 58.2604L22.4971 58.2122C22.4924 58.2474 22.5523 58.3227 22.4969 58.3673C22.8115 58.6426 23.3105 59.4987 23.3105 59.4987ZM20.5768 51.261C20.5768 51.261 20.5543 51.2673 20.5482 51.2715C20.5935 51.2515 20.3814 50.8142 20.3869 50.7909L20.5314 50.7359C20.995 51.0761 20.434 52.5246 20.4583 51.3572C20.4091 51.3371 20.5311 51.2884 20.5768 51.261ZM18.9738 47.2592C18.9556 47.1771 18.9349 47.086 18.9072 46.9871C19.7831 47.8394 19.7836 49.4674 20.4563 50.5195C19.6529 50.3932 19.6235 49.3281 19.4604 48.8238C19.1137 48.3903 19.054 47.7359 18.9738 47.2592ZM16.376 40.5366L16.2993 40.5653L16.2847 40.5307C16.3059 40.5199 16.3297 40.5181 16.3428 40.5217C16.362 40.5211 16.3764 40.5292 16.3744 40.5395L16.376 40.5366ZM23.4298 58.8087C23.279 58.7806 23.231 58.4621 23.5378 58.5628C23.5198 58.6284 23.6879 58.7267 23.4298 58.8087ZM18.6755 46.0126C18.4359 46.1088 18.2333 45.7488 18.5663 45.6144C18.6237 45.7413 18.6525 45.8786 18.6755 46.0126ZM24.8228 61.5415C25.1182 61.5412 24.8217 61.6242 24.6767 61.7206C24.6993 61.6803 24.679 61.5818 24.8028 61.5568L24.8228 61.5415ZM25.6935 63.2577C25.8276 63.2347 25.9484 63.3026 25.9728 63.3467C25.9281 63.507 25.6046 63.3553 25.6935 63.2577ZM26.9 66.181C27.0429 66.1288 27.1173 66.1783 26.9864 66.2561C26.8799 66.2908 26.7612 66.2392 26.9215 66.1628C26.9154 66.167 26.9032 66.1752 26.9012 66.1855L26.9 66.181ZM18.4742 44.0484C18.9354 43.9822 18.7345 44.4673 18.9241 44.608C18.494 44.7333 18.664 44.2763 18.5351 44.1621C18.5139 44.1123 18.4981 44.0732 18.4787 44.0471L18.4742 44.0484ZM23.0384 55.6208C23.4077 55.4689 23.2692 55.9777 23.4049 56.0729L23.2588 56.1308C23.1418 55.9552 23.0009 55.876 23.0438 55.6314L23.0413 55.6224L23.0384 55.6208ZM20.0308 47.5471C20.2073 47.5631 20.1189 47.7405 20.1493 47.8143C19.9399 47.8972 19.7774 47.5938 20.0308 47.5471ZM21.2842 50.8109C21.0647 50.9184 21.1116 50.7139 21.0704 50.6794C21.1303 50.6941 21.2957 50.6963 21.3086 50.7338C21.3161 50.7608 21.2917 50.7773 21.287 50.8125L21.2842 50.8109ZM22.8385 55.5387C22.7733 55.3922 22.7104 55.2281 22.6561 55.0688L22.8034 55.0155C22.8667 55.1722 22.9255 55.3302 22.9859 55.4853L22.8385 55.5387ZM22.4531 53.9288L22.5992 53.8709C22.8246 54.0355 22.4644 54.2115 22.4572 53.9349L22.4543 53.9333L22.4531 53.9288ZM23.7997 57.4306C23.7979 57.4069 23.7956 57.3639 23.7848 57.3427C23.6431 57.0359 24.3486 57.2623 23.7997 57.4306ZM24.6061 59.0122C24.6407 59.0316 24.7014 59.0582 24.707 59.0954C24.7785 59.3249 24.3301 59.2203 24.6061 59.0122Z" fill="white"/>
</g>
<g clip-path="url(#clip2_3358_7615)">
<path d="M265.962 66.9496L265.658 67.8752C265.658 67.8752 264.67 69.2081 264.645 69.9551L263.291 72.0396C263.291 72.0396 262.859 72.9877 262.895 73.3656C262.917 73.6025 262.993 73.7918 263.11 73.8884C263.346 74.0879 263.738 73.91 264.141 72.9889C264.161 72.9872 264.198 72.9604 264.223 72.9696C264.557 71.9446 265.395 71.2534 265.889 70.2962C265.805 70.2644 265.764 70.1995 265.819 70.1923L265.909 70.2562C266.074 69.5254 266.61 69.3147 266.607 68.5563C266.607 68.5563 266.695 68.6969 266.697 68.6948C267.755 66.7139 269.399 64.1486 270.454 61.9504L270.434 61.9521L270.422 61.939C270.214 62.0788 269.537 62.9315 269.537 62.9315C269.476 61.9629 270.415 61.4425 270.823 60.6834L270.942 60.7609C270.754 61.0822 270.646 61.4012 270.632 61.5479C271.467 60.486 272.828 58.178 273.273 56.9555C273.161 56.9294 273.171 57.394 272.815 57.3044C272.976 57.0186 273.092 56.7083 273.251 56.4438C273.451 56.5572 273.295 56.6727 273.313 56.7264C273.798 56.3888 279.436 47.0828 277.295 48.8479L277.225 48.7312C276.848 49.2865 276.534 49.7475 275.987 50.2391C275.953 50.3342 275.93 50.3315 276.033 50.3915C276.034 50.4234 276.043 50.4769 276.092 50.493C276.344 50.6269 276.139 50.7604 276.098 50.8489C275.377 50.301 274.942 52.6868 274.761 52.9338C274.361 52.7707 274.449 53.4438 274.202 53.5124C274.196 53.4931 274.154 53.3749 274.142 53.3576C273.824 53.3648 273.139 56.0853 273.063 55.1506C270.694 57.4704 268.76 63.0277 266.362 65.628L266.42 65.6315C266.394 65.6479 266.37 65.7325 266.309 65.7204C266.289 66.1012 265.956 66.943 265.956 66.943L265.962 66.9496ZM270.337 60.3437C270.337 60.3437 270.322 60.3284 270.314 60.3282C270.354 60.3483 270.549 59.9505 270.566 59.9424L270.688 60.0177C270.705 60.5421 269.347 60.9544 270.201 60.3148C270.187 60.2697 270.29 60.3255 270.335 60.3457L270.337 60.3437ZM272.307 56.9364C272.357 56.8758 272.408 56.811 272.465 56.7357C272.348 57.8448 271.18 58.7623 270.803 59.8373C270.444 59.1896 271.189 58.5665 271.459 58.1683C271.575 57.6749 272.011 57.2637 272.309 56.9386L272.307 56.9364ZM275.668 51.2836L275.605 51.2438L275.623 51.2144C275.64 51.2233 275.659 51.2387 275.663 51.2516C275.673 51.2625 275.677 51.2796 275.67 51.2858L275.668 51.2836ZM266.519 66.6478C266.456 66.5248 266.655 66.3103 266.757 66.5875C266.698 66.6095 266.722 66.7869 266.519 66.6478ZM273.025 56.0229C272.821 55.9051 272.966 55.5593 273.248 55.7195C273.189 55.8331 273.106 55.9291 273.025 56.0229ZM265.341 69.1881C265.508 69.3988 265.28 69.2335 265.13 69.1851C265.173 69.1819 265.23 69.1109 265.32 69.1833L265.341 69.1881ZM264.6 70.7805C264.691 70.8636 264.71 70.9876 264.692 71.0298C264.552 71.0882 264.478 70.7712 264.6 70.7805ZM263.182 73.2916C263.3 73.3626 263.306 73.448 263.177 73.3958C263.094 73.3384 263.064 73.2248 263.21 73.2944C263.205 73.29 263.191 73.2875 263.182 73.2916ZM274.329 54.7722C274.637 55.0651 274.174 55.1945 274.18 55.4097C273.847 55.1695 274.272 55.0349 274.28 54.8775C274.306 54.8356 274.322 54.7997 274.329 54.7722ZM268.592 64.5679C268.912 64.746 268.466 64.9334 268.473 65.0848L268.35 65.0115C268.412 64.8277 268.387 64.6844 268.586 64.5741L268.592 64.5679ZM272.695 57.8596C272.786 57.9938 272.606 58.0321 272.57 58.0951C272.394 57.9929 272.52 57.702 272.695 57.8596ZM271.059 60.5954C270.857 60.4968 271.032 60.418 271.033 60.3669C271.057 60.4186 271.148 60.5358 271.128 60.5673C271.111 60.5882 271.087 60.5812 271.059 60.5954ZM268.542 64.375C268.609 64.2445 268.695 64.1082 268.777 63.9802L268.899 64.0556C268.821 64.1879 268.743 64.3202 268.666 64.4483L268.544 64.3729L268.542 64.375ZM269.48 63.19L269.602 63.2611C269.613 63.5169 269.284 63.3556 269.476 63.1941L269.48 63.19ZM267.726 66.1296C267.744 66.113 267.77 66.088 267.781 66.0691C267.922 65.7935 268.158 66.4297 267.726 66.1296ZM267.043 67.5998C267.046 67.6382 267.062 67.694 267.04 67.719C266.916 67.8992 266.736 67.5178 267.043 67.5998Z" fill="white"/>
<path d="M264.121 58.6659L263.198 58.3646C263.198 58.3646 261.865 57.3759 261.118 57.3515L259.033 55.9975C259.033 55.9975 258.085 55.5656 257.707 55.6011C257.47 55.6231 257.281 55.6995 257.184 55.8164C256.985 56.0523 257.163 56.4443 258.084 56.8478C258.086 56.867 258.112 56.9039 258.103 56.9292C259.128 57.2629 259.819 58.1018 260.777 58.5957C260.808 58.5112 260.873 58.4702 260.881 58.5258L260.817 58.6158C261.547 58.7805 261.76 59.3139 262.519 59.3109C262.519 59.3109 262.378 59.3991 262.38 59.4013C264.361 60.4588 266.926 62.1035 269.125 63.1578L269.123 63.1386L269.136 63.1261C268.996 62.9183 268.143 62.2416 268.143 62.2416C269.112 62.1798 269.632 63.119 270.392 63.5271L270.314 63.6467C269.993 63.4578 269.674 63.35 269.527 63.3358C270.589 64.1709 272.897 65.5324 274.119 65.9774C274.143 65.8672 273.681 65.8752 273.771 65.5195C274.056 65.6798 274.367 65.7959 274.631 65.9557C274.518 66.1553 274.402 65.9991 274.349 66.017C274.686 66.5023 283.992 72.1398 282.227 69.999L282.344 69.9294C281.788 69.5518 281.327 69.2382 280.836 68.6916C280.741 68.6574 280.744 68.634 280.684 68.7369C280.652 68.7383 280.598 68.7476 280.582 68.7962C280.448 69.0486 280.315 68.843 280.226 68.8025C280.774 68.0809 278.388 67.6462 278.141 67.4656C278.304 67.0648 277.631 67.1529 277.563 66.9063C277.582 66.9004 277.7 66.8585 277.717 66.8461C277.71 66.5286 274.99 65.8429 275.924 65.7676C273.605 63.3982 268.047 61.4639 265.447 59.0665L265.443 59.1239C265.427 59.098 265.342 59.0746 265.355 59.0131C264.974 58.9933 264.132 58.6598 264.132 58.6598L264.121 58.6659ZM270.727 63.0411C270.727 63.0411 270.742 63.0265 270.743 63.018C270.722 63.058 271.12 63.2529 271.128 63.2702L271.053 63.3919C270.529 63.409 270.116 62.0507 270.756 62.9054C270.801 62.8916 270.745 62.9946 270.725 63.0389L270.727 63.0411ZM274.134 65.0107C274.195 65.0612 274.26 65.1117 274.335 65.1689C273.226 65.0526 272.308 63.8845 271.233 63.507C271.881 63.1478 272.504 63.8935 272.902 64.163C273.396 64.2793 273.807 64.7152 274.132 65.0128L274.134 65.0107ZM279.787 68.3723L279.827 68.3094L279.856 68.3271C279.847 68.344 279.832 68.3627 279.819 68.3667C279.808 68.3771 279.791 68.3809 279.785 68.3744L279.787 68.3723ZM264.423 59.2228C264.546 59.1597 264.76 59.3587 264.483 59.4607C264.461 59.4026 264.284 59.426 264.423 59.2228ZM275.048 65.7293C275.166 65.5256 275.511 65.6702 275.351 65.9518C275.238 65.8937 275.142 65.8104 275.048 65.7293ZM261.883 58.0452C261.672 58.2126 261.837 57.9844 261.886 57.8344C261.889 57.8771 261.96 57.9342 261.887 58.024L261.883 58.0452ZM260.29 57.3038C260.207 57.3955 260.083 57.4138 260.041 57.3957C259.983 57.2558 260.3 57.1826 260.29 57.3038ZM257.779 55.8862C257.708 56.0037 257.623 56.0102 257.675 55.8815C257.732 55.7977 257.846 55.7685 257.776 55.9138C257.781 55.9096 257.783 55.8948 257.779 55.8862ZM276.299 67.0291C276.006 67.3372 275.876 66.874 275.661 66.8795C275.901 66.5466 276.036 66.9716 276.193 66.9797C276.235 67.0062 276.271 67.022 276.299 67.0291ZM266.503 61.2924C266.325 61.6118 266.137 61.1664 265.986 61.1734L266.059 61.0495C266.243 61.1114 266.386 61.0872 266.497 61.2858L266.501 61.2902L266.503 61.2924ZM273.211 65.3952C273.077 65.4857 273.039 65.3058 272.976 65.2702C273.078 65.0938 273.369 65.2201 273.211 65.3952ZM270.475 63.7592C270.574 63.5571 270.653 63.7315 270.704 63.7328C270.652 63.7571 270.535 63.848 270.504 63.828C270.483 63.8105 270.49 63.7872 270.475 63.7592ZM266.696 61.2417C266.826 61.3087 266.963 61.3951 267.091 61.477L267.015 61.5987C266.883 61.521 266.751 61.4432 266.623 61.3655L266.698 61.2438L266.696 61.2417ZM267.881 62.1798L267.81 62.3017C267.554 62.3125 267.715 61.9841 267.877 62.1755L267.881 62.1798ZM264.941 60.426C264.958 60.4434 264.983 60.4696 265.002 60.4807C265.277 60.6216 264.641 60.8575 264.941 60.426ZM263.471 59.7429C263.433 59.7462 263.377 59.7619 263.352 59.74C263.172 59.6164 263.553 59.436 263.471 59.7429Z" fill="white"/>
<path d="M263.834 63.1618L262.967 63.6009C262.967 63.6009 261.325 63.8466 260.78 64.3617L258.35 64.8844C258.35 64.8844 257.376 65.2506 257.133 65.5451C256.981 65.7267 256.902 65.9186 256.916 66.068C256.942 66.3754 257.346 66.5236 258.281 66.1607C258.295 66.176 258.342 66.1814 258.352 66.205C259.312 65.7149 260.394 65.8156 261.42 65.4869C261.383 65.4051 261.398 65.3287 261.444 65.3639L261.461 65.4729C262.094 65.0729 262.619 65.2965 263.152 64.7598C263.152 64.7598 263.116 64.923 263.118 64.9209C265.264 64.2614 268.241 63.6049 270.538 62.7935L270.523 62.7783L270.521 62.7633C270.273 62.7169 269.192 62.8441 269.192 62.8441C269.832 62.114 270.866 62.4096 271.69 62.1611L271.723 62.3004C271.363 62.3939 271.061 62.5442 270.95 62.6374C272.29 62.476 274.886 61.7996 276.062 61.2487C276 61.1535 275.681 61.4866 275.493 61.1753C275.808 61.0871 276.11 60.9495 276.41 60.8716C276.47 61.0925 276.277 61.0644 276.255 61.1149C276.836 61.2184 287.398 58.6005 284.635 58.342L284.668 58.2107C284.007 58.3374 283.459 58.4435 282.725 58.4066C282.635 58.4512 282.618 58.4295 282.649 58.5453C282.628 58.5703 282.595 58.6143 282.621 58.6596C282.706 58.9322 282.467 58.8817 282.374 58.9157C282.251 58.0181 280.258 59.4012 279.954 59.4493C279.783 59.0511 279.374 59.5907 279.151 59.466C279.158 59.447 279.212 59.3333 279.219 59.3143C278.987 59.0936 276.584 60.5393 277.189 59.8254C273.873 59.7985 268.582 62.3692 265.047 62.5223L265.086 62.5637C265.054 62.5565 264.979 62.6037 264.944 62.5496C264.661 62.8069 263.832 63.1638 263.832 63.1638L263.834 63.1618ZM271.596 61.5688C271.596 61.5688 271.594 61.5454 271.59 61.541C271.602 61.5839 272.023 61.4407 272.042 61.4475L272.077 61.5847C271.718 61.968 270.465 61.3029 271.522 61.452C271.544 61.41 271.578 61.5237 271.596 61.5688ZM275.397 60.5468C275.474 60.5401 275.56 60.5294 275.649 60.5145C274.785 61.2178 273.308 61.0437 272.283 61.5386C272.485 60.8256 273.452 60.9108 273.925 60.8179C274.356 60.5493 274.956 60.568 275.395 60.5446L275.397 60.5468ZM281.769 58.9138L281.754 58.841L281.788 58.8333C281.794 58.8526 281.796 58.8761 281.791 58.8888C281.791 58.9058 281.78 58.9205 281.771 58.916L281.769 58.9138ZM264.445 63.3448C264.489 63.2117 264.779 63.2017 264.657 63.4714C264.6 63.4466 264.495 63.5888 264.445 63.3448ZM276.553 60.4065C276.492 60.1813 276.839 60.0342 276.925 60.3473C276.803 60.3848 276.677 60.3967 276.553 60.4065ZM261.821 64.3144C261.793 64.5821 261.744 64.304 261.673 64.1639C261.707 64.1902 261.799 64.1818 261.809 64.2971L261.825 64.3145L261.821 64.3144ZM260.17 64.9178C260.178 65.0436 260.103 65.144 260.06 65.16C259.919 65.1034 260.092 64.8264 260.17 64.9178ZM257.393 65.6962C257.426 65.8312 257.371 65.8959 257.319 65.7668C257.298 65.6662 257.36 65.5655 257.414 65.718C257.41 65.7136 257.406 65.7008 257.395 65.6984L257.393 65.6962ZM278.356 60.4394C278.365 60.8635 277.949 60.6277 277.801 60.786C277.734 60.3796 278.129 60.5852 278.245 60.4793C278.292 60.4677 278.328 60.4537 278.356 60.4394ZM267.378 63.3327C267.479 63.6823 267.031 63.5054 266.929 63.6158L266.894 63.4786C267.066 63.3933 267.152 63.274 267.37 63.3368L267.374 63.3326L267.378 63.3327ZM275.019 61.4727C274.988 61.6317 274.835 61.5321 274.764 61.5539C274.711 61.3545 275.006 61.2402 275.021 61.4749L275.019 61.4727ZM271.929 62.2585C271.855 62.0458 272.034 62.1119 272.072 62.0766C272.051 62.1294 272.035 62.2781 271.996 62.2857C271.971 62.2893 271.956 62.2655 271.927 62.2563L271.929 62.2585ZM267.476 63.1604C267.618 63.117 267.772 63.0781 267.92 63.0455L267.953 63.1847C267.803 63.2237 267.655 63.2606 267.509 63.2997L267.476 63.1604ZM268.976 62.9837L269.013 63.123C268.838 63.3105 268.721 62.9647 268.972 62.9878L268.976 62.9837ZM265.658 63.8279C265.68 63.8284 265.72 63.8315 265.739 63.8256C266.033 63.7283 265.752 64.3456 265.658 63.8279ZM264.137 64.3875C264.113 64.4146 264.084 64.4671 264.049 64.4706C263.835 64.5122 263.977 64.1152 264.137 64.3875Z" fill="white"/>
<path d="M270.953 54.7476L270.673 53.8164C270.673 53.8164 270.722 52.1561 270.315 51.5286L270.235 49.043C270.235 49.043 270.049 48.0182 269.8 47.7268C269.647 47.5442 269.475 47.4335 269.324 47.4192C269.018 47.3905 268.796 47.76 268.992 48.7467C268.976 48.7612 268.96 48.8013 268.935 48.8092C269.248 49.8414 268.953 50.8886 269.093 51.957C269.181 51.9357 269.252 51.9672 269.209 52.0003L269.098 51.9976C269.382 52.6924 269.064 53.1704 269.5 53.7901C269.5 53.7901 269.346 53.7246 269.348 53.7268C269.614 55.957 269.73 58.9994 270.119 61.4072L270.134 61.3927L270.151 61.3973C270.24 61.163 270.311 60.0763 270.309 60.0741C270.915 60.8322 270.437 61.7983 270.536 62.6527L270.393 62.6599C270.364 62.2886 270.272 61.9647 270.2 61.8373C270.121 63.1858 270.322 65.8596 270.654 67.1159C270.759 67.0737 270.487 66.7007 270.829 66.5705C270.862 66.8972 270.943 67.2187 270.963 67.5281C270.733 67.548 270.797 67.3621 270.751 67.3312C270.546 67.8843 271.235 78.745 271.984 76.0729L272.108 76.1291C272.101 75.458 272.095 74.8977 272.264 74.1839C272.238 74.0874 272.258 74.073 272.14 74.0851C272.117 74.0611 272.08 74.0218 272.033 74.0335C271.749 74.0671 271.842 73.8414 271.825 73.7452C272.731 73.7841 271.726 71.5765 271.733 71.27C272.155 71.1758 271.697 70.6727 271.859 70.4764C271.878 70.4875 271.978 70.5623 271.995 70.5713C272.253 70.3837 271.26 67.761 271.856 68.4826C272.476 65.2259 270.89 59.5578 271.369 56.057L271.319 56.0877C271.332 56.0582 271.3 55.9765 271.361 55.9524C271.16 55.628 270.953 54.7476 270.953 54.7476ZM271.136 62.6672C271.136 62.6672 271.158 62.6678 271.164 62.6658C271.119 62.6711 271.187 63.1094 271.176 63.1283L271.036 63.1377C270.722 62.7169 271.599 61.6028 271.265 62.615C271.303 62.6457 271.184 62.6556 271.136 62.6672ZM271.465 66.5881C271.459 66.6646 271.453 66.7497 271.451 66.8433C270.914 65.8654 271.349 64.4446 271.043 63.3466C271.711 63.6716 271.452 64.6089 271.459 65.0926C271.646 65.5636 271.523 66.1507 271.465 66.5881ZM271.935 73.1493L272.01 73.1447L272.013 73.1789C271.992 73.1826 271.971 73.1778 271.96 73.1712C271.943 73.1665 271.933 73.1556 271.937 73.1472L271.935 73.1493ZM270.664 55.3179C270.789 55.3826 270.745 55.6734 270.505 55.5036C270.538 55.4511 270.417 55.3204 270.664 55.3179ZM271.392 67.7557C271.627 67.7358 271.708 68.1041 271.381 68.1324C271.365 68.0064 271.377 67.8789 271.392 67.7557ZM270.18 52.5605C269.922 52.4818 270.203 52.4886 270.355 52.4433C270.324 52.4724 270.316 52.5638 270.201 52.5525L270.18 52.5605ZM269.878 50.83C269.755 50.8143 269.668 50.7227 269.658 50.6777C269.74 50.5498 269.982 50.7686 269.878 50.83ZM269.607 47.9564C269.469 47.9637 269.417 47.9007 269.552 47.8678C269.654 47.866 269.744 47.9427 269.583 47.9665C269.59 47.9645 269.603 47.9606 269.607 47.9522L269.607 47.9564ZM271.043 69.5237C270.623 69.4581 270.928 69.0885 270.8 68.915C271.209 68.9206 270.938 69.2741 271.02 69.4081C271.025 69.4572 271.029 69.4957 271.039 69.5236L271.043 69.5237ZM270.154 58.2045C269.791 58.2383 270.048 57.8313 269.955 57.7119L270.098 57.7004C270.153 57.885 270.255 57.9918 270.152 58.1938L270.152 58.2023L270.154 58.2045ZM270.62 66.0543C270.47 65.9931 270.595 65.862 270.588 65.7894C270.793 65.773 270.854 66.0812 270.62 66.0543ZM270.399 62.8709C270.619 62.8358 270.523 63.0017 270.55 63.0428C270.502 63.014 270.358 62.9679 270.357 62.9317C270.357 62.9061 270.383 62.8982 270.397 62.8687L270.399 62.8709ZM270.306 58.3296C270.324 58.4748 270.335 58.6349 270.34 58.7883L270.197 58.7955C270.184 58.6419 270.175 58.4883 270.163 58.3368L270.306 58.3296ZM270.212 59.8375L270.069 59.8489C269.917 59.645 270.278 59.5877 270.21 59.8311L270.212 59.8332L270.212 59.8375ZM269.973 56.4215C269.968 56.4427 269.959 56.4808 269.963 56.5022C270.004 56.8078 269.449 56.4216 269.973 56.4215ZM269.692 54.8257C269.667 54.7996 269.621 54.7601 269.627 54.7262C269.625 54.5067 269.989 54.7179 269.692 54.8257Z" fill="white"/>
</g>
<defs>
<clipPath id="clip0_3358_7615">
<rect width="39.0141" height="39.0141" fill="white" transform="translate(148)"/>
</clipPath>
<clipPath id="clip1_3358_7615">
<rect width="30.8862" height="30.8862" fill="white" transform="translate(26.9219 73) rotate(-150.647)"/>
</clipPath>
<clipPath id="clip2_3358_7615">
<rect width="28.1901" height="28.1901" fill="white" transform="translate(271.41 42) rotate(46.3857)"/>
</clipPath>
</defs>
</svg>
