<svg width="48" height="48" viewBox="0 0 48 48" fill="none" xmlns="http://www.w3.org/2000/svg">
<g clip-path="url(#clip0_459_65832)">
<path d="M23.4999 23.1804V32.0934H14.5699V23.1804H23.4999V14.2734H7.20985C6.33985 14.2794 5.63985 14.9774 5.64585 15.8334C5.64585 15.8404 5.64585 15.8474 5.64585 15.8544V39.4664C5.62785 40.3224 6.31885 41.0294 7.18785 41.0474C7.19485 41.0474 7.20285 41.0474 7.20985 41.0474H30.8439C31.7139 41.0414 32.4139 40.3434 32.4079 39.4874C32.4079 39.4804 32.4079 39.4734 32.4079 39.4664V23.1804H23.4999Z" fill="#1868DB"/>
<path d="M23.5 5.36084V14.2728H32.451V23.1798H41.354V6.92084C41.372 6.06484 40.681 5.35784 39.812 5.33984C39.805 5.33984 39.797 5.33984 39.79 5.33984L23.5 5.36084Z" fill="#1868DB"/>
</g>
<defs>
<clipPath id="clip0_459_65832">
<rect width="48" height="48" fill="white"/>
</clipPath>
</defs>
</svg>
