<svg width="48" height="48" viewBox="0 0 48 48" fill="none" xmlns="http://www.w3.org/2000/svg">
<g clip-path="url(#clip0_459_65530)">
<g clip-path="url(#clip1_459_65530)">
<path d="M26.4824 8.51643C30.8432 9.79568 35.2467 9.79568 39.6075 8.51643C39.9923 8.43115 40.2488 8.687 40.1633 9.07077C38.9235 13.5481 38.9235 17.6844 40.1633 22.1617C40.2488 22.5028 39.9923 22.8013 39.6075 22.6734C35.2467 21.4794 30.8432 21.4794 26.4824 22.6734C26.1403 22.8013 25.8411 22.5028 25.9693 22.1617C27.1236 17.6844 27.1236 13.5481 25.9693 9.07077C25.8411 8.687 26.1403 8.43115 26.4824 8.51643ZM28.2352 24.3791V25.104C28.2352 28.4726 25.8838 30.9458 22.9766 30.9458C20.0694 30.9458 17.7607 28.6006 17.7607 25.7009C17.7607 22.8013 20.1121 20.4987 23.4041 20.4987H24.2592V10.3074C23.8317 10.2647 23.4041 10.2647 22.9766 10.2647C14.426 10.2647 7.5 17.1727 7.5 25.7436C7.5 34.3145 14.426 41.1798 22.9766 41.1798C31.5272 41.1798 38.496 34.2719 38.496 25.7436V24.3791H28.2352Z" fill="#1868DB"/>
</g>
</g>
<defs>
<clipPath id="clip0_459_65530">
<rect width="48" height="48" fill="white"/>
</clipPath>
<clipPath id="clip1_459_65530">
<rect width="32.68" height="32.68" fill="white" transform="translate(7.5 8.5)"/>
</clipPath>
</defs>
</svg>
