<svg width="141" height="123" viewBox="0 0 141 123" fill="none" xmlns="http://www.w3.org/2000/svg">
<g clip-path="url(#clip0_2870_15920)">
<path d="M0.391986 120.982C5.75138 103.173 8.57638 83.324 8.57638 61.704C8.57638 39.2189 5.67028 18.4909 0 0H105.985C108.736 19.3357 110.162 39.6582 110.162 60.8997C110.162 81.925 108.85 101.977 106.275 120.988H0.391986V120.982Z" fill="#FFA400"/>
<path d="M110.161 60.8994C110.161 73.2672 109.708 85.2971 108.803 96.9756C97.9759 102.599 86.5272 101.713 77.2412 93.3328C75.6665 91.9068 74.1594 90.2713 72.7199 88.4128C71.2601 86.5339 70.0435 84.6281 69.0568 82.7222C63.1906 71.4425 65.36 59.987 73.808 50.87C75.3083 49.2547 76.9979 47.707 78.8767 46.254C80.6812 44.855 82.5263 43.652 84.3848 42.645C92.8463 38.0561 101.761 37.5019 109.756 41.4758C110.026 47.8625 110.161 54.337 110.161 60.8994Z" fill="#70B600"/>
<path d="M124.645 56.67C123.665 54.7912 122.462 52.9191 121.023 51.0605C119.563 49.175 118.035 47.5192 116.44 46.0796C106.958 37.51 95.3002 36.726 84.3855 42.6396C82.5201 43.6466 80.6819 44.8496 78.8774 46.2486C76.9918 47.7016 75.3022 49.2493 73.8086 50.8646C65.3606 59.9816 63.1912 71.4371 69.0507 82.7168C70.0442 84.6226 71.2607 86.5217 72.7137 88.4073C74.1668 90.2929 75.6604 91.9014 77.2351 93.3207C86.6563 101.829 98.3009 102.62 109.27 96.7269C111.209 95.6861 113.129 94.4358 115.014 92.9828C116.819 91.5905 118.448 90.1104 119.894 88.5628C128.382 79.4728 130.552 67.9835 124.638 56.67H124.645Z" fill="#CC56F9"/>
<path d="M124.645 56.67C123.665 54.7912 122.462 52.9191 121.023 51.0605C119.563 49.175 118.035 47.5192 116.44 46.0796C106.958 37.51 95.3002 36.726 84.3855 42.6396C82.5201 43.6466 80.6819 44.8496 78.8774 46.2486C76.9918 47.7016 75.3022 49.2493 73.8086 50.8646C65.3606 59.9816 63.1912 71.4371 69.0507 82.7168C70.0442 84.6226 71.2607 86.5217 72.7137 88.4073C74.1668 90.2929 75.6604 91.9014 77.2351 93.3207C86.6563 101.829 98.3009 102.62 109.27 96.7269C111.209 95.6861 113.129 94.4358 115.014 92.9828C116.819 91.5905 118.448 90.1104 119.894 88.5628C128.382 79.4728 130.552 67.9835 124.638 56.67H124.645Z" fill="#CC56F9"/>
<path d="M109.757 41.4758C101.762 37.5019 92.8473 38.0561 84.3858 42.645C82.5272 43.652 80.6822 44.855 78.8777 46.254C76.9989 47.707 75.3093 49.2547 73.8089 50.87C65.361 59.987 63.1915 71.4425 69.0578 82.7222C70.0445 84.6281 71.261 86.5339 72.7208 88.4128C74.1604 90.2713 75.6675 91.9068 77.2422 93.3328C86.5282 101.713 97.9769 102.599 108.804 96.9756C109.709 85.2971 110.162 73.2672 110.162 60.8994C110.162 54.337 110.027 47.8625 109.757 41.4758Z" fill="#70B600"/>
<path d="M109.757 41.4758C101.762 37.5019 92.8473 38.0561 84.3858 42.645C82.5272 43.652 80.6822 44.855 78.8777 46.254C76.9989 47.707 75.3093 49.2547 73.8089 50.87C65.361 59.987 63.1915 71.4425 69.0578 82.7222C70.0445 84.6281 71.261 86.5339 72.7208 88.4128C74.1604 90.2713 75.6675 91.9068 77.2422 93.3328C86.5282 101.713 97.9769 102.599 108.804 96.9756C109.709 85.2971 110.162 73.2672 110.162 60.8994C110.162 54.337 110.027 47.8625 109.757 41.4758Z" fill="#70B600"/>
<path d="M70.483 58.3385L73.7946 58.6494C73.7946 58.6494 75.2071 58.94 76.9237 59.1901C78.6404 59.4401 80.6814 59.582 81.8506 59.4266C84.7567 59.6023 87.7236 59.4131 90.5621 58.4872C90.5621 58.4872 91.4475 58.1763 92.3734 57.6086C93.3128 57.0612 94.1981 56.1758 94.4482 55.6622C94.6172 55.3513 94.7185 55.081 94.7388 54.8579C94.7726 54.6417 94.7658 54.493 94.7118 54.4186C94.6036 54.2632 94.3603 54.4051 93.9278 54.8377C93.4885 55.2702 92.7383 55.9528 91.3191 56.7097C91.2785 56.7097 91.1501 56.7503 91.1231 56.7232C89.616 57.5343 87.8723 57.8789 86.1354 58.0141C84.385 58.1357 82.6413 58.0682 80.8098 57.9465C80.8504 58.0479 80.7219 58.1155 80.6138 58.0546L80.6611 57.933C78.1943 57.9803 76.721 57.3383 74.4096 57.4126C74.4096 57.4126 74.6935 57.2977 74.6935 57.2909C72.7673 57.0071 70.6655 56.6354 68.4285 56.3313C66.1982 56.0271 63.826 55.8041 61.4335 55.7906C56.6554 55.7298 51.7758 56.3921 47.6532 57.7235H47.7005L47.687 57.7505C48.0925 57.6964 49.2212 57.4599 50.2619 57.2842C51.3027 57.1152 52.2489 56.9868 52.2489 56.9868C49.5591 58.1087 46.3421 58.2506 43.463 59.6631L43.4022 59.5145C43.7063 59.332 44.051 59.163 44.3348 59.0549C44.6119 58.9332 44.8755 58.8251 45.1121 58.717C45.5851 58.5075 45.9704 58.352 46.1799 58.2371C45.6054 58.3993 44.9701 58.6088 44.2808 58.8589C43.5441 59.109 42.7264 59.555 42.037 60.2646C41.6991 60.6363 41.3341 61.0689 41.2125 61.8393C41.1449 62.2246 41.2328 62.6233 41.395 62.9747C41.4896 63.1437 41.6112 63.3194 41.7329 63.4546C41.8545 63.5695 41.9897 63.7046 42.1181 63.7925C42.6182 64.1507 43.213 64.3399 43.7874 64.394C44.3619 64.4481 44.9025 64.367 45.4027 64.2386C45.9028 64.1034 46.3691 63.9142 46.8084 63.6844C47.2207 63.4613 47.6059 63.2316 47.9844 62.9883C48.7413 62.4881 49.4374 61.934 50.0389 61.3392C50.6472 60.7445 51.1608 60.1092 51.5663 59.4807C51.7691 59.1698 51.9853 58.8116 52.1137 58.3723C52.2557 57.9398 52.2286 57.3856 52.0597 56.9868C52.0462 57.0341 52.0935 57.2031 52.134 57.4396C52.1678 57.6829 52.161 58.0006 52.0732 58.2777C51.9042 58.8454 51.5731 59.2238 51.3162 59.2644C51.4852 59.0143 51.6609 58.7372 51.7826 58.3993C51.9042 58.0682 51.9583 57.6424 51.8502 57.2639C51.6271 56.5002 51.0797 56.0812 50.6134 55.7365C50.7621 55.5067 51.2825 56.0339 51.4176 56.1285C51.2487 55.8785 50.5323 55.2026 49.3293 54.7025C48.1263 54.2091 46.511 53.7563 44.5849 53.5941C42.6655 53.4252 40.4893 53.5401 38.3064 53.9523C36.1099 54.3578 33.9269 55.0472 31.8859 55.8582C29.8449 56.6759 27.9593 57.6559 26.3914 58.6629C24.8234 59.6699 23.5664 60.6904 22.708 61.5149C21.8497 62.3395 21.3699 62.9477 21.3158 63.1369C21.2618 63.3329 21.6199 63.1099 22.5526 62.4408L22.4715 62.6976C24.2354 61.1567 25.8642 60.0686 28.0877 59.0887C28.3783 58.9062 28.4256 58.9062 28.358 58.7913C28.4256 58.7305 28.5405 58.6224 28.4797 58.5886C28.2905 58.3182 29.0339 58.0817 29.3245 57.9195C29.3786 58.4601 31.0411 57.6221 32.9335 56.8179C34.8123 55.9798 36.9479 55.2026 37.4751 55.1215C37.7725 55.527 39.5094 54.7228 40.1784 54.8579C40.1379 54.885 39.8743 55.0336 39.8405 55.0472C40.1379 55.1485 42.5574 54.6957 44.6187 54.7903C45.646 54.8174 46.5719 54.9526 47.0652 55.081C47.5586 55.2094 47.6194 55.2837 46.9503 55.277C47.5924 55.4865 48.275 55.7298 48.9103 56.0406C49.5388 56.3448 50.1944 56.7638 50.5188 57.2369C50.6742 57.4802 50.7012 57.6289 50.6472 57.8181C50.5931 58.0276 50.4039 58.325 50.1538 58.6494C49.674 59.2914 49.0927 59.8929 48.4439 60.4404C47.7951 60.9878 47.072 61.4879 46.2948 61.9204C45.5514 62.353 44.7539 62.6436 44.0307 62.6166C43.6793 62.603 43.3684 62.5084 43.1251 62.3327C43.0981 62.2922 43.0372 62.2584 43.017 62.2381C42.9967 62.2178 42.9832 62.1975 42.9764 62.1705C42.9629 62.1097 42.9426 62.0826 42.9832 61.9813C43.0305 61.7718 43.3008 61.4406 43.5982 61.1838C43.9023 60.9202 44.2673 60.6904 44.6525 60.5215C48.2074 59.0279 52.0935 58.1222 55.7633 57.764C59.4466 57.3923 62.9339 57.5613 65.84 58.0682L65.7589 58.0006C65.8535 58.0209 66.1441 58.0276 66.205 58.1087C66.7929 58.0682 67.854 58.1155 68.7731 58.1898C69.6923 58.2642 70.4627 58.3453 70.4627 58.3453L70.483 58.3385ZM43.6522 60.3593C43.6522 60.3593 43.6523 60.3863 43.6658 60.3863C43.6455 60.366 43.3346 60.5688 43.0575 60.8256C42.7737 61.0756 42.5777 61.3933 42.5574 61.4136L42.429 61.3189C42.5709 60.9472 42.9629 60.5688 43.4022 60.3187C43.8415 60.0619 44.3213 59.947 44.6525 59.9064C44.9972 59.8659 45.1864 59.8794 45.0918 59.9537C44.9972 60.0416 44.5781 60.1092 43.8482 60.4066C43.7807 60.4944 43.7063 60.3863 43.6522 60.3525V60.3593ZM50.8837 58.6697C51.0324 58.4601 51.1811 58.2236 51.2554 57.9398C51.2351 58.352 50.9986 58.7846 50.7418 59.1833C50.485 59.5888 50.1808 59.9808 49.8294 60.3593C49.1333 61.1027 48.2817 61.7582 47.3626 62.2989C46.4502 62.8396 45.45 63.3329 44.4024 63.387C43.8888 63.4208 43.3684 63.3397 42.9223 63.1099C42.4898 62.8936 42.0911 62.4949 42.1451 61.988C42.2871 62.3462 42.5236 62.5895 42.9156 62.7517C43.3008 62.941 43.7671 63.0356 44.2808 63.0085C45.3216 62.9815 46.4029 62.4679 47.1193 62.0488C48.4439 61.0621 49.9916 59.8659 50.877 58.6697H50.8837ZM31.2574 57.2166L31.2844 57.2977L31.1695 57.3518C31.1695 57.3518 31.1695 57.2977 31.183 57.2774C31.1966 57.2504 31.2304 57.2234 31.2574 57.2166ZM68.6718 57.6897C68.3947 57.7843 67.4282 57.5748 68.1108 57.4126C68.273 57.4802 68.7731 57.4261 68.6718 57.6897ZM49.5861 55.6689C49.5253 55.7838 49.2076 55.7162 48.9103 55.6014C48.6129 55.4865 48.329 55.3175 48.3831 55.1418C48.8156 55.2702 49.2144 55.4527 49.5861 55.6622V55.6689ZM78.3227 58.8792C78.6944 58.6359 78.566 58.94 78.6606 59.1292C78.5795 59.0819 78.2687 59.0279 78.3498 58.9062L78.3295 58.8792H78.3227ZM84.4188 59.0143C84.4999 58.8724 84.8378 58.7643 84.9932 58.7508C85.419 58.8319 84.6148 59.1225 84.4188 59.0143ZM93.7589 56.0204C93.6642 55.8987 93.7926 55.7027 93.9481 55.7636C94.0157 55.8582 93.8602 56.1285 93.7115 56.0204C93.7115 56.0204 93.7386 56.0204 93.7589 56.0204ZM43.7334 53.8577C44.1186 53.3981 45.3418 53.8645 46.0109 53.8509C45.9028 54.0672 45.5716 54.0537 45.1999 53.9861C44.8282 53.9388 44.4092 53.8307 44.1591 53.8644C43.9834 53.8577 43.8482 53.8509 43.7401 53.8644L43.7334 53.8577ZM58.8451 56.2975C58.8113 55.892 60.1832 56.1691 60.6293 56.088V56.2502C59.9535 56.2907 59.5615 56.4191 58.8721 56.2975H58.8451ZM50.2011 60.9134C50.1335 61.2243 49.6875 61.4203 49.4915 61.596C49.3563 61.4271 50.1471 60.6161 50.2079 60.9134H50.2011ZM42.7331 59.9808C42.9359 60.1295 42.3952 60.4336 42.3006 60.6026C42.3479 60.4741 42.402 60.1971 42.5168 60.0957C42.5979 60.0281 42.6385 60.0349 42.7331 59.9808ZM58.3585 56.4799C57.8448 56.5137 57.2839 56.5475 56.75 56.5813V56.4191C57.2974 56.3718 57.8313 56.3448 58.3652 56.3177V56.4799H58.3585ZM53.0937 56.7773L53.0667 56.6219C53.8033 56.3583 53.952 56.7503 53.1072 56.7773H53.0869H53.0937ZM65.1304 56.4056C65.056 56.3921 64.9276 56.3651 64.8533 56.3651C63.7652 56.2975 65.3331 55.8311 65.1304 56.4056ZM70.7736 56.9598C70.8817 56.953 71.0304 56.926 71.1453 56.953C71.8955 57.095 71.0034 57.345 70.7736 56.9598Z" fill="#101214"/>
<path d="M67.8609 21.6271C69.0233 21.3771 70.2331 21.2689 71.4428 21.2825C71.4428 21.2825 71.8348 21.3163 72.4566 21.4109C73.0784 21.5055 73.9367 21.6609 74.8693 21.8704C76.7279 22.2895 78.9446 22.8774 80.2693 22.9383C83.466 23.6682 86.7641 23.952 90.0487 23.8506C90.0487 23.8506 91.0759 23.7898 92.2451 23.6141C93.4143 23.4451 94.7255 23.168 95.3067 22.945C96.0366 22.6679 96.4826 22.3908 96.5502 22.2084C96.6786 21.8029 95.3337 21.9245 91.522 22.3976C91.4747 22.3841 91.3192 22.3773 91.299 22.3435C89.285 22.6206 87.2777 22.5801 85.2975 22.3638C83.3038 22.1475 81.3641 21.7488 79.3569 21.2757C79.3839 21.3838 79.2353 21.4311 79.1204 21.35L79.1947 21.2419C76.4508 20.8161 74.768 19.8767 72.0376 20.0051C72.0376 20.0051 72.362 19.8767 72.3687 19.8767C70.2534 19.6604 67.9082 19.728 65.5495 20.4241C64.9616 20.5999 64.3803 20.8229 63.7991 21.0865C63.2314 21.3568 62.6502 21.6947 62.1501 22.0259C61.1566 22.695 60.2307 23.3032 59.44 23.2627C59.048 23.2627 58.7236 23.1275 58.3316 22.8301C57.9396 22.5395 57.5476 22.0867 56.9799 21.6339C55.7499 20.7215 54.3239 20.4309 53.0127 20.4106C51.6881 20.3971 50.4108 20.6337 49.2145 21.0459C48.9104 21.1473 48.6198 21.2554 48.3359 21.3906C48.0453 21.5122 47.7615 21.6542 47.4912 21.8096C47.356 21.8907 47.2141 21.9515 47.0857 22.0394C46.9708 22.1137 46.768 22.2489 46.795 22.2354C46.7545 22.2692 46.7139 22.303 46.6734 22.3435C46.6126 22.4043 46.5517 22.4652 46.4977 22.5395L46.4166 22.6544L46.4571 22.5733C46.4571 22.5733 46.4639 22.5463 46.4706 22.5328L46.4504 22.5801L46.4368 22.6071C46.4368 22.6071 46.4301 22.6341 46.4098 22.6814C46.3828 22.749 46.2273 23.0329 46.3287 22.9112C46.376 22.8639 46.4842 22.7828 46.6328 22.6814C46.7275 22.6206 46.8424 22.553 46.9775 22.4922C47.2208 22.3435 47.5249 22.1881 47.7682 22.0799C48.0116 21.9583 48.2211 21.8704 48.3765 21.8164C48.5252 21.7555 48.613 21.7218 48.613 21.7218C48.2211 21.9651 47.8493 22.2354 47.4641 22.4922L46.9775 22.8707C46.8356 22.9721 46.7072 23.1072 46.5653 23.2221C46.3355 23.4113 46.1327 23.6344 45.9502 23.8439L45.7002 24.1615L45.6867 24.175L45.7002 24.148L45.7272 24.0939L45.7813 23.9858C45.8151 23.9115 45.8556 23.8439 45.8827 23.7695C46.0313 23.3978 46.0989 23.0126 46.0922 22.6679C46.0787 22.553 46.0854 22.4381 46.0584 22.3368C46.0516 22.2962 46.0313 22.2084 46.0043 22.1137C45.984 22.0259 45.9435 21.9448 45.9097 21.8569C45.7813 21.5122 45.5853 21.2081 45.369 20.9243C44.923 20.3633 44.3418 19.9308 43.7132 19.6469L43.8078 19.5118C44.5513 19.8564 45.1933 20.3498 45.6394 20.8634C45.7543 20.9851 45.8556 21.1203 45.9367 21.2419C46.0246 21.3703 46.1124 21.4852 46.1665 21.6069C46.2273 21.7285 46.2882 21.8366 46.3422 21.9313C46.3625 21.9853 46.3828 22.0326 46.4031 22.0732L46.4301 22.134L46.4436 22.1543C46.4436 22.1543 46.4301 22.1002 46.4166 22.0462C46.4031 21.9988 46.3895 21.9448 46.3693 21.8907C46.3287 21.7961 46.2882 21.6947 46.2476 21.5933C46.1733 21.3838 46.0449 21.2081 45.93 21.0121C45.6732 20.6404 45.3623 20.2822 44.9906 19.9848C44.2539 19.3766 43.3145 18.9373 42.2872 18.7616C40.2529 18.3966 38.0903 18.8427 36.1709 19.6672C34.2515 20.5052 32.5281 21.7893 31.3116 23.2762C30.0816 24.7495 29.3517 26.3986 29.1286 27.7705C29.203 27.7097 29.2638 27.2501 29.4328 26.7838C29.5882 26.3107 29.845 25.8444 30.1154 25.7497C29.5341 26.9122 29.2368 28.2301 29.2571 29.4804L29.2773 30.4874L30.0275 29.8386C30.0748 29.798 30.1154 29.7642 30.1559 29.7304C30.2032 29.7913 30.1897 29.8656 30.1289 29.9535L29.5071 30.8929L29.1084 29.4804C29.0408 29.2506 29.0949 28.8383 29.0746 28.7302C29.0475 28.8518 29.0138 29.1087 29.0002 29.4804L28.9394 31.001L30.2032 30.0278C30.8047 29.5615 31.7982 28.7302 32.839 27.4326C33.8595 26.135 34.9746 24.3508 35.4139 22.0664C35.6234 20.9581 35.7181 19.6131 35.103 18.2885C34.7922 17.6329 34.265 17.0314 33.6162 16.653C32.9742 16.2745 32.2645 16.0785 31.5752 16.0244C30.1897 15.9095 28.9124 16.2407 27.7499 16.68C26.5875 17.1261 25.5197 17.714 24.5397 18.3628C20.7009 21.0054 18.0314 24.1615 16.7608 26.1147C16.1188 27.0879 15.8146 27.7502 15.8214 27.8989C15.8417 28.0544 16.1728 27.6962 16.9771 26.777L16.9365 27.0676C18.5112 24.959 20.0386 23.3573 22.2419 21.7488C22.519 21.4785 22.5663 21.4717 22.4784 21.3703C22.5392 21.2892 22.6474 21.1473 22.5798 21.1338C22.3432 20.9107 23.0867 20.4579 23.3773 20.2214C23.5327 20.7688 25.1209 19.3901 27.1417 18.3155C28.1487 17.7681 29.2638 17.3153 30.2303 17.1193C31.1967 16.9233 31.9942 17.0247 32.278 17.1193C32.3186 17.3964 32.8593 17.518 33.3324 17.8762C33.8257 18.2074 34.2042 18.8089 34.2042 19.1603C34.1772 19.113 33.9609 18.89 33.9338 18.8697C33.9338 19.0252 34.2109 19.6537 34.2312 20.6201C34.2515 21.5798 34.0285 22.8301 33.623 23.9047C33.2242 24.9793 32.6903 25.8917 32.3524 26.3445C32.0077 26.7973 31.9131 26.8378 32.224 26.1552C31.4332 27.1082 30.4736 28.0476 29.3111 28.9465L30.4195 29.4533C30.5209 26.5134 32.8593 23.4181 36.0627 21.742C37.6645 20.8905 39.5163 20.3228 41.3275 20.3971C41.7871 20.4106 42.2061 20.485 42.6251 20.5999C43.0374 20.7283 43.4294 20.904 43.7808 21.1338C44.1255 21.3703 44.4296 21.6542 44.6526 21.9786C44.7675 22.1408 44.8486 22.3097 44.9297 22.4854L44.977 22.6341C45.0108 22.7288 45.0311 22.8436 45.0514 22.9518C45.0649 23.0058 45.0514 23.0802 45.0243 23.168L44.9703 23.4113L44.8554 23.898C45.3825 24.3372 45.4839 24.5468 45.4636 24.6887C45.4569 24.736 45.4028 24.7968 45.4096 24.8238L45.5988 24.7427L45.6461 24.7225H45.734L45.9165 24.7427L46.0989 24.7563C46.1598 24.7563 46.2949 24.8103 46.3828 24.8374C46.6734 24.54 46.964 24.1953 47.2479 23.9453C47.3898 23.8304 47.5317 23.7222 47.6804 23.6276L47.944 23.4519C48.2751 23.2694 48.5928 23.0667 48.951 22.9315C49.6403 22.6139 50.377 22.4043 51.1069 22.2557C52.5599 21.9786 54.1008 22.0191 55.2633 22.5733C55.5674 22.695 55.7904 22.8842 56.0405 23.0667C56.2838 23.2762 56.5339 23.5398 56.8245 23.8101C57.1083 24.0804 57.4327 24.3643 57.8315 24.6008C58.2302 24.8374 58.7033 25.0063 59.1764 25.0604C60.1293 25.1753 61.0079 24.8914 61.6905 24.567C62.3866 24.2359 62.9611 23.8642 63.4882 23.5735H63.3733C63.468 23.533 63.718 23.3438 63.8194 23.364C64.2654 22.9585 65.2387 22.4111 66.1646 22.0799C67.0905 21.7488 67.915 21.6001 67.915 21.6001L67.8609 21.6271ZM43.2063 20.1741C43.2063 20.1741 43.1861 20.1944 43.1861 20.2011C43.1861 20.1808 42.8076 20.0119 42.3818 19.9173C41.9628 19.8226 41.5235 19.7889 41.4897 19.7821L41.5168 19.6267C41.956 19.5726 42.5508 19.6875 43.0644 19.9375C43.5848 20.1741 44.0106 20.5323 44.2336 20.8229C44.4702 21.1 44.5175 21.3095 44.4161 21.2419C44.308 21.1811 44.0444 20.8634 43.2807 20.3701C43.159 20.3498 43.2063 20.2282 43.1996 20.1741H43.2063ZM30.602 26.3242C30.46 26.581 30.3249 26.8784 30.2032 27.2096C30.5749 25.2361 32.1294 23.2154 34.1298 21.8907C36.1371 20.5458 38.5093 19.7618 40.699 19.5929C39.9623 19.9578 38.7864 20.2079 37.5834 20.6269C36.3804 21.0256 35.1571 21.6001 34.4002 22.1205C32.9674 23.2829 31.3859 24.8374 30.602 26.3242ZM25.3034 19.0522L25.3372 19.1265L25.2223 19.2009C25.2223 19.2009 25.2088 19.1536 25.2291 19.1265C25.2358 19.0995 25.2696 19.0657 25.3034 19.0522ZM65.7861 21.715C65.5495 21.911 64.5223 22.2354 65.1035 21.742C65.2927 21.7082 65.7726 21.4311 65.7861 21.715ZM30.5749 28.7167C30.4127 28.541 31.3521 27.4596 31.6292 27.6826C31.2981 28.0611 30.9466 28.4058 30.5749 28.7167ZM76.4508 21.7488C76.8969 21.5731 76.7076 21.8502 76.7955 22.0462C76.7076 21.9853 76.3697 21.884 76.4778 21.7758L76.4576 21.742L76.4508 21.7488ZM83.1957 23.0194C83.3106 22.8977 83.7025 22.8572 83.885 22.8707C84.3446 23.0194 83.3917 23.1748 83.1957 23.0194ZM94.4551 22.8436C94.4551 22.6882 94.7052 22.5936 94.7998 22.7355C94.793 22.8504 94.4754 22.9923 94.4078 22.8234C94.4078 22.8234 94.4281 22.8436 94.4551 22.8436ZM34.7584 23.2289C34.9206 23.4992 34.7922 23.952 34.5691 24.4183C34.3461 24.8779 34.0487 25.3442 33.9136 25.7024C33.6162 25.3442 34.5151 24.2967 34.6164 23.6952C34.684 23.506 34.7246 23.3505 34.7584 23.2289ZM56.1757 21.6677C56.2568 21.4852 56.6758 21.7015 57.034 22.0259C57.3854 22.357 57.6895 22.7423 57.8923 22.8572L57.7842 22.9721C57.2165 22.5395 56.8718 22.2354 56.2027 21.688L56.1757 21.6677ZM31.1291 23.7898C31.1899 23.4519 31.6428 23.1613 31.8523 22.945C31.9942 23.0937 31.2035 24.0939 31.1291 23.7966V23.7898ZM42.936 19.2009C42.9292 19.4645 42.321 19.1603 42.1182 19.1738C42.2602 19.1401 42.5373 19.0319 42.6995 19.086C42.8076 19.1198 42.8279 19.1536 42.936 19.2009ZM55.5674 21.546C55.2903 21.4041 54.9727 21.35 54.6753 21.2419C54.3644 21.1811 54.0468 21.1067 53.7359 21.0729L53.7764 20.9175C54.1008 20.9513 54.4185 21.0189 54.7294 21.0865C55.0403 21.1946 55.3579 21.2487 55.6485 21.4041L55.5674 21.546ZM49.5119 21.3095L49.4646 21.154C50.3026 20.7553 50.4986 21.1338 49.5322 21.3027H49.5119V21.3095ZM61.7513 22.8031C61.677 22.8436 61.5553 22.9045 61.4878 22.945C60.5213 23.5465 61.5756 22.2354 61.7513 22.8031ZM67.7528 20.2282C67.8744 20.1876 68.0366 20.1133 68.1718 20.1065C69.0571 20.0389 68.1245 20.512 67.7528 20.2282Z" fill="#101214"/>
<path d="M70.9488 95.5697C72.2464 95.8603 73.5373 95.9347 74.8011 95.9414C74.8011 95.9414 75.2133 95.982 75.8621 96.0225C76.5177 96.0563 77.4098 96.0901 78.3898 96.0969C80.3497 96.1036 82.634 95.9414 83.9114 95.6306C87.1621 95.4278 90.4332 94.9142 93.5893 94.2383C93.5893 94.2383 94.5626 94.0018 95.6912 93.8328C96.8199 93.6503 98.0972 93.6774 98.7054 93.745C99.4691 93.7923 99.9895 93.9274 100.186 93.8328C100.28 93.7855 100.28 93.6977 100.158 93.5422C100.037 93.3868 99.78 93.1773 99.3542 92.9745C98.5094 92.5623 96.9618 92.2852 94.9275 92.6298C94.8735 92.6163 94.7112 92.6163 94.6842 92.5893C93.6231 92.7988 92.5891 93.0556 91.6024 93.2719C90.6157 93.4814 89.6222 93.6436 88.6219 93.7652C86.6215 94.0221 84.6075 94.1505 82.5326 94.3127C82.5935 94.4073 82.4583 94.4951 82.3299 94.4546L82.3637 94.3262C79.6063 94.7249 77.8626 94.3262 75.3282 94.6573C75.3282 94.6573 75.6188 94.5087 75.6256 94.5087C74.1996 94.4614 72.706 94.3397 71.2529 93.9207C70.523 93.7044 69.8404 93.4138 69.2322 92.988C68.9348 92.7785 68.6577 92.5352 68.4617 92.2784C68.3603 92.1365 68.286 92.0757 68.2184 91.8121C68.1643 91.3593 68.2454 90.6699 68.286 90.0481C68.1238 90.0955 68.0292 90.1022 67.8467 90.1698L67.3331 90.3455C66.9884 90.4672 66.6437 90.5821 66.299 90.7037C65.4745 90.9943 65.2312 91.0619 64.8054 91.2038C64.0079 91.4674 63.1969 91.7107 62.3792 91.9472C60.7369 92.4203 59.0676 92.8529 57.3847 93.2381C54.0258 94.0018 50.6466 94.5898 47.5175 95.0155L47.5648 95.0291L47.5445 95.0493C47.9906 95.0629 49.2612 94.9818 50.4168 94.8736C51.5725 94.7722 52.6201 94.6371 52.6201 94.6371C49.5991 95.759 45.909 95.5833 42.5839 95.813L42.5974 95.6508C44.0302 95.5697 45.321 95.367 45.8212 95.2521C44.5235 95.3197 42.8813 95.4548 41.1579 95.4278C39.448 95.3873 37.5421 95.1575 36.1905 94.2586C35.5281 93.8126 35.0618 93.2043 34.8996 92.5285C34.7171 91.8459 34.8523 91.1498 35.1902 90.528C35.5214 89.9062 36.035 89.3655 36.5892 88.9465C37.1366 88.5207 37.7111 88.1828 38.2315 87.926C38.1436 87.8855 37.8057 88.0882 37.434 88.2842C37.0758 88.4937 36.6771 88.6965 36.4202 88.6559C37.3799 87.9395 38.5221 87.4124 39.6508 87.1015C39.7116 87.338 39.0628 87.4664 38.9546 87.5475C39.2047 87.507 40.0089 87.2367 41.2795 87.0677C41.5972 87.0339 41.9418 86.9933 42.3136 86.9663C42.496 86.9596 42.692 86.9528 42.888 86.946C42.9826 86.946 43.0772 86.9393 43.1719 86.9325H43.253C43.3679 86.946 43.4625 86.9528 43.5503 86.9731C43.5976 86.9731 43.6382 86.9866 43.6787 87.0001L43.7396 87.0136H43.7666C43.7666 87.0136 43.7463 87.0339 43.7328 87.0474C43.645 87.1082 43.5503 87.1758 43.4557 87.2367L43.2868 87.3448C43.1516 87.4259 43.0164 87.5137 42.8745 87.5948C41.9283 88.1761 40.9213 88.7438 39.8535 89.2506C37.7246 90.2779 35.4132 91.116 33.1357 91.7512C28.5738 93.0353 24.1876 93.4611 21.6329 93.6639C19.0715 93.8396 18.301 94.0153 20.8489 94.2654L20.5921 94.4005C23.2279 94.4073 25.4041 94.2789 28.175 94.1167C28.5603 94.0356 28.6076 94.0559 28.5805 93.9207C28.6819 93.8869 28.8441 93.8193 28.79 93.772C28.6954 93.4679 29.5605 93.4341 29.9254 93.353C29.7903 93.8869 31.9259 93.5422 34.1562 92.7718C36.4 92.0419 38.664 90.8389 39.2182 90.6091C39.6372 90.9605 41.3539 89.6156 42.0635 89.4264C42.0297 89.4669 41.7999 89.717 41.7661 89.7508C41.9486 89.744 42.6515 89.3723 43.5301 88.7843C43.6382 88.71 43.7531 88.6356 43.868 88.5613C43.9829 88.4869 44.1518 88.345 44.3005 88.2437C44.5911 88.0206 44.8953 87.7908 45.2061 87.5543C45.8144 87.0947 46.328 86.5878 46.8349 86.1621L46.8822 86.1215H46.8079L46.6659 86.1012L46.3821 86.0742C46.1996 86.0539 46.0171 86.0337 45.8414 86.0201C45.49 85.9728 45.1723 85.9728 44.8817 85.9458C44.3005 85.8917 43.8072 85.9188 43.4692 85.9053C43.111 85.8917 42.9556 85.8917 42.9556 85.8579C42.9556 85.8242 43.0705 85.7498 43.6314 85.6957C43.0367 85.6349 42.7191 85.6552 42.2662 85.6484C41.8405 85.6552 41.4079 85.689 40.9619 85.7295C40.0765 85.8309 39.1574 86.0269 38.2315 86.3243C37.3124 86.6419 36.3797 87.0745 35.5079 87.7097C34.6428 88.3383 33.8183 89.1966 33.3519 90.3523C32.8586 91.4944 32.9397 92.9475 33.5952 94.0761C34.2373 95.2386 35.3592 95.9955 36.4743 96.4348C38.7654 97.2999 41.1308 97.2255 43.3814 97.0701C47.8622 96.7051 52.3362 96.0361 56.5061 95.1777C58.5877 94.752 60.595 94.2789 62.4941 93.7923C63.4402 93.549 64.3661 93.2989 65.2582 93.0556C65.4813 92.9948 65.7043 92.934 65.9206 92.8731L66.2112 92.792H66.2788C66.3463 92.792 66.4612 92.7718 66.4274 92.8191L66.468 92.765C66.4545 92.7853 66.4815 92.7853 66.4207 92.8326C66.4072 92.7312 66.5423 93.0151 66.7383 93.2516C66.9208 93.4949 67.1438 93.7179 67.3804 93.9274C67.8602 94.3397 68.4144 94.6709 68.9416 94.9277C69.4687 95.1777 69.9756 95.3535 70.3338 95.4548C70.692 95.5562 70.9218 95.6103 70.9218 95.6103L70.9488 95.5697ZM42.4149 96.4821C42.4149 96.4821 42.4014 96.5091 42.4149 96.5159C42.4149 96.4889 41.9689 96.5091 41.5228 96.5159C41.0768 96.5227 40.624 96.5159 40.5834 96.5024L40.6037 96.3402C42.3338 96.1239 46.4835 96.793 42.5839 96.624C42.4555 96.6713 42.4487 96.5362 42.4149 96.4821ZM36.2648 87.9057C36.5419 87.7638 36.8122 87.5746 37.1502 87.4259C36.3189 88.0139 35.447 88.6965 34.7847 89.6021C34.4738 90.0684 34.1967 90.5753 34.0548 91.143C33.9196 91.7039 33.9264 92.3122 34.0751 92.8867C34.3792 94.0559 35.3322 94.9953 36.4135 95.5089C37.4948 96.0361 38.6775 96.2388 39.7724 96.2726C39.0019 96.5632 37.6435 96.4956 36.3594 95.9077C35.7174 95.617 35.1091 95.1845 34.6631 94.6641C34.2035 94.1572 33.9264 93.5693 33.7777 93.0759C33.3519 92.1162 33.5006 90.8253 34.1021 89.913C34.6766 88.9736 35.5281 88.345 36.2648 87.9057ZM32.2436 93.0218L32.2571 93.1029L32.1219 93.1367C32.1219 93.1367 32.1219 93.0827 32.1557 93.0691C32.176 93.0489 32.2165 93.0218 32.2503 93.0218H32.2436ZM69.0024 94.3667C68.6442 94.3465 67.7453 93.5422 68.5293 93.8193C68.6577 93.9815 69.2119 94.1708 69.0024 94.3667ZM40.5429 86.4054C40.5158 86.277 40.8673 86.1283 41.2322 86.0607C41.6039 86.0134 41.9824 86.0472 42.0027 86.2297C41.5093 86.2905 41.0227 86.331 40.5429 86.4054ZM79.9104 95.5832C80.2889 95.2926 80.1875 95.6103 80.3227 95.7792C80.2213 95.7454 79.8698 95.7319 79.9374 95.6035L79.9104 95.5832ZM86.7499 94.9007C86.831 94.752 87.2027 94.6168 87.3784 94.583C87.8582 94.6168 86.9729 94.9953 86.7499 94.9007ZM97.962 93.3462C97.9958 93.1975 98.2864 93.184 98.3337 93.3462C98.2797 93.4476 97.9417 93.4949 97.9215 93.3057C97.9215 93.3124 97.935 93.326 97.962 93.3395V93.3462ZM44.2194 87.0812C43.8477 87.0609 43.8342 87.0407 43.9896 86.946C43.9423 86.919 43.8883 86.8311 43.6787 86.8852C44.0302 86.6622 44.3005 86.6554 44.4627 86.7027C44.5033 86.7163 44.5371 86.7298 44.5641 86.7365L44.6046 86.7568C44.6046 86.7568 44.5573 86.7906 44.5438 86.8041C44.4357 86.8717 44.3613 86.919 44.3613 86.9528C44.287 87.0069 44.2464 87.0474 44.2194 87.0812ZM59.8515 93.1029C59.7366 92.7177 61.264 92.6501 61.7169 92.4271L61.7506 92.5825C61.0478 92.8191 60.649 93.0353 59.8786 93.0962H59.8515V93.1029ZM35.2375 90.0954C35.2375 90.2441 35.1632 90.3793 35.0618 90.501C34.9672 90.6294 34.8861 90.7645 34.8388 90.8727C34.7374 90.8389 34.7509 90.555 34.8793 90.332C35.0077 90.1157 35.1699 89.9468 35.2375 90.0887V90.0954ZM41.8472 95.6508C41.9148 95.9009 41.3066 95.786 41.1376 95.813C41.2592 95.7657 41.4823 95.6035 41.6174 95.6035C41.7188 95.6035 41.7391 95.6306 41.8472 95.6508ZM59.3582 93.3935C58.804 93.5422 58.189 93.6774 57.6078 93.8058L57.5942 93.6436C58.1822 93.5084 58.7634 93.38 59.3379 93.2381L59.3582 93.4003V93.3935ZM53.6 94.3667L53.573 94.2113C54.3773 93.9139 54.5462 94.2992 53.6203 94.3667H53.6ZM66.8532 90.9605C66.7383 90.9943 66.5558 91.0416 66.441 91.0822C65.6367 91.3728 65.7313 91.1903 66.103 90.9808C66.4815 90.778 67.083 90.5618 66.8532 90.9538V90.9605ZM71.4354 94.2316C71.5503 94.2383 71.7057 94.2316 71.8274 94.2654C72.6181 94.4614 71.6449 94.6506 71.4354 94.2316Z" fill="#101214"/>
<path d="M122.273 90.7777C128.213 84.4248 131.241 77.1055 131.241 69.5834C131.241 64.7985 130.011 59.9257 127.524 55.1678C126.443 53.0998 125.118 51.052 123.591 49.0718C122.043 47.0645 120.367 45.2465 118.617 43.6651C108.378 34.4196 95.3407 33.0071 82.8377 39.7858C80.8169 40.8874 78.8097 42.1985 76.8903 43.6786C74.8966 45.2195 73.0583 46.8956 71.4228 48.6595C61.7583 59.0877 59.8457 72.0502 66.1648 84.2153C67.2529 86.3104 68.591 88.392 70.1454 90.3925C71.6728 92.3727 73.3286 94.1704 75.0588 95.7316C80.9859 101.084 87.8727 103.794 95.0771 103.794C100.24 103.794 105.566 102.402 110.804 99.5839C112.243 98.8134 113.669 97.9348 115.055 96.9751L118.299 101.091L123.875 96.7859L120.522 92.5416C121.131 91.9672 121.712 91.3792 122.266 90.7845L122.273 90.7777ZM107.742 93.8663C97.6115 99.3068 87.555 98.2592 79.4179 90.9129C77.9716 89.6017 76.5862 88.0946 75.2886 86.4186C73.9707 84.7154 72.842 82.965 71.9364 81.2214C66.8812 71.4893 68.3883 61.4937 76.1942 53.0727C77.5864 51.5724 79.1544 50.1396 80.8642 48.8149C82.5133 47.5376 84.2164 46.4225 85.933 45.4898C90.1773 43.1852 94.4215 42.0363 98.5239 42.0363C104.154 42.0363 109.527 44.199 114.257 48.477C115.724 49.8017 117.136 51.3358 118.448 53.0389C119.745 54.715 120.86 56.4384 121.759 58.1685C126.868 67.9412 125.361 77.9435 117.522 86.3442C116.19 87.7702 114.676 89.1422 113.027 90.4127C111.317 91.7374 109.533 92.8998 107.736 93.8663H107.742Z" fill="#0066E1"/>
<path d="M125.29 95.7065L116.928 102.172L132.641 122.495L141.003 116.029L125.29 95.7065Z" fill="#0066E1"/>
<path d="M123.94 96.7482L118.268 101.134L123.596 108.026L129.269 103.64L123.94 96.7482Z" fill="#003170"/>
<path d="M79.417 90.9199C77.9707 89.6155 76.5853 88.1084 75.2877 86.4256C73.9698 84.7292 72.8479 82.9788 71.9355 81.2284C66.8803 71.4963 68.3874 61.5007 76.1933 53.0798C77.5855 51.5727 79.1535 50.1466 80.8633 48.822C82.5124 47.5447 84.2155 46.4295 85.9321 45.4969C90.1831 43.199 94.4206 42.0501 98.5297 42.0501C102.639 42.0501 106.322 43.1179 109.897 45.2468C109.816 42.7597 109.708 40.2794 109.586 37.8194C101.233 34.2712 91.893 34.8795 82.8368 39.786C80.816 40.8877 78.8088 42.1988 76.8894 43.6856C74.9024 45.2265 73.0642 46.9026 71.4286 48.6666C61.7642 59.088 59.8515 72.0505 66.1706 84.2156C67.2587 86.3107 68.5969 88.3923 70.1513 90.3995C71.6787 92.3797 73.3345 94.1775 75.0646 95.7386C80.9917 101.091 87.8853 103.801 95.083 103.801C99.4962 103.801 104.011 102.788 108.498 100.74C108.721 98.2122 108.911 95.6711 109.086 93.1096C108.64 93.38 108.194 93.63 107.741 93.8733C97.6106 99.3138 87.5541 98.2663 79.417 90.9199Z" fill="#003170"/>
</g>
<defs>
<clipPath id="clip0_2870_15920">
<rect width="141" height="122.482" fill="white"/>
</clipPath>
</defs>
</svg>
